<svg width="461" height="154" viewBox="0 0 461 154" fill="none" xmlns="http://www.w3.org/2000/svg">
<g opacity="0.7">
<rect x="313" y="39.2856" width="7.14286" height="7.14286" fill="black"/>
<rect x="313" y="46.4287" width="7.14286" height="7.14286" fill="black"/>
<rect x="320.143" y="53.5713" width="7.14286" height="7.14286" fill="black"/>
<rect x="327.286" y="60.7144" width="7.14286" height="7.14286" fill="black"/>
<rect x="341.571" y="60.7144" width="7.14286" height="7.14286" fill="black"/>
<rect x="348.714" y="53.5713" width="7.14286" height="7.14286" fill="black"/>
<rect x="355.857" y="46.4287" width="7.14286" height="7.14286" fill="black"/>
<rect x="355.857" y="39.2856" width="7.14286" height="7.14286" fill="black"/>
<rect x="355.857" y="32.1431" width="7.14286" height="7.14286" fill="black"/>
<rect x="348.714" y="25" width="7.14286" height="7.14286" fill="black"/>
<rect x="341.571" y="25" width="7.14286" height="7.14286" fill="black"/>
<rect x="334.429" y="32.1431" width="7.14286" height="7.14286" fill="black"/>
<rect x="327.286" y="25" width="7.14286" height="7.14286" fill="black"/>
<rect x="320.143" y="25" width="7.14286" height="7.14286" fill="black"/>
<rect x="313" y="32.1431" width="7.14286" height="7.14286" fill="black"/>
<rect x="313" y="32.1431" width="7.14286" height="7.14286" fill="black"/>
<rect x="320.143" y="32.1431" width="7.14286" height="7.14286" fill="#3E62E1"/>
<rect x="320.143" y="39.2856" width="7.14286" height="7.14286" fill="#3E62E1"/>
<rect x="320.143" y="46.4287" width="7.14286" height="7.14286" fill="#FF0000"/>
<rect x="320.143" y="46.4287" width="7.14286" height="7.14286" fill="#0300A5"/>
<rect x="327.286" y="46.4287" width="7.14286" height="7.14286" fill="#3E62E1"/>
<rect x="327.286" y="53.5713" width="7.14286" height="7.14286" fill="#0300A5"/>
<rect x="334.429" y="53.5713" width="7.14286" height="7.14286" fill="#3E62E1"/>
<rect x="341.571" y="53.5713" width="7.14286" height="7.14286" fill="#3E62E1"/>
<rect x="341.571" y="46.4287" width="7.14286" height="7.14286" fill="#3E62E1"/>
<rect x="348.714" y="46.4287" width="7.14286" height="7.14286" fill="#3E62E1"/>
<rect x="348.714" y="32.1431" width="7.14286" height="7.14286" fill="#929DFE"/>
<rect x="348.714" y="39.2856" width="7.14286" height="7.14286" fill="#3E62E1"/>
<rect x="341.571" y="39.2856" width="7.14286" height="7.14286" fill="#3E62E1"/>
<rect x="334.429" y="39.2856" width="7.14286" height="7.14286" fill="#3E62E1"/>
<rect x="327.286" y="39.2856" width="7.14286" height="7.14286" fill="#3E62E1"/>
<rect x="327.286" y="32.1431" width="7.14286" height="7.14286" fill="#929DFE"/>
<rect x="334.429" y="46.4287" width="7.14286" height="7.14286" fill="#3E62E1"/>
<rect x="341.571" y="32.1431" width="7.14286" height="7.14286" fill="#3E62E1"/>
<rect x="334.429" y="60.7144" width="7.14286" height="7.14286" fill="#0300A5"/>
<rect x="334.429" y="67.8569" width="7.14286" height="7.14286" fill="black"/>
</g>
<g opacity="0.7">
<rect x="68" y="54.2856" width="2.14286" height="2.14286" fill="black"/>
<rect x="68" y="56.4285" width="2.14286" height="2.14286" fill="black"/>
<rect x="70.1431" y="58.5715" width="2.14286" height="2.14286" fill="black"/>
<rect x="72.2856" y="60.7144" width="2.14286" height="2.14286" fill="black"/>
<rect x="76.5713" y="60.7144" width="2.14286" height="2.14286" fill="black"/>
<rect x="78.7144" y="58.5715" width="2.14286" height="2.14286" fill="black"/>
<rect x="80.8574" y="56.4285" width="2.14286" height="2.14286" fill="black"/>
<rect x="80.8574" y="54.2856" width="2.14286" height="2.14286" fill="black"/>
<rect x="80.8574" y="52.1431" width="2.14286" height="2.14286" fill="black"/>
<rect x="78.7144" y="50" width="2.14286" height="2.14286" fill="black"/>
<rect x="76.5713" y="50" width="2.14286" height="2.14286" fill="black"/>
<rect x="74.4287" y="52.1431" width="2.14286" height="2.14286" fill="black"/>
<rect x="72.2856" y="50" width="2.14286" height="2.14286" fill="black"/>
<rect x="70.1431" y="50" width="2.14286" height="2.14286" fill="black"/>
<rect x="68" y="52.1431" width="2.14286" height="2.14286" fill="black"/>
<rect x="68" y="52.1431" width="2.14286" height="2.14286" fill="black"/>
<rect x="70.1431" y="52.1431" width="2.14286" height="2.14286" fill="#3E62E1"/>
<rect x="70.1431" y="54.2856" width="2.14286" height="2.14286" fill="#3E62E1"/>
<rect x="70.1431" y="56.4285" width="2.14286" height="2.14286" fill="#FF0000"/>
<rect x="70.1431" y="56.4285" width="2.14286" height="2.14286" fill="#0300A5"/>
<rect x="72.2856" y="56.4285" width="2.14286" height="2.14286" fill="#3E62E1"/>
<rect x="72.2856" y="58.5715" width="2.14286" height="2.14286" fill="#0300A5"/>
<rect x="74.4287" y="58.5715" width="2.14286" height="2.14286" fill="#3E62E1"/>
<rect x="76.5713" y="58.5715" width="2.14286" height="2.14286" fill="#3E62E1"/>
<rect x="76.5713" y="56.4285" width="2.14286" height="2.14286" fill="#3E62E1"/>
<rect x="78.7144" y="56.4285" width="2.14286" height="2.14286" fill="#3E62E1"/>
<rect x="78.7144" y="52.1431" width="2.14286" height="2.14286" fill="#929DFE"/>
<rect x="78.7144" y="54.2856" width="2.14286" height="2.14286" fill="#3E62E1"/>
<rect x="76.5713" y="54.2856" width="2.14286" height="2.14286" fill="#3E62E1"/>
<rect x="74.4287" y="54.2856" width="2.14286" height="2.14286" fill="#3E62E1"/>
<rect x="72.2856" y="54.2856" width="2.14286" height="2.14286" fill="#3E62E1"/>
<rect x="72.2856" y="52.1431" width="2.14286" height="2.14286" fill="#929DFE"/>
<rect x="74.4287" y="56.4285" width="2.14286" height="2.14286" fill="#3E62E1"/>
<rect x="76.5713" y="52.1431" width="2.14286" height="2.14286" fill="#3E62E1"/>
<rect x="74.4287" y="60.7144" width="2.14286" height="2.14286" fill="#0300A5"/>
<rect x="74.4287" y="62.8569" width="2.14286" height="2.14286" fill="black"/>
</g>
<g opacity="0.7">
<rect x="155" y="39.2856" width="2.14286" height="2.14286" fill="black"/>
<rect x="155" y="41.4285" width="2.14286" height="2.14286" fill="black"/>
<rect x="157.143" y="43.5715" width="2.14286" height="2.14286" fill="black"/>
<rect x="159.286" y="45.7144" width="2.14286" height="2.14286" fill="black"/>
<rect x="163.571" y="45.7144" width="2.14286" height="2.14286" fill="black"/>
<rect x="165.714" y="43.5715" width="2.14286" height="2.14286" fill="black"/>
<rect x="167.857" y="41.4285" width="2.14286" height="2.14286" fill="black"/>
<rect x="167.857" y="39.2856" width="2.14286" height="2.14286" fill="black"/>
<rect x="167.857" y="37.1431" width="2.14286" height="2.14286" fill="black"/>
<rect x="165.714" y="35" width="2.14286" height="2.14286" fill="black"/>
<rect x="163.571" y="35" width="2.14286" height="2.14286" fill="black"/>
<rect x="161.429" y="37.1431" width="2.14286" height="2.14286" fill="black"/>
<rect x="159.286" y="35" width="2.14286" height="2.14286" fill="black"/>
<rect x="157.143" y="35" width="2.14286" height="2.14286" fill="black"/>
<rect x="155" y="37.1431" width="2.14286" height="2.14286" fill="black"/>
<rect x="155" y="37.1431" width="2.14286" height="2.14286" fill="black"/>
<rect x="157.143" y="37.1431" width="2.14286" height="2.14286" fill="#3E62E1"/>
<rect x="157.143" y="39.2856" width="2.14286" height="2.14286" fill="#3E62E1"/>
<rect x="157.143" y="41.4285" width="2.14286" height="2.14286" fill="#FF0000"/>
<rect x="157.143" y="41.4285" width="2.14286" height="2.14286" fill="#0300A5"/>
<rect x="159.286" y="41.4285" width="2.14286" height="2.14286" fill="#3E62E1"/>
<rect x="159.286" y="43.5715" width="2.14286" height="2.14286" fill="#0300A5"/>
<rect x="161.429" y="43.5715" width="2.14286" height="2.14286" fill="#3E62E1"/>
<rect x="163.571" y="43.5715" width="2.14286" height="2.14286" fill="#3E62E1"/>
<rect x="163.571" y="41.4285" width="2.14286" height="2.14286" fill="#3E62E1"/>
<rect x="165.714" y="41.4285" width="2.14286" height="2.14286" fill="#3E62E1"/>
<rect x="165.714" y="37.1431" width="2.14286" height="2.14286" fill="#929DFE"/>
<rect x="165.714" y="39.2856" width="2.14286" height="2.14286" fill="#3E62E1"/>
<rect x="163.571" y="39.2856" width="2.14286" height="2.14286" fill="#3E62E1"/>
<rect x="161.429" y="39.2856" width="2.14286" height="2.14286" fill="#3E62E1"/>
<rect x="159.286" y="39.2856" width="2.14286" height="2.14286" fill="#3E62E1"/>
<rect x="159.286" y="37.1431" width="2.14286" height="2.14286" fill="#929DFE"/>
<rect x="161.429" y="41.4285" width="2.14286" height="2.14286" fill="#3E62E1"/>
<rect x="163.571" y="37.1431" width="2.14286" height="2.14286" fill="#3E62E1"/>
<rect x="161.429" y="45.7144" width="2.14286" height="2.14286" fill="#0300A5"/>
<rect x="161.429" y="47.8569" width="2.14286" height="2.14286" fill="black"/>
</g>
<g opacity="0.7">
<rect x="19" y="117.286" width="3.14286" height="3.14286" fill="black"/>
<rect x="19" y="120.428" width="3.14286" height="3.14286" fill="black"/>
<rect x="22.1431" y="123.572" width="3.14286" height="3.14286" fill="black"/>
<rect x="25.2856" y="126.714" width="3.14286" height="3.14286" fill="black"/>
<rect x="31.5713" y="126.714" width="3.14286" height="3.14286" fill="black"/>
<rect x="34.7144" y="123.572" width="3.14286" height="3.14286" fill="black"/>
<rect x="37.8574" y="120.428" width="3.14286" height="3.14286" fill="black"/>
<rect x="37.8574" y="117.286" width="3.14286" height="3.14286" fill="black"/>
<rect x="37.8574" y="114.143" width="3.14286" height="3.14286" fill="black"/>
<rect x="34.7144" y="111" width="3.14286" height="3.14286" fill="black"/>
<rect x="31.5713" y="111" width="3.14286" height="3.14286" fill="black"/>
<rect x="28.4287" y="114.143" width="3.14286" height="3.14286" fill="black"/>
<rect x="25.2856" y="111" width="3.14286" height="3.14286" fill="black"/>
<rect x="22.1431" y="111" width="3.14286" height="3.14286" fill="black"/>
<rect x="19" y="114.143" width="3.14286" height="3.14286" fill="black"/>
<rect x="19" y="114.143" width="3.14286" height="3.14286" fill="black"/>
<rect x="22.1431" y="114.143" width="3.14286" height="3.14286" fill="#3E62E1"/>
<rect x="22.1431" y="117.286" width="3.14286" height="3.14286" fill="#3E62E1"/>
<rect x="22.1431" y="120.428" width="3.14286" height="3.14286" fill="#FF0000"/>
<rect x="22.1431" y="120.428" width="3.14286" height="3.14286" fill="#0300A5"/>
<rect x="25.2856" y="120.428" width="3.14286" height="3.14286" fill="#3E62E1"/>
<rect x="25.2856" y="123.572" width="3.14286" height="3.14286" fill="#0300A5"/>
<rect x="28.4287" y="123.572" width="3.14286" height="3.14286" fill="#3E62E1"/>
<rect x="31.5713" y="123.572" width="3.14286" height="3.14286" fill="#3E62E1"/>
<rect x="31.5713" y="120.428" width="3.14286" height="3.14286" fill="#3E62E1"/>
<rect x="34.7144" y="120.428" width="3.14286" height="3.14286" fill="#3E62E1"/>
<rect x="34.7144" y="114.143" width="3.14286" height="3.14286" fill="#929DFE"/>
<rect x="34.7144" y="117.286" width="3.14286" height="3.14286" fill="#3E62E1"/>
<rect x="31.5713" y="117.286" width="3.14286" height="3.14286" fill="#3E62E1"/>
<rect x="28.4287" y="117.286" width="3.14286" height="3.14286" fill="#3E62E1"/>
<rect x="25.2856" y="117.286" width="3.14286" height="3.14286" fill="#3E62E1"/>
<rect x="25.2856" y="114.143" width="3.14286" height="3.14286" fill="#929DFE"/>
<rect x="28.4287" y="120.428" width="3.14286" height="3.14286" fill="#3E62E1"/>
<rect x="31.5713" y="114.143" width="3.14286" height="3.14286" fill="#3E62E1"/>
<rect x="28.4287" y="126.714" width="3.14286" height="3.14286" fill="#0300A5"/>
<rect x="28.4287" y="129.857" width="3.14286" height="3.14286" fill="black"/>
</g>
<g opacity="0.7">
<rect x="99" y="30.8572" width="4.42857" height="4.42857" fill="black"/>
<rect x="99" y="35.2859" width="4.42857" height="4.42857" fill="black"/>
<rect x="103.429" y="39.7141" width="4.42857" height="4.42857" fill="black"/>
<rect x="107.857" y="44.1428" width="4.42857" height="4.42857" fill="black"/>
<rect x="116.714" y="44.1428" width="4.42857" height="4.42857" fill="black"/>
<rect x="121.143" y="39.7141" width="4.42857" height="4.42857" fill="black"/>
<rect x="125.571" y="35.2859" width="4.42857" height="4.42857" fill="black"/>
<rect x="125.571" y="30.8572" width="4.42857" height="4.42857" fill="black"/>
<rect x="125.571" y="26.4287" width="4.42857" height="4.42857" fill="black"/>
<rect x="121.143" y="22" width="4.42857" height="4.42857" fill="black"/>
<rect x="116.714" y="22" width="4.42857" height="4.42857" fill="black"/>
<rect x="112.286" y="26.4287" width="4.42857" height="4.42857" fill="black"/>
<rect x="107.857" y="22" width="4.42857" height="4.42857" fill="black"/>
<rect x="103.429" y="22" width="4.42857" height="4.42857" fill="black"/>
<rect x="99" y="26.4287" width="4.42857" height="4.42857" fill="black"/>
<rect x="99" y="26.4287" width="4.42857" height="4.42857" fill="black"/>
<rect x="103.429" y="26.4287" width="4.42857" height="4.42857" fill="#3E62E1"/>
<rect x="103.429" y="30.8572" width="4.42857" height="4.42857" fill="#3E62E1"/>
<rect x="103.429" y="35.2859" width="4.42857" height="4.42857" fill="#FF0000"/>
<rect x="103.429" y="35.2859" width="4.42857" height="4.42857" fill="#0300A5"/>
<rect x="107.857" y="35.2859" width="4.42857" height="4.42857" fill="#3E62E1"/>
<rect x="107.857" y="39.7141" width="4.42857" height="4.42857" fill="#0300A5"/>
<rect x="112.286" y="39.7141" width="4.42857" height="4.42857" fill="#3E62E1"/>
<rect x="116.714" y="39.7141" width="4.42857" height="4.42857" fill="#3E62E1"/>
<rect x="116.714" y="35.2859" width="4.42857" height="4.42857" fill="#3E62E1"/>
<rect x="121.143" y="35.2859" width="4.42857" height="4.42857" fill="#3E62E1"/>
<rect x="121.143" y="26.4287" width="4.42857" height="4.42857" fill="#929DFE"/>
<rect x="121.143" y="30.8572" width="4.42857" height="4.42857" fill="#3E62E1"/>
<rect x="116.714" y="30.8572" width="4.42857" height="4.42857" fill="#3E62E1"/>
<rect x="112.286" y="30.8572" width="4.42857" height="4.42857" fill="#3E62E1"/>
<rect x="107.857" y="30.8572" width="4.42857" height="4.42857" fill="#3E62E1"/>
<rect x="107.857" y="26.4287" width="4.42857" height="4.42857" fill="#929DFE"/>
<rect x="112.286" y="35.2859" width="4.42857" height="4.42857" fill="#3E62E1"/>
<rect x="116.714" y="26.4287" width="4.42857" height="4.42857" fill="#3E62E1"/>
<rect x="112.286" y="44.1428" width="4.42857" height="4.42857" fill="#0300A5"/>
<rect x="112.286" y="48.5713" width="4.42857" height="4.42857" fill="black"/>
</g>
<g opacity="0.7">
<rect x="93" y="126.857" width="4.42857" height="4.42857" fill="black"/>
<rect x="93" y="131.286" width="4.42857" height="4.42857" fill="black"/>
<rect x="97.4287" y="135.714" width="4.42857" height="4.42857" fill="black"/>
<rect x="101.857" y="140.143" width="4.42857" height="4.42857" fill="black"/>
<rect x="110.714" y="140.143" width="4.42857" height="4.42857" fill="black"/>
<rect x="115.143" y="135.714" width="4.42857" height="4.42857" fill="black"/>
<rect x="119.571" y="131.286" width="4.42857" height="4.42857" fill="black"/>
<rect x="119.571" y="126.857" width="4.42857" height="4.42857" fill="black"/>
<rect x="119.571" y="122.429" width="4.42857" height="4.42857" fill="black"/>
<rect x="115.143" y="118" width="4.42857" height="4.42857" fill="black"/>
<rect x="110.714" y="118" width="4.42857" height="4.42857" fill="black"/>
<rect x="106.286" y="122.429" width="4.42857" height="4.42857" fill="black"/>
<rect x="101.857" y="118" width="4.42857" height="4.42857" fill="black"/>
<rect x="97.4287" y="118" width="4.42857" height="4.42857" fill="black"/>
<rect x="93" y="122.429" width="4.42857" height="4.42857" fill="black"/>
<rect x="93" y="122.429" width="4.42857" height="4.42857" fill="black"/>
<rect x="97.4287" y="122.429" width="4.42857" height="4.42857" fill="#3E62E1"/>
<rect x="97.4287" y="126.857" width="4.42857" height="4.42857" fill="#3E62E1"/>
<rect x="97.4287" y="131.286" width="4.42857" height="4.42857" fill="#FF0000"/>
<rect x="97.4287" y="131.286" width="4.42857" height="4.42857" fill="#0300A5"/>
<rect x="101.857" y="131.286" width="4.42857" height="4.42857" fill="#3E62E1"/>
<rect x="101.857" y="135.714" width="4.42857" height="4.42857" fill="#0300A5"/>
<rect x="106.286" y="135.714" width="4.42857" height="4.42857" fill="#3E62E1"/>
<rect x="110.714" y="135.714" width="4.42857" height="4.42857" fill="#3E62E1"/>
<rect x="110.714" y="131.286" width="4.42857" height="4.42857" fill="#3E62E1"/>
<rect x="115.143" y="131.286" width="4.42857" height="4.42857" fill="#3E62E1"/>
<rect x="115.143" y="122.429" width="4.42857" height="4.42857" fill="#929DFE"/>
<rect x="115.143" y="126.857" width="4.42857" height="4.42857" fill="#3E62E1"/>
<rect x="110.714" y="126.857" width="4.42857" height="4.42857" fill="#3E62E1"/>
<rect x="106.286" y="126.857" width="4.42857" height="4.42857" fill="#3E62E1"/>
<rect x="101.857" y="126.857" width="4.42857" height="4.42857" fill="#3E62E1"/>
<rect x="101.857" y="122.429" width="4.42857" height="4.42857" fill="#929DFE"/>
<rect x="106.286" y="131.286" width="4.42857" height="4.42857" fill="#3E62E1"/>
<rect x="110.714" y="122.429" width="4.42857" height="4.42857" fill="#3E62E1"/>
<rect x="106.286" y="140.143" width="4.42857" height="4.42857" fill="#0300A5"/>
<rect x="106.286" y="144.571" width="4.42857" height="4.42857" fill="black"/>
</g>
<g opacity="0.7">
<rect x="34" y="80.5715" width="6.28573" height="6.28573" fill="black"/>
<rect x="34" y="86.8574" width="6.28573" height="6.28573" fill="black"/>
<rect x="40.2856" y="93.1426" width="6.28573" height="6.28573" fill="black"/>
<rect x="46.5713" y="99.4285" width="6.28573" height="6.28573" fill="black"/>
<rect x="59.1431" y="99.4285" width="6.28573" height="6.28573" fill="black"/>
<rect x="65.4287" y="93.1426" width="6.28573" height="6.28573" fill="black"/>
<rect x="71.7144" y="86.8574" width="6.28573" height="6.28573" fill="black"/>
<rect x="71.7144" y="80.5715" width="6.28573" height="6.28573" fill="black"/>
<rect x="71.7144" y="74.2859" width="6.28573" height="6.28573" fill="black"/>
<rect x="65.4287" y="68" width="6.28573" height="6.28573" fill="black"/>
<rect x="59.1431" y="68" width="6.28573" height="6.28573" fill="black"/>
<rect x="52.8569" y="74.2859" width="6.28573" height="6.28573" fill="black"/>
<rect x="46.5713" y="68" width="6.28573" height="6.28573" fill="black"/>
<rect x="40.2856" y="68" width="6.28573" height="6.28573" fill="black"/>
<rect x="34" y="74.2859" width="6.28573" height="6.28573" fill="black"/>
<rect x="34" y="74.2859" width="6.28573" height="6.28573" fill="black"/>
<rect x="40.2856" y="74.2859" width="6.28573" height="6.28573" fill="#3E62E1"/>
<rect x="40.2856" y="80.5715" width="6.28573" height="6.28573" fill="#3E62E1"/>
<rect x="40.2856" y="86.8574" width="6.28573" height="6.28573" fill="#FF0000"/>
<rect x="40.2856" y="86.8574" width="6.28573" height="6.28573" fill="#0300A5"/>
<rect x="46.5713" y="86.8574" width="6.28573" height="6.28573" fill="#3E62E1"/>
<rect x="46.5713" y="93.1426" width="6.28573" height="6.28573" fill="#0300A5"/>
<rect x="52.8569" y="93.1426" width="6.28573" height="6.28573" fill="#3E62E1"/>
<rect x="59.1431" y="93.1426" width="6.28573" height="6.28573" fill="#3E62E1"/>
<rect x="59.1431" y="86.8574" width="6.28573" height="6.28573" fill="#3E62E1"/>
<rect x="65.4287" y="86.8574" width="6.28573" height="6.28573" fill="#3E62E1"/>
<rect x="65.4287" y="74.2859" width="6.28573" height="6.28573" fill="#929DFE"/>
<rect x="65.4287" y="80.5715" width="6.28573" height="6.28573" fill="#3E62E1"/>
<rect x="59.1431" y="80.5715" width="6.28573" height="6.28573" fill="#3E62E1"/>
<rect x="52.8569" y="80.5715" width="6.28573" height="6.28573" fill="#3E62E1"/>
<rect x="46.5713" y="80.5715" width="6.28573" height="6.28573" fill="#3E62E1"/>
<rect x="46.5713" y="74.2859" width="6.28573" height="6.28573" fill="#929DFE"/>
<rect x="52.8569" y="86.8574" width="6.28573" height="6.28573" fill="#3E62E1"/>
<rect x="59.1431" y="74.2859" width="6.28573" height="6.28573" fill="#3E62E1"/>
<rect x="52.8569" y="99.4285" width="6.28573" height="6.28573" fill="#0300A5"/>
<rect x="52.8569" y="105.714" width="6.28573" height="6.28573" fill="black"/>
</g>
<g opacity="0.7">
<rect x="334" y="125.428" width="5.71428" height="5.71428" fill="black"/>
<rect x="334" y="131.143" width="5.71428" height="5.71428" fill="black"/>
<rect x="339.714" y="136.857" width="5.71428" height="5.71428" fill="black"/>
<rect x="345.429" y="142.572" width="5.71428" height="5.71428" fill="black"/>
<rect x="356.857" y="142.572" width="5.71428" height="5.71428" fill="black"/>
<rect x="362.571" y="136.857" width="5.71428" height="5.71428" fill="black"/>
<rect x="368.286" y="131.143" width="5.71428" height="5.71428" fill="black"/>
<rect x="368.286" y="125.428" width="5.71428" height="5.71428" fill="black"/>
<rect x="368.286" y="119.714" width="5.71428" height="5.71428" fill="black"/>
<rect x="362.571" y="114" width="5.71428" height="5.71428" fill="black"/>
<rect x="356.857" y="114" width="5.71428" height="5.71428" fill="black"/>
<rect x="351.143" y="119.714" width="5.71428" height="5.71428" fill="black"/>
<rect x="345.429" y="114" width="5.71428" height="5.71428" fill="black"/>
<rect x="339.714" y="114" width="5.71428" height="5.71428" fill="black"/>
<rect x="334" y="119.714" width="5.71428" height="5.71428" fill="black"/>
<rect x="334" y="119.714" width="5.71428" height="5.71428" fill="black"/>
<rect x="339.714" y="119.714" width="5.71428" height="5.71428" fill="#3E62E1"/>
<rect x="339.714" y="125.428" width="5.71428" height="5.71428" fill="#3E62E1"/>
<rect x="339.714" y="131.143" width="5.71428" height="5.71428" fill="#FF0000"/>
<rect x="339.714" y="131.143" width="5.71428" height="5.71428" fill="#0300A5"/>
<rect x="345.429" y="131.143" width="5.71428" height="5.71428" fill="#3E62E1"/>
<rect x="345.429" y="136.857" width="5.71428" height="5.71428" fill="#0300A5"/>
<rect x="351.143" y="136.857" width="5.71428" height="5.71428" fill="#3E62E1"/>
<rect x="356.857" y="136.857" width="5.71428" height="5.71428" fill="#3E62E1"/>
<rect x="356.857" y="131.143" width="5.71428" height="5.71428" fill="#3E62E1"/>
<rect x="362.571" y="131.143" width="5.71428" height="5.71428" fill="#3E62E1"/>
<rect x="362.571" y="119.714" width="5.71428" height="5.71428" fill="#929DFE"/>
<rect x="362.571" y="125.428" width="5.71428" height="5.71428" fill="#3E62E1"/>
<rect x="356.857" y="125.428" width="5.71428" height="5.71428" fill="#3E62E1"/>
<rect x="351.143" y="125.428" width="5.71428" height="5.71428" fill="#3E62E1"/>
<rect x="345.429" y="125.428" width="5.71428" height="5.71428" fill="#3E62E1"/>
<rect x="345.429" y="119.714" width="5.71428" height="5.71428" fill="#929DFE"/>
<rect x="351.143" y="131.143" width="5.71428" height="5.71428" fill="#3E62E1"/>
<rect x="356.857" y="119.714" width="5.71428" height="5.71428" fill="#3E62E1"/>
<rect x="351.143" y="142.572" width="5.71428" height="5.71428" fill="#0300A5"/>
<rect x="351.143" y="148.285" width="5.71428" height="5.71428" fill="black"/>
</g>
<g opacity="0.7">
<rect x="418" y="99.4285" width="5.71428" height="5.71428" fill="black"/>
<rect x="418" y="105.143" width="5.71428" height="5.71428" fill="black"/>
<rect x="423.714" y="110.857" width="5.71428" height="5.71428" fill="black"/>
<rect x="429.429" y="116.572" width="5.71428" height="5.71428" fill="black"/>
<rect x="440.857" y="116.572" width="5.71428" height="5.71428" fill="black"/>
<rect x="446.571" y="110.857" width="5.71428" height="5.71428" fill="black"/>
<rect x="452.286" y="105.143" width="5.71428" height="5.71428" fill="black"/>
<rect x="452.286" y="99.4285" width="5.71428" height="5.71428" fill="black"/>
<rect x="452.286" y="93.7144" width="5.71428" height="5.71428" fill="black"/>
<rect x="446.571" y="88" width="5.71428" height="5.71428" fill="black"/>
<rect x="440.857" y="88" width="5.71428" height="5.71428" fill="black"/>
<rect x="435.143" y="93.7144" width="5.71428" height="5.71428" fill="black"/>
<rect x="429.429" y="88" width="5.71428" height="5.71428" fill="black"/>
<rect x="423.714" y="88" width="5.71428" height="5.71428" fill="black"/>
<rect x="418" y="93.7144" width="5.71428" height="5.71428" fill="black"/>
<rect x="418" y="93.7144" width="5.71428" height="5.71428" fill="black"/>
<rect x="423.714" y="93.7144" width="5.71428" height="5.71428" fill="#3E62E1"/>
<rect x="423.714" y="99.4285" width="5.71428" height="5.71428" fill="#3E62E1"/>
<rect x="423.714" y="105.143" width="5.71428" height="5.71428" fill="#FF0000"/>
<rect x="423.714" y="105.143" width="5.71428" height="5.71428" fill="#0300A5"/>
<rect x="429.429" y="105.143" width="5.71428" height="5.71428" fill="#3E62E1"/>
<rect x="429.429" y="110.857" width="5.71428" height="5.71428" fill="#0300A5"/>
<rect x="435.143" y="110.857" width="5.71428" height="5.71428" fill="#3E62E1"/>
<rect x="440.857" y="110.857" width="5.71428" height="5.71428" fill="#3E62E1"/>
<rect x="440.857" y="105.143" width="5.71428" height="5.71428" fill="#3E62E1"/>
<rect x="446.571" y="105.143" width="5.71428" height="5.71428" fill="#3E62E1"/>
<rect x="446.571" y="93.7144" width="5.71428" height="5.71428" fill="#929DFE"/>
<rect x="446.571" y="99.4285" width="5.71428" height="5.71428" fill="#3E62E1"/>
<rect x="440.857" y="99.4285" width="5.71428" height="5.71428" fill="#3E62E1"/>
<rect x="435.143" y="99.4285" width="5.71428" height="5.71428" fill="#3E62E1"/>
<rect x="429.429" y="99.4285" width="5.71428" height="5.71428" fill="#3E62E1"/>
<rect x="429.429" y="93.7144" width="5.71428" height="5.71428" fill="#929DFE"/>
<rect x="435.143" y="105.143" width="5.71428" height="5.71428" fill="#3E62E1"/>
<rect x="440.857" y="93.7144" width="5.71428" height="5.71428" fill="#3E62E1"/>
<rect x="435.143" y="116.572" width="5.71428" height="5.71428" fill="#0300A5"/>
<rect x="435.143" y="122.285" width="5.71428" height="5.71428" fill="black"/>
</g>
<g opacity="0.7">
<rect x="367" y="87.4285" width="2.71429" height="2.71429" fill="black"/>
<rect x="367" y="90.1431" width="2.71429" height="2.71429" fill="black"/>
<rect x="369.714" y="92.8569" width="2.71429" height="2.71429" fill="black"/>
<rect x="372.429" y="95.5715" width="2.71429" height="2.71429" fill="black"/>
<rect x="377.857" y="95.5715" width="2.71429" height="2.71429" fill="black"/>
<rect x="380.571" y="92.8569" width="2.71429" height="2.71429" fill="black"/>
<rect x="383.286" y="90.1431" width="2.71429" height="2.71429" fill="black"/>
<rect x="383.286" y="87.4285" width="2.71429" height="2.71429" fill="black"/>
<rect x="383.286" y="84.7144" width="2.71429" height="2.71429" fill="black"/>
<rect x="380.571" y="82" width="2.71429" height="2.71429" fill="black"/>
<rect x="377.857" y="82" width="2.71429" height="2.71429" fill="black"/>
<rect x="375.143" y="84.7144" width="2.71429" height="2.71429" fill="black"/>
<rect x="372.429" y="82" width="2.71429" height="2.71429" fill="black"/>
<rect x="369.714" y="82" width="2.71429" height="2.71429" fill="black"/>
<rect x="367" y="84.7144" width="2.71429" height="2.71429" fill="black"/>
<rect x="367" y="84.7144" width="2.71429" height="2.71429" fill="black"/>
<rect x="369.714" y="84.7144" width="2.71429" height="2.71429" fill="#3E62E1"/>
<rect x="369.714" y="87.4285" width="2.71429" height="2.71429" fill="#3E62E1"/>
<rect x="369.714" y="90.1431" width="2.71429" height="2.71429" fill="#FF0000"/>
<rect x="369.714" y="90.1431" width="2.71429" height="2.71429" fill="#0300A5"/>
<rect x="372.429" y="90.1431" width="2.71429" height="2.71429" fill="#3E62E1"/>
<rect x="372.429" y="92.8569" width="2.71429" height="2.71429" fill="#0300A5"/>
<rect x="375.143" y="92.8569" width="2.71429" height="2.71429" fill="#3E62E1"/>
<rect x="377.857" y="92.8569" width="2.71429" height="2.71429" fill="#3E62E1"/>
<rect x="377.857" y="90.1431" width="2.71429" height="2.71429" fill="#3E62E1"/>
<rect x="380.571" y="90.1431" width="2.71429" height="2.71429" fill="#3E62E1"/>
<rect x="380.571" y="84.7144" width="2.71429" height="2.71429" fill="#929DFE"/>
<rect x="380.571" y="87.4285" width="2.71429" height="2.71429" fill="#3E62E1"/>
<rect x="377.857" y="87.4285" width="2.71429" height="2.71429" fill="#3E62E1"/>
<rect x="375.143" y="87.4285" width="2.71429" height="2.71429" fill="#3E62E1"/>
<rect x="372.429" y="87.4285" width="2.71429" height="2.71429" fill="#3E62E1"/>
<rect x="372.429" y="84.7144" width="2.71429" height="2.71429" fill="#929DFE"/>
<rect x="375.143" y="90.1431" width="2.71429" height="2.71429" fill="#3E62E1"/>
<rect x="377.857" y="84.7144" width="2.71429" height="2.71429" fill="#3E62E1"/>
<rect x="375.143" y="95.5715" width="2.71429" height="2.71429" fill="#0300A5"/>
<rect x="375.143" y="98.2856" width="2.71429" height="2.71429" fill="black"/>
</g>
<g opacity="0.7">
<rect x="113" y="93.4285" width="2.71429" height="2.71429" fill="black"/>
<rect x="113" y="96.1431" width="2.71429" height="2.71429" fill="black"/>
<rect x="115.714" y="98.8569" width="2.71429" height="2.71429" fill="black"/>
<rect x="118.429" y="101.572" width="2.71429" height="2.71429" fill="black"/>
<rect x="123.857" y="101.572" width="2.71429" height="2.71429" fill="black"/>
<rect x="126.571" y="98.8569" width="2.71429" height="2.71429" fill="black"/>
<rect x="129.286" y="96.1431" width="2.71429" height="2.71429" fill="black"/>
<rect x="129.286" y="93.4285" width="2.71429" height="2.71429" fill="black"/>
<rect x="129.286" y="90.7144" width="2.71429" height="2.71429" fill="black"/>
<rect x="126.571" y="88" width="2.71429" height="2.71429" fill="black"/>
<rect x="123.857" y="88" width="2.71429" height="2.71429" fill="black"/>
<rect x="121.143" y="90.7144" width="2.71429" height="2.71429" fill="black"/>
<rect x="118.429" y="88" width="2.71429" height="2.71429" fill="black"/>
<rect x="115.714" y="88" width="2.71429" height="2.71429" fill="black"/>
<rect x="113" y="90.7144" width="2.71429" height="2.71429" fill="black"/>
<rect x="113" y="90.7144" width="2.71429" height="2.71429" fill="black"/>
<rect x="115.714" y="90.7144" width="2.71429" height="2.71429" fill="#3E62E1"/>
<rect x="115.714" y="93.4285" width="2.71429" height="2.71429" fill="#3E62E1"/>
<rect x="115.714" y="96.1431" width="2.71429" height="2.71429" fill="#FF0000"/>
<rect x="115.714" y="96.1431" width="2.71429" height="2.71429" fill="#0300A5"/>
<rect x="118.429" y="96.1431" width="2.71429" height="2.71429" fill="#3E62E1"/>
<rect x="118.429" y="98.8569" width="2.71429" height="2.71429" fill="#0300A5"/>
<rect x="121.143" y="98.8569" width="2.71429" height="2.71429" fill="#3E62E1"/>
<rect x="123.857" y="98.8569" width="2.71429" height="2.71429" fill="#3E62E1"/>
<rect x="123.857" y="96.1431" width="2.71429" height="2.71429" fill="#3E62E1"/>
<rect x="126.571" y="96.1431" width="2.71429" height="2.71429" fill="#3E62E1"/>
<rect x="126.571" y="90.7144" width="2.71429" height="2.71429" fill="#929DFE"/>
<rect x="126.571" y="93.4285" width="2.71429" height="2.71429" fill="#3E62E1"/>
<rect x="123.857" y="93.4285" width="2.71429" height="2.71429" fill="#3E62E1"/>
<rect x="121.143" y="93.4285" width="2.71429" height="2.71429" fill="#3E62E1"/>
<rect x="118.429" y="93.4285" width="2.71429" height="2.71429" fill="#3E62E1"/>
<rect x="118.429" y="90.7144" width="2.71429" height="2.71429" fill="#929DFE"/>
<rect x="121.143" y="96.1431" width="2.71429" height="2.71429" fill="#3E62E1"/>
<rect x="123.857" y="90.7144" width="2.71429" height="2.71429" fill="#3E62E1"/>
<rect x="121.143" y="101.572" width="2.71429" height="2.71429" fill="#0300A5"/>
<rect x="121.143" y="104.286" width="2.71429" height="2.71429" fill="black"/>
</g>
<g opacity="0.7">
<rect x="391" y="118.428" width="2.71429" height="2.71429" fill="black"/>
<rect x="391" y="121.143" width="2.71429" height="2.71429" fill="black"/>
<rect x="393.714" y="123.857" width="2.71429" height="2.71429" fill="black"/>
<rect x="396.429" y="126.572" width="2.71429" height="2.71429" fill="black"/>
<rect x="401.857" y="126.572" width="2.71429" height="2.71429" fill="black"/>
<rect x="404.571" y="123.857" width="2.71429" height="2.71429" fill="black"/>
<rect x="407.286" y="121.143" width="2.71429" height="2.71429" fill="black"/>
<rect x="407.286" y="118.428" width="2.71429" height="2.71429" fill="black"/>
<rect x="407.286" y="115.714" width="2.71429" height="2.71429" fill="black"/>
<rect x="404.571" y="113" width="2.71429" height="2.71429" fill="black"/>
<rect x="401.857" y="113" width="2.71429" height="2.71429" fill="black"/>
<rect x="399.143" y="115.714" width="2.71429" height="2.71429" fill="black"/>
<rect x="396.429" y="113" width="2.71429" height="2.71429" fill="black"/>
<rect x="393.714" y="113" width="2.71429" height="2.71429" fill="black"/>
<rect x="391" y="115.714" width="2.71429" height="2.71429" fill="black"/>
<rect x="391" y="115.714" width="2.71429" height="2.71429" fill="black"/>
<rect x="393.714" y="115.714" width="2.71429" height="2.71429" fill="#3E62E1"/>
<rect x="393.714" y="118.428" width="2.71429" height="2.71429" fill="#3E62E1"/>
<rect x="393.714" y="121.143" width="2.71429" height="2.71429" fill="#FF0000"/>
<rect x="393.714" y="121.143" width="2.71429" height="2.71429" fill="#0300A5"/>
<rect x="396.429" y="121.143" width="2.71429" height="2.71429" fill="#3E62E1"/>
<rect x="396.429" y="123.857" width="2.71429" height="2.71429" fill="#0300A5"/>
<rect x="399.143" y="123.857" width="2.71429" height="2.71429" fill="#3E62E1"/>
<rect x="401.857" y="123.857" width="2.71429" height="2.71429" fill="#3E62E1"/>
<rect x="401.857" y="121.143" width="2.71429" height="2.71429" fill="#3E62E1"/>
<rect x="404.571" y="121.143" width="2.71429" height="2.71429" fill="#3E62E1"/>
<rect x="404.571" y="115.714" width="2.71429" height="2.71429" fill="#929DFE"/>
<rect x="404.571" y="118.428" width="2.71429" height="2.71429" fill="#3E62E1"/>
<rect x="401.857" y="118.428" width="2.71429" height="2.71429" fill="#3E62E1"/>
<rect x="399.143" y="118.428" width="2.71429" height="2.71429" fill="#3E62E1"/>
<rect x="396.429" y="118.428" width="2.71429" height="2.71429" fill="#3E62E1"/>
<rect x="396.429" y="115.714" width="2.71429" height="2.71429" fill="#929DFE"/>
<rect x="399.143" y="121.143" width="2.71429" height="2.71429" fill="#3E62E1"/>
<rect x="401.857" y="115.714" width="2.71429" height="2.71429" fill="#3E62E1"/>
<rect x="399.143" y="126.572" width="2.71429" height="2.71429" fill="#0300A5"/>
<rect x="399.143" y="129.286" width="2.71429" height="2.71429" fill="black"/>
</g>
<g opacity="0.7">
<rect x="384" y="50" width="4.00003" height="4.00003" fill="black"/>
<rect x="384" y="54.0005" width="4.00003" height="4.00003" fill="black"/>
<rect x="388" y="57.9998" width="4.00003" height="4.00003" fill="black"/>
<rect x="392" y="62.0002" width="4.00003" height="4.00003" fill="black"/>
<rect x="400" y="62.0002" width="4.00003" height="4.00003" fill="black"/>
<rect x="404" y="57.9998" width="4.00003" height="4.00003" fill="black"/>
<rect x="408" y="54.0005" width="4.00003" height="4.00003" fill="black"/>
<rect x="408" y="50" width="4.00003" height="4.00003" fill="black"/>
<rect x="408" y="46" width="4.00003" height="4.00003" fill="black"/>
<rect x="404" y="42" width="4.00003" height="4.00003" fill="black"/>
<rect x="400" y="42" width="4.00003" height="4.00003" fill="black"/>
<rect x="396" y="46" width="4.00003" height="4.00003" fill="black"/>
<rect x="392" y="42" width="4.00003" height="4.00003" fill="black"/>
<rect x="388" y="42" width="4.00003" height="4.00003" fill="black"/>
<rect x="384" y="46" width="4.00003" height="4.00003" fill="black"/>
<rect x="384" y="46" width="4.00003" height="4.00003" fill="black"/>
<rect x="388" y="46" width="4.00003" height="4.00003" fill="#3E62E1"/>
<rect x="388" y="50" width="4.00003" height="4.00003" fill="#3E62E1"/>
<rect x="388" y="54.0005" width="4.00003" height="4.00003" fill="#FF0000"/>
<rect x="388" y="54.0005" width="4.00003" height="4.00003" fill="#0300A5"/>
<rect x="392" y="54.0005" width="4.00003" height="4.00003" fill="#3E62E1"/>
<rect x="392" y="57.9998" width="4.00003" height="4.00003" fill="#0300A5"/>
<rect x="396" y="57.9998" width="4.00003" height="4.00003" fill="#3E62E1"/>
<rect x="400" y="57.9998" width="4.00003" height="4.00003" fill="#3E62E1"/>
<rect x="400" y="54.0005" width="4.00003" height="4.00003" fill="#3E62E1"/>
<rect x="404" y="54.0005" width="4.00003" height="4.00003" fill="#3E62E1"/>
<rect x="404" y="46" width="4.00003" height="4.00003" fill="#929DFE"/>
<rect x="404" y="50" width="4.00003" height="4.00003" fill="#3E62E1"/>
<rect x="400" y="50" width="4.00003" height="4.00003" fill="#3E62E1"/>
<rect x="396" y="50" width="4.00003" height="4.00003" fill="#3E62E1"/>
<rect x="392" y="50" width="4.00003" height="4.00003" fill="#3E62E1"/>
<rect x="392" y="46" width="4.00003" height="4.00003" fill="#929DFE"/>
<rect x="396" y="54.0005" width="4.00003" height="4.00003" fill="#3E62E1"/>
<rect x="400" y="46" width="4.00003" height="4.00003" fill="#3E62E1"/>
<rect x="396" y="62.0002" width="4.00003" height="4.00003" fill="#0300A5"/>
<rect x="396" y="66.0002" width="4.00003" height="4.00003" fill="black"/>
</g>
<g opacity="0.7">
<rect x="416" y="12.8572" width="6.42857" height="6.42857" fill="black"/>
<rect x="416" y="19.2861" width="6.42857" height="6.42857" fill="black"/>
<rect x="422.429" y="25.7139" width="6.42857" height="6.42857" fill="black"/>
<rect x="428.857" y="32.1428" width="6.42857" height="6.42857" fill="black"/>
<rect x="441.714" y="32.1428" width="6.42857" height="6.42857" fill="black"/>
<rect x="448.143" y="25.7139" width="6.42857" height="6.42857" fill="black"/>
<rect x="454.571" y="19.2861" width="6.42857" height="6.42857" fill="black"/>
<rect x="454.571" y="12.8572" width="6.42857" height="6.42857" fill="black"/>
<rect x="454.571" y="6.42847" width="6.42857" height="6.42857" fill="black"/>
<rect x="448.143" width="6.42857" height="6.42857" fill="black"/>
<rect x="441.714" width="6.42857" height="6.42857" fill="black"/>
<rect x="435.286" y="6.42847" width="6.42857" height="6.42857" fill="black"/>
<rect x="428.857" width="6.42857" height="6.42857" fill="black"/>
<rect x="422.429" width="6.42857" height="6.42857" fill="black"/>
<rect x="416" y="6.42847" width="6.42857" height="6.42857" fill="black"/>
<rect x="416" y="6.42847" width="6.42857" height="6.42857" fill="black"/>
<rect x="422.429" y="6.42847" width="6.42857" height="6.42857" fill="#3E62E1"/>
<rect x="422.429" y="12.8572" width="6.42857" height="6.42857" fill="#3E62E1"/>
<rect x="422.429" y="19.2861" width="6.42857" height="6.42857" fill="#FF0000"/>
<rect x="422.429" y="19.2861" width="6.42857" height="6.42857" fill="#0300A5"/>
<rect x="428.857" y="19.2861" width="6.42857" height="6.42857" fill="#3E62E1"/>
<rect x="428.857" y="25.7139" width="6.42857" height="6.42857" fill="#0300A5"/>
<rect x="435.286" y="25.7139" width="6.42857" height="6.42857" fill="#3E62E1"/>
<rect x="441.714" y="25.7139" width="6.42857" height="6.42857" fill="#3E62E1"/>
<rect x="441.714" y="19.2861" width="6.42857" height="6.42857" fill="#3E62E1"/>
<rect x="448.143" y="19.2861" width="6.42857" height="6.42857" fill="#3E62E1"/>
<rect x="448.143" y="6.42847" width="6.42857" height="6.42857" fill="#929DFE"/>
<rect x="448.143" y="12.8572" width="6.42857" height="6.42857" fill="#3E62E1"/>
<rect x="441.714" y="12.8572" width="6.42857" height="6.42857" fill="#3E62E1"/>
<rect x="435.286" y="12.8572" width="6.42857" height="6.42857" fill="#3E62E1"/>
<rect x="428.857" y="12.8572" width="6.42857" height="6.42857" fill="#3E62E1"/>
<rect x="428.857" y="6.42847" width="6.42857" height="6.42857" fill="#929DFE"/>
<rect x="435.286" y="19.2861" width="6.42857" height="6.42857" fill="#3E62E1"/>
<rect x="441.714" y="6.42847" width="6.42857" height="6.42857" fill="#3E62E1"/>
<rect x="435.286" y="32.1428" width="6.42857" height="6.42857" fill="#0300A5"/>
<rect x="435.286" y="38.571" width="6.42857" height="6.42857" fill="black"/>
</g>
<g opacity="0.7">
<rect y="18.7144" width="7.85716" height="7.85716" fill="black"/>
<rect y="26.5718" width="7.85716" height="7.85716" fill="black"/>
<rect x="7.85693" y="34.4282" width="7.85716" height="7.85716" fill="black"/>
<rect x="15.7144" y="42.2856" width="7.85716" height="7.85716" fill="black"/>
<rect x="31.4287" y="42.2856" width="7.85716" height="7.85716" fill="black"/>
<rect x="39.2856" y="34.4282" width="7.85716" height="7.85716" fill="black"/>
<rect x="47.1431" y="26.5718" width="7.85716" height="7.85716" fill="black"/>
<rect x="47.1431" y="18.7144" width="7.85716" height="7.85716" fill="black"/>
<rect x="47.1431" y="10.8574" width="7.85716" height="7.85716" fill="black"/>
<rect x="39.2856" y="3" width="7.85716" height="7.85716" fill="black"/>
<rect x="31.4287" y="3" width="7.85716" height="7.85716" fill="black"/>
<rect x="23.5713" y="10.8574" width="7.85716" height="7.85716" fill="black"/>
<rect x="15.7144" y="3" width="7.85716" height="7.85716" fill="black"/>
<rect x="7.85693" y="3" width="7.85716" height="7.85716" fill="black"/>
<rect y="10.8574" width="7.85716" height="7.85716" fill="black"/>
<rect y="10.8574" width="7.85716" height="7.85716" fill="black"/>
<rect x="7.85693" y="10.8574" width="7.85716" height="7.85716" fill="#3E62E1"/>
<rect x="7.85693" y="18.7144" width="7.85716" height="7.85716" fill="#3E62E1"/>
<rect x="7.85693" y="26.5718" width="7.85716" height="7.85716" fill="#FF0000"/>
<rect x="7.85693" y="26.5718" width="7.85716" height="7.85716" fill="#0300A5"/>
<rect x="15.7144" y="26.5718" width="7.85716" height="7.85716" fill="#3E62E1"/>
<rect x="15.7144" y="34.4282" width="7.85716" height="7.85716" fill="#0300A5"/>
<rect x="23.5713" y="34.4282" width="7.85716" height="7.85716" fill="#3E62E1"/>
<rect x="31.4287" y="34.4282" width="7.85716" height="7.85716" fill="#3E62E1"/>
<rect x="31.4287" y="26.5718" width="7.85716" height="7.85716" fill="#3E62E1"/>
<rect x="39.2856" y="26.5718" width="7.85716" height="7.85716" fill="#3E62E1"/>
<rect x="39.2856" y="10.8574" width="7.85716" height="7.85716" fill="#929DFE"/>
<rect x="39.2856" y="18.7144" width="7.85716" height="7.85716" fill="#3E62E1"/>
<rect x="31.4287" y="18.7144" width="7.85716" height="7.85716" fill="#3E62E1"/>
<rect x="23.5713" y="18.7144" width="7.85716" height="7.85716" fill="#3E62E1"/>
<rect x="15.7144" y="18.7144" width="7.85716" height="7.85716" fill="#3E62E1"/>
<rect x="15.7144" y="10.8574" width="7.85716" height="7.85716" fill="#929DFE"/>
<rect x="23.5713" y="26.5718" width="7.85716" height="7.85716" fill="#3E62E1"/>
<rect x="31.4287" y="10.8574" width="7.85716" height="7.85716" fill="#3E62E1"/>
<rect x="23.5713" y="42.2856" width="7.85716" height="7.85716" fill="#0300A5"/>
<rect x="23.5713" y="50.1428" width="7.85716" height="7.85716" fill="black"/>
</g>
</svg>
