<svg width="461" height="165" viewBox="0 0 461 165" fill="none" xmlns="http://www.w3.org/2000/svg">
<g opacity="0.7">
<rect x="278" y="28.2856" width="7.14286" height="7.14286" fill="black"/>
<rect x="278" y="35.4287" width="7.14286" height="7.14286" fill="black"/>
<rect x="285.143" y="42.5713" width="7.14286" height="7.14286" fill="black"/>
<rect x="292.286" y="49.7144" width="7.14286" height="7.14286" fill="black"/>
<rect x="306.571" y="49.7144" width="7.14286" height="7.14286" fill="black"/>
<rect x="313.714" y="42.5713" width="7.14286" height="7.14286" fill="black"/>
<rect x="320.857" y="35.4287" width="7.14286" height="7.14286" fill="black"/>
<rect x="320.857" y="28.2856" width="7.14286" height="7.14286" fill="black"/>
<rect x="320.857" y="21.1431" width="7.14286" height="7.14286" fill="black"/>
<rect x="313.714" y="14" width="7.14286" height="7.14286" fill="black"/>
<rect x="306.571" y="14" width="7.14286" height="7.14286" fill="black"/>
<rect x="299.429" y="21.1431" width="7.14286" height="7.14286" fill="black"/>
<rect x="292.286" y="14" width="7.14286" height="7.14286" fill="black"/>
<rect x="285.143" y="14" width="7.14286" height="7.14286" fill="black"/>
<rect x="278" y="21.1431" width="7.14286" height="7.14286" fill="black"/>
<rect x="278" y="21.1431" width="7.14286" height="7.14286" fill="black"/>
<rect x="285.143" y="21.1431" width="7.14286" height="7.14286" fill="#FF0000"/>
<rect x="285.143" y="28.2856" width="7.14286" height="7.14286" fill="#FF0000"/>
<rect x="285.143" y="35.4287" width="7.14286" height="7.14286" fill="#FF0000"/>
<rect x="285.143" y="35.4287" width="7.14286" height="7.14286" fill="#A50000"/>
<rect x="292.286" y="35.4287" width="7.14286" height="7.14286" fill="#FF0000"/>
<rect x="292.286" y="42.5713" width="7.14286" height="7.14286" fill="#A50000"/>
<rect x="299.429" y="42.5713" width="7.14286" height="7.14286" fill="#FF0000"/>
<rect x="306.571" y="42.5713" width="7.14286" height="7.14286" fill="#FF0000"/>
<rect x="306.571" y="35.4287" width="7.14286" height="7.14286" fill="#FF0000"/>
<rect x="313.714" y="35.4287" width="7.14286" height="7.14286" fill="#FF0000"/>
<rect x="313.714" y="21.1431" width="7.14286" height="7.14286" fill="#FE9292"/>
<rect x="313.714" y="28.2856" width="7.14286" height="7.14286" fill="#FF0000"/>
<rect x="306.571" y="28.2856" width="7.14286" height="7.14286" fill="#FF0000"/>
<rect x="299.429" y="28.2856" width="7.14286" height="7.14286" fill="#FF0000"/>
<rect x="292.286" y="28.2856" width="7.14286" height="7.14286" fill="#FF0000"/>
<rect x="292.286" y="21.1431" width="7.14286" height="7.14286" fill="#FE9292"/>
<rect x="299.429" y="35.4287" width="7.14286" height="7.14286" fill="#FF0000"/>
<rect x="306.571" y="21.1431" width="7.14286" height="7.14286" fill="#FF0000"/>
<rect x="299.429" y="49.7144" width="7.14286" height="7.14286" fill="#A50000"/>
<rect x="299.429" y="56.8569" width="7.14286" height="7.14286" fill="black"/>
</g>
<g opacity="0.7">
<rect y="73.2856" width="2.14286" height="2.14286" fill="black"/>
<rect y="75.4285" width="2.14286" height="2.14286" fill="black"/>
<rect x="2.14307" y="77.5715" width="2.14286" height="2.14286" fill="black"/>
<rect x="4.28564" y="79.7144" width="2.14286" height="2.14286" fill="black"/>
<rect x="8.57129" y="79.7144" width="2.14286" height="2.14286" fill="black"/>
<rect x="10.7144" y="77.5715" width="2.14286" height="2.14286" fill="black"/>
<rect x="12.8574" y="75.4285" width="2.14286" height="2.14286" fill="black"/>
<rect x="12.8574" y="73.2856" width="2.14286" height="2.14286" fill="black"/>
<rect x="12.8574" y="71.1431" width="2.14286" height="2.14286" fill="black"/>
<rect x="10.7144" y="69" width="2.14286" height="2.14286" fill="black"/>
<rect x="8.57129" y="69" width="2.14286" height="2.14286" fill="black"/>
<rect x="6.42871" y="71.1431" width="2.14286" height="2.14286" fill="black"/>
<rect x="4.28564" y="69" width="2.14286" height="2.14286" fill="black"/>
<rect x="2.14307" y="69" width="2.14286" height="2.14286" fill="black"/>
<rect y="71.1431" width="2.14286" height="2.14286" fill="black"/>
<rect y="71.1431" width="2.14286" height="2.14286" fill="black"/>
<rect x="2.14307" y="71.1431" width="2.14286" height="2.14286" fill="#FF0000"/>
<rect x="2.14307" y="73.2856" width="2.14286" height="2.14286" fill="#FF0000"/>
<rect x="2.14307" y="75.4285" width="2.14286" height="2.14286" fill="#FF0000"/>
<rect x="2.14307" y="75.4285" width="2.14286" height="2.14286" fill="#A50000"/>
<rect x="4.28564" y="75.4285" width="2.14286" height="2.14286" fill="#FF0000"/>
<rect x="4.28564" y="77.5715" width="2.14286" height="2.14286" fill="#A50000"/>
<rect x="6.42871" y="77.5715" width="2.14286" height="2.14286" fill="#FF0000"/>
<rect x="8.57129" y="77.5715" width="2.14286" height="2.14286" fill="#FF0000"/>
<rect x="8.57129" y="75.4285" width="2.14286" height="2.14286" fill="#FF0000"/>
<rect x="10.7144" y="75.4285" width="2.14286" height="2.14286" fill="#FF0000"/>
<rect x="10.7144" y="71.1431" width="2.14286" height="2.14286" fill="#FE9292"/>
<rect x="10.7144" y="73.2856" width="2.14286" height="2.14286" fill="#FF0000"/>
<rect x="8.57129" y="73.2856" width="2.14286" height="2.14286" fill="#FF0000"/>
<rect x="6.42871" y="73.2856" width="2.14286" height="2.14286" fill="#FF0000"/>
<rect x="4.28564" y="73.2856" width="2.14286" height="2.14286" fill="#FF0000"/>
<rect x="4.28564" y="71.1431" width="2.14286" height="2.14286" fill="#FE9292"/>
<rect x="6.42871" y="75.4285" width="2.14286" height="2.14286" fill="#FF0000"/>
<rect x="8.57129" y="71.1431" width="2.14286" height="2.14286" fill="#FF0000"/>
<rect x="6.42871" y="79.7144" width="2.14286" height="2.14286" fill="#A50000"/>
<rect x="6.42871" y="81.8569" width="2.14286" height="2.14286" fill="black"/>
</g>
<g opacity="0.7">
<rect x="204" y="35.2856" width="2.14286" height="2.14286" fill="black"/>
<rect x="204" y="37.4285" width="2.14286" height="2.14286" fill="black"/>
<rect x="206.143" y="39.5715" width="2.14286" height="2.14286" fill="black"/>
<rect x="208.286" y="41.7144" width="2.14286" height="2.14286" fill="black"/>
<rect x="212.571" y="41.7144" width="2.14286" height="2.14286" fill="black"/>
<rect x="214.714" y="39.5715" width="2.14286" height="2.14286" fill="black"/>
<rect x="216.857" y="37.4285" width="2.14286" height="2.14286" fill="black"/>
<rect x="216.857" y="35.2856" width="2.14286" height="2.14286" fill="black"/>
<rect x="216.857" y="33.1431" width="2.14286" height="2.14286" fill="black"/>
<rect x="214.714" y="31" width="2.14286" height="2.14286" fill="black"/>
<rect x="212.571" y="31" width="2.14286" height="2.14286" fill="black"/>
<rect x="210.429" y="33.1431" width="2.14286" height="2.14286" fill="black"/>
<rect x="208.286" y="31" width="2.14286" height="2.14286" fill="black"/>
<rect x="206.143" y="31" width="2.14286" height="2.14286" fill="black"/>
<rect x="204" y="33.1431" width="2.14286" height="2.14286" fill="black"/>
<rect x="204" y="33.1431" width="2.14286" height="2.14286" fill="black"/>
<rect x="206.143" y="33.1431" width="2.14286" height="2.14286" fill="#FF0000"/>
<rect x="206.143" y="35.2856" width="2.14286" height="2.14286" fill="#FF0000"/>
<rect x="206.143" y="37.4285" width="2.14286" height="2.14286" fill="#FF0000"/>
<rect x="206.143" y="37.4285" width="2.14286" height="2.14286" fill="#A50000"/>
<rect x="208.286" y="37.4285" width="2.14286" height="2.14286" fill="#FF0000"/>
<rect x="208.286" y="39.5715" width="2.14286" height="2.14286" fill="#A50000"/>
<rect x="210.429" y="39.5715" width="2.14286" height="2.14286" fill="#FF0000"/>
<rect x="212.571" y="39.5715" width="2.14286" height="2.14286" fill="#FF0000"/>
<rect x="212.571" y="37.4285" width="2.14286" height="2.14286" fill="#FF0000"/>
<rect x="214.714" y="37.4285" width="2.14286" height="2.14286" fill="#FF0000"/>
<rect x="214.714" y="33.1431" width="2.14286" height="2.14286" fill="#FE9292"/>
<rect x="214.714" y="35.2856" width="2.14286" height="2.14286" fill="#FF0000"/>
<rect x="212.571" y="35.2856" width="2.14286" height="2.14286" fill="#FF0000"/>
<rect x="210.429" y="35.2856" width="2.14286" height="2.14286" fill="#FF0000"/>
<rect x="208.286" y="35.2856" width="2.14286" height="2.14286" fill="#FF0000"/>
<rect x="208.286" y="33.1431" width="2.14286" height="2.14286" fill="#FE9292"/>
<rect x="210.429" y="37.4285" width="2.14286" height="2.14286" fill="#FF0000"/>
<rect x="212.571" y="33.1431" width="2.14286" height="2.14286" fill="#FF0000"/>
<rect x="210.429" y="41.7144" width="2.14286" height="2.14286" fill="#A50000"/>
<rect x="210.429" y="43.8569" width="2.14286" height="2.14286" fill="black"/>
</g>
<g opacity="0.7">
<rect y="144.286" width="3.14286" height="3.14286" fill="black"/>
<rect y="147.428" width="3.14286" height="3.14286" fill="black"/>
<rect x="3.14307" y="150.572" width="3.14286" height="3.14286" fill="black"/>
<rect x="6.28564" y="153.714" width="3.14286" height="3.14286" fill="black"/>
<rect x="12.5713" y="153.714" width="3.14286" height="3.14286" fill="black"/>
<rect x="15.7144" y="150.572" width="3.14286" height="3.14286" fill="black"/>
<rect x="18.8574" y="147.428" width="3.14286" height="3.14286" fill="black"/>
<rect x="18.8574" y="144.286" width="3.14286" height="3.14286" fill="black"/>
<rect x="18.8574" y="141.143" width="3.14286" height="3.14286" fill="black"/>
<rect x="15.7144" y="138" width="3.14286" height="3.14286" fill="black"/>
<rect x="12.5713" y="138" width="3.14286" height="3.14286" fill="black"/>
<rect x="9.42871" y="141.143" width="3.14286" height="3.14286" fill="black"/>
<rect x="6.28564" y="138" width="3.14286" height="3.14286" fill="black"/>
<rect x="3.14307" y="138" width="3.14286" height="3.14286" fill="black"/>
<rect y="141.143" width="3.14286" height="3.14286" fill="black"/>
<rect y="141.143" width="3.14286" height="3.14286" fill="black"/>
<rect x="3.14307" y="141.143" width="3.14286" height="3.14286" fill="#FF0000"/>
<rect x="3.14307" y="144.286" width="3.14286" height="3.14286" fill="#FF0000"/>
<rect x="3.14307" y="147.428" width="3.14286" height="3.14286" fill="#FF0000"/>
<rect x="3.14307" y="147.428" width="3.14286" height="3.14286" fill="#A50000"/>
<rect x="6.28564" y="147.428" width="3.14286" height="3.14286" fill="#FF0000"/>
<rect x="6.28564" y="150.572" width="3.14286" height="3.14286" fill="#A50000"/>
<rect x="9.42871" y="150.572" width="3.14286" height="3.14286" fill="#FF0000"/>
<rect x="12.5713" y="150.572" width="3.14286" height="3.14286" fill="#FF0000"/>
<rect x="12.5713" y="147.428" width="3.14286" height="3.14286" fill="#FF0000"/>
<rect x="15.7144" y="147.428" width="3.14286" height="3.14286" fill="#FF0000"/>
<rect x="15.7144" y="141.143" width="3.14286" height="3.14286" fill="#FE9292"/>
<rect x="15.7144" y="144.286" width="3.14286" height="3.14286" fill="#FF0000"/>
<rect x="12.5713" y="144.286" width="3.14286" height="3.14286" fill="#FF0000"/>
<rect x="9.42871" y="144.286" width="3.14286" height="3.14286" fill="#FF0000"/>
<rect x="6.28564" y="144.286" width="3.14286" height="3.14286" fill="#FF0000"/>
<rect x="6.28564" y="141.143" width="3.14286" height="3.14286" fill="#FE9292"/>
<rect x="9.42871" y="147.428" width="3.14286" height="3.14286" fill="#FF0000"/>
<rect x="12.5713" y="141.143" width="3.14286" height="3.14286" fill="#FF0000"/>
<rect x="9.42871" y="153.714" width="3.14286" height="3.14286" fill="#A50000"/>
<rect x="9.42871" y="156.857" width="3.14286" height="3.14286" fill="black"/>
</g>
<g opacity="0.7">
<rect x="114" y="31.8572" width="4.42857" height="4.42857" fill="black"/>
<rect x="114" y="36.2859" width="4.42857" height="4.42857" fill="black"/>
<rect x="118.429" y="40.7141" width="4.42857" height="4.42857" fill="black"/>
<rect x="122.857" y="45.1428" width="4.42857" height="4.42857" fill="black"/>
<rect x="131.714" y="45.1428" width="4.42857" height="4.42857" fill="black"/>
<rect x="136.143" y="40.7141" width="4.42857" height="4.42857" fill="black"/>
<rect x="140.571" y="36.2859" width="4.42857" height="4.42857" fill="black"/>
<rect x="140.571" y="31.8572" width="4.42857" height="4.42857" fill="black"/>
<rect x="140.571" y="27.4287" width="4.42857" height="4.42857" fill="black"/>
<rect x="136.143" y="23" width="4.42857" height="4.42857" fill="black"/>
<rect x="131.714" y="23" width="4.42857" height="4.42857" fill="black"/>
<rect x="127.286" y="27.4287" width="4.42857" height="4.42857" fill="black"/>
<rect x="122.857" y="23" width="4.42857" height="4.42857" fill="black"/>
<rect x="118.429" y="23" width="4.42857" height="4.42857" fill="black"/>
<rect x="114" y="27.4287" width="4.42857" height="4.42857" fill="black"/>
<rect x="114" y="27.4287" width="4.42857" height="4.42857" fill="black"/>
<rect x="118.429" y="27.4287" width="4.42857" height="4.42857" fill="#FF0000"/>
<rect x="118.429" y="31.8572" width="4.42857" height="4.42857" fill="#FF0000"/>
<rect x="118.429" y="36.2859" width="4.42857" height="4.42857" fill="#FF0000"/>
<rect x="118.429" y="36.2859" width="4.42857" height="4.42857" fill="#A50000"/>
<rect x="122.857" y="36.2859" width="4.42857" height="4.42857" fill="#FF0000"/>
<rect x="122.857" y="40.7141" width="4.42857" height="4.42857" fill="#A50000"/>
<rect x="127.286" y="40.7141" width="4.42857" height="4.42857" fill="#FF0000"/>
<rect x="131.714" y="40.7141" width="4.42857" height="4.42857" fill="#FF0000"/>
<rect x="131.714" y="36.2859" width="4.42857" height="4.42857" fill="#FF0000"/>
<rect x="136.143" y="36.2859" width="4.42857" height="4.42857" fill="#FF0000"/>
<rect x="136.143" y="27.4287" width="4.42857" height="4.42857" fill="#FE9292"/>
<rect x="136.143" y="31.8572" width="4.42857" height="4.42857" fill="#FF0000"/>
<rect x="131.714" y="31.8572" width="4.42857" height="4.42857" fill="#FF0000"/>
<rect x="127.286" y="31.8572" width="4.42857" height="4.42857" fill="#FF0000"/>
<rect x="122.857" y="31.8572" width="4.42857" height="4.42857" fill="#FF0000"/>
<rect x="122.857" y="27.4287" width="4.42857" height="4.42857" fill="#FE9292"/>
<rect x="127.286" y="36.2859" width="4.42857" height="4.42857" fill="#FF0000"/>
<rect x="131.714" y="27.4287" width="4.42857" height="4.42857" fill="#FF0000"/>
<rect x="127.286" y="45.1428" width="4.42857" height="4.42857" fill="#A50000"/>
<rect x="127.286" y="49.5713" width="4.42857" height="4.42857" fill="black"/>
</g>
<g opacity="0.7">
<rect x="81" y="142.857" width="4.42857" height="4.42857" fill="black"/>
<rect x="81" y="147.286" width="4.42857" height="4.42857" fill="black"/>
<rect x="85.4287" y="151.714" width="4.42857" height="4.42857" fill="black"/>
<rect x="89.8569" y="156.143" width="4.42857" height="4.42857" fill="black"/>
<rect x="98.7144" y="156.143" width="4.42857" height="4.42857" fill="black"/>
<rect x="103.143" y="151.714" width="4.42857" height="4.42857" fill="black"/>
<rect x="107.571" y="147.286" width="4.42857" height="4.42857" fill="black"/>
<rect x="107.571" y="142.857" width="4.42857" height="4.42857" fill="black"/>
<rect x="107.571" y="138.429" width="4.42857" height="4.42857" fill="black"/>
<rect x="103.143" y="134" width="4.42857" height="4.42857" fill="black"/>
<rect x="98.7144" y="134" width="4.42857" height="4.42857" fill="black"/>
<rect x="94.2856" y="138.429" width="4.42857" height="4.42857" fill="black"/>
<rect x="89.8569" y="134" width="4.42857" height="4.42857" fill="black"/>
<rect x="85.4287" y="134" width="4.42857" height="4.42857" fill="black"/>
<rect x="81" y="138.429" width="4.42857" height="4.42857" fill="black"/>
<rect x="81" y="138.429" width="4.42857" height="4.42857" fill="black"/>
<rect x="85.4287" y="138.429" width="4.42857" height="4.42857" fill="#FF0000"/>
<rect x="85.4287" y="142.857" width="4.42857" height="4.42857" fill="#FF0000"/>
<rect x="85.4287" y="147.286" width="4.42857" height="4.42857" fill="#FF0000"/>
<rect x="85.4287" y="147.286" width="4.42857" height="4.42857" fill="#A50000"/>
<rect x="89.8569" y="147.286" width="4.42857" height="4.42857" fill="#FF0000"/>
<rect x="89.8569" y="151.714" width="4.42857" height="4.42857" fill="#A50000"/>
<rect x="94.2856" y="151.714" width="4.42857" height="4.42857" fill="#FF0000"/>
<rect x="98.7144" y="151.714" width="4.42857" height="4.42857" fill="#FF0000"/>
<rect x="98.7144" y="147.286" width="4.42857" height="4.42857" fill="#FF0000"/>
<rect x="103.143" y="147.286" width="4.42857" height="4.42857" fill="#FF0000"/>
<rect x="103.143" y="138.429" width="4.42857" height="4.42857" fill="#FE9292"/>
<rect x="103.143" y="142.857" width="4.42857" height="4.42857" fill="#FF0000"/>
<rect x="98.7144" y="142.857" width="4.42857" height="4.42857" fill="#FF0000"/>
<rect x="94.2856" y="142.857" width="4.42857" height="4.42857" fill="#FF0000"/>
<rect x="89.8569" y="142.857" width="4.42857" height="4.42857" fill="#FF0000"/>
<rect x="89.8569" y="138.429" width="4.42857" height="4.42857" fill="#FE9292"/>
<rect x="94.2856" y="147.286" width="4.42857" height="4.42857" fill="#FF0000"/>
<rect x="98.7144" y="138.429" width="4.42857" height="4.42857" fill="#FF0000"/>
<rect x="94.2856" y="156.143" width="4.42857" height="4.42857" fill="#A50000"/>
<rect x="94.2856" y="160.571" width="4.42857" height="4.42857" fill="black"/>
</g>
<g opacity="0.7">
<rect y="99.5715" width="6.28573" height="6.28573" fill="black"/>
<rect y="105.857" width="6.28573" height="6.28573" fill="black"/>
<rect x="6.28564" y="112.143" width="6.28573" height="6.28573" fill="black"/>
<rect x="12.5713" y="118.428" width="6.28573" height="6.28573" fill="black"/>
<rect x="25.1431" y="118.428" width="6.28573" height="6.28573" fill="black"/>
<rect x="31.4287" y="112.143" width="6.28573" height="6.28573" fill="black"/>
<rect x="37.7144" y="105.857" width="6.28573" height="6.28573" fill="black"/>
<rect x="37.7144" y="99.5715" width="6.28573" height="6.28573" fill="black"/>
<rect x="37.7144" y="93.2859" width="6.28573" height="6.28573" fill="black"/>
<rect x="31.4287" y="87" width="6.28573" height="6.28573" fill="black"/>
<rect x="25.1431" y="87" width="6.28573" height="6.28573" fill="black"/>
<rect x="18.8569" y="93.2859" width="6.28573" height="6.28573" fill="black"/>
<rect x="12.5713" y="87" width="6.28573" height="6.28573" fill="black"/>
<rect x="6.28564" y="87" width="6.28573" height="6.28573" fill="black"/>
<rect y="93.2859" width="6.28573" height="6.28573" fill="black"/>
<rect y="93.2859" width="6.28573" height="6.28573" fill="black"/>
<rect x="6.28564" y="93.2859" width="6.28573" height="6.28573" fill="#FF0000"/>
<rect x="6.28564" y="99.5715" width="6.28573" height="6.28573" fill="#FF0000"/>
<rect x="6.28564" y="105.857" width="6.28573" height="6.28573" fill="#FF0000"/>
<rect x="6.28564" y="105.857" width="6.28573" height="6.28573" fill="#A50000"/>
<rect x="12.5713" y="105.857" width="6.28573" height="6.28573" fill="#FF0000"/>
<rect x="12.5713" y="112.143" width="6.28573" height="6.28573" fill="#A50000"/>
<rect x="18.8569" y="112.143" width="6.28573" height="6.28573" fill="#FF0000"/>
<rect x="25.1431" y="112.143" width="6.28573" height="6.28573" fill="#FF0000"/>
<rect x="25.1431" y="105.857" width="6.28573" height="6.28573" fill="#FF0000"/>
<rect x="31.4287" y="105.857" width="6.28573" height="6.28573" fill="#FF0000"/>
<rect x="31.4287" y="93.2859" width="6.28573" height="6.28573" fill="#FE9292"/>
<rect x="31.4287" y="99.5715" width="6.28573" height="6.28573" fill="#FF0000"/>
<rect x="25.1431" y="99.5715" width="6.28573" height="6.28573" fill="#FF0000"/>
<rect x="18.8569" y="99.5715" width="6.28573" height="6.28573" fill="#FF0000"/>
<rect x="12.5713" y="99.5715" width="6.28573" height="6.28573" fill="#FF0000"/>
<rect x="12.5713" y="93.2859" width="6.28573" height="6.28573" fill="#FE9292"/>
<rect x="18.8569" y="105.857" width="6.28573" height="6.28573" fill="#FF0000"/>
<rect x="25.1431" y="93.2859" width="6.28573" height="6.28573" fill="#FF0000"/>
<rect x="18.8569" y="118.428" width="6.28573" height="6.28573" fill="#A50000"/>
<rect x="18.8569" y="124.714" width="6.28573" height="6.28573" fill="black"/>
</g>
<g opacity="0.7">
<rect x="334" y="125.428" width="5.71428" height="5.71428" fill="black"/>
<rect x="334" y="131.143" width="5.71428" height="5.71428" fill="black"/>
<rect x="339.714" y="136.857" width="5.71428" height="5.71428" fill="black"/>
<rect x="345.429" y="142.572" width="5.71428" height="5.71428" fill="black"/>
<rect x="356.857" y="142.572" width="5.71428" height="5.71428" fill="black"/>
<rect x="362.571" y="136.857" width="5.71428" height="5.71428" fill="black"/>
<rect x="368.286" y="131.143" width="5.71428" height="5.71428" fill="black"/>
<rect x="368.286" y="125.428" width="5.71428" height="5.71428" fill="black"/>
<rect x="368.286" y="119.714" width="5.71428" height="5.71428" fill="black"/>
<rect x="362.571" y="114" width="5.71428" height="5.71428" fill="black"/>
<rect x="356.857" y="114" width="5.71428" height="5.71428" fill="black"/>
<rect x="351.143" y="119.714" width="5.71428" height="5.71428" fill="black"/>
<rect x="345.429" y="114" width="5.71428" height="5.71428" fill="black"/>
<rect x="339.714" y="114" width="5.71428" height="5.71428" fill="black"/>
<rect x="334" y="119.714" width="5.71428" height="5.71428" fill="black"/>
<rect x="334" y="119.714" width="5.71428" height="5.71428" fill="black"/>
<rect x="339.714" y="119.714" width="5.71428" height="5.71428" fill="#FF0000"/>
<rect x="339.714" y="125.428" width="5.71428" height="5.71428" fill="#FF0000"/>
<rect x="339.714" y="131.143" width="5.71428" height="5.71428" fill="#FF0000"/>
<rect x="339.714" y="131.143" width="5.71428" height="5.71428" fill="#A50000"/>
<rect x="345.429" y="131.143" width="5.71428" height="5.71428" fill="#FF0000"/>
<rect x="345.429" y="136.857" width="5.71428" height="5.71428" fill="#A50000"/>
<rect x="351.143" y="136.857" width="5.71428" height="5.71428" fill="#FF0000"/>
<rect x="356.857" y="136.857" width="5.71428" height="5.71428" fill="#FF0000"/>
<rect x="356.857" y="131.143" width="5.71428" height="5.71428" fill="#FF0000"/>
<rect x="362.571" y="131.143" width="5.71428" height="5.71428" fill="#FF0000"/>
<rect x="362.571" y="119.714" width="5.71428" height="5.71428" fill="#FE9292"/>
<rect x="362.571" y="125.428" width="5.71428" height="5.71428" fill="#FF0000"/>
<rect x="356.857" y="125.428" width="5.71428" height="5.71428" fill="#FF0000"/>
<rect x="351.143" y="125.428" width="5.71428" height="5.71428" fill="#FF0000"/>
<rect x="345.429" y="125.428" width="5.71428" height="5.71428" fill="#FF0000"/>
<rect x="345.429" y="119.714" width="5.71428" height="5.71428" fill="#FE9292"/>
<rect x="351.143" y="131.143" width="5.71428" height="5.71428" fill="#FF0000"/>
<rect x="356.857" y="119.714" width="5.71428" height="5.71428" fill="#FF0000"/>
<rect x="351.143" y="142.572" width="5.71428" height="5.71428" fill="#A50000"/>
<rect x="351.143" y="148.285" width="5.71428" height="5.71428" fill="black"/>
</g>
<g opacity="0.7">
<rect x="418" y="99.4285" width="5.71428" height="5.71428" fill="black"/>
<rect x="418" y="105.143" width="5.71428" height="5.71428" fill="black"/>
<rect x="423.714" y="110.857" width="5.71428" height="5.71428" fill="black"/>
<rect x="429.429" y="116.572" width="5.71428" height="5.71428" fill="black"/>
<rect x="440.857" y="116.572" width="5.71428" height="5.71428" fill="black"/>
<rect x="446.571" y="110.857" width="5.71428" height="5.71428" fill="black"/>
<rect x="452.286" y="105.143" width="5.71428" height="5.71428" fill="black"/>
<rect x="452.286" y="99.4285" width="5.71428" height="5.71428" fill="black"/>
<rect x="452.286" y="93.7144" width="5.71428" height="5.71428" fill="black"/>
<rect x="446.571" y="88" width="5.71428" height="5.71428" fill="black"/>
<rect x="440.857" y="88" width="5.71428" height="5.71428" fill="black"/>
<rect x="435.143" y="93.7144" width="5.71428" height="5.71428" fill="black"/>
<rect x="429.429" y="88" width="5.71428" height="5.71428" fill="black"/>
<rect x="423.714" y="88" width="5.71428" height="5.71428" fill="black"/>
<rect x="418" y="93.7144" width="5.71428" height="5.71428" fill="black"/>
<rect x="418" y="93.7144" width="5.71428" height="5.71428" fill="black"/>
<rect x="423.714" y="93.7144" width="5.71428" height="5.71428" fill="#FF0000"/>
<rect x="423.714" y="99.4285" width="5.71428" height="5.71428" fill="#FF0000"/>
<rect x="423.714" y="105.143" width="5.71428" height="5.71428" fill="#FF0000"/>
<rect x="423.714" y="105.143" width="5.71428" height="5.71428" fill="#A50000"/>
<rect x="429.429" y="105.143" width="5.71428" height="5.71428" fill="#FF0000"/>
<rect x="429.429" y="110.857" width="5.71428" height="5.71428" fill="#A50000"/>
<rect x="435.143" y="110.857" width="5.71428" height="5.71428" fill="#FF0000"/>
<rect x="440.857" y="110.857" width="5.71428" height="5.71428" fill="#FF0000"/>
<rect x="440.857" y="105.143" width="5.71428" height="5.71428" fill="#FF0000"/>
<rect x="446.571" y="105.143" width="5.71428" height="5.71428" fill="#FF0000"/>
<rect x="446.571" y="93.7144" width="5.71428" height="5.71428" fill="#FE9292"/>
<rect x="446.571" y="99.4285" width="5.71428" height="5.71428" fill="#FF0000"/>
<rect x="440.857" y="99.4285" width="5.71428" height="5.71428" fill="#FF0000"/>
<rect x="435.143" y="99.4285" width="5.71428" height="5.71428" fill="#FF0000"/>
<rect x="429.429" y="99.4285" width="5.71428" height="5.71428" fill="#FF0000"/>
<rect x="429.429" y="93.7144" width="5.71428" height="5.71428" fill="#FE9292"/>
<rect x="435.143" y="105.143" width="5.71428" height="5.71428" fill="#FF0000"/>
<rect x="440.857" y="93.7144" width="5.71428" height="5.71428" fill="#FF0000"/>
<rect x="435.143" y="116.572" width="5.71428" height="5.71428" fill="#A50000"/>
<rect x="435.143" y="122.285" width="5.71428" height="5.71428" fill="black"/>
</g>
<g opacity="0.7">
<rect x="367" y="87.4285" width="2.71429" height="2.71429" fill="black"/>
<rect x="367" y="90.1431" width="2.71429" height="2.71429" fill="black"/>
<rect x="369.714" y="92.8569" width="2.71429" height="2.71429" fill="black"/>
<rect x="372.429" y="95.5715" width="2.71429" height="2.71429" fill="black"/>
<rect x="377.857" y="95.5715" width="2.71429" height="2.71429" fill="black"/>
<rect x="380.571" y="92.8569" width="2.71429" height="2.71429" fill="black"/>
<rect x="383.286" y="90.1431" width="2.71429" height="2.71429" fill="black"/>
<rect x="383.286" y="87.4285" width="2.71429" height="2.71429" fill="black"/>
<rect x="383.286" y="84.7144" width="2.71429" height="2.71429" fill="black"/>
<rect x="380.571" y="82" width="2.71429" height="2.71429" fill="black"/>
<rect x="377.857" y="82" width="2.71429" height="2.71429" fill="black"/>
<rect x="375.143" y="84.7144" width="2.71429" height="2.71429" fill="black"/>
<rect x="372.429" y="82" width="2.71429" height="2.71429" fill="black"/>
<rect x="369.714" y="82" width="2.71429" height="2.71429" fill="black"/>
<rect x="367" y="84.7144" width="2.71429" height="2.71429" fill="black"/>
<rect x="367" y="84.7144" width="2.71429" height="2.71429" fill="black"/>
<rect x="369.714" y="84.7144" width="2.71429" height="2.71429" fill="#FF0000"/>
<rect x="369.714" y="87.4285" width="2.71429" height="2.71429" fill="#FF0000"/>
<rect x="369.714" y="90.1431" width="2.71429" height="2.71429" fill="#FF0000"/>
<rect x="369.714" y="90.1431" width="2.71429" height="2.71429" fill="#A50000"/>
<rect x="372.429" y="90.1431" width="2.71429" height="2.71429" fill="#FF0000"/>
<rect x="372.429" y="92.8569" width="2.71429" height="2.71429" fill="#A50000"/>
<rect x="375.143" y="92.8569" width="2.71429" height="2.71429" fill="#FF0000"/>
<rect x="377.857" y="92.8569" width="2.71429" height="2.71429" fill="#FF0000"/>
<rect x="377.857" y="90.1431" width="2.71429" height="2.71429" fill="#FF0000"/>
<rect x="380.571" y="90.1431" width="2.71429" height="2.71429" fill="#FF0000"/>
<rect x="380.571" y="84.7144" width="2.71429" height="2.71429" fill="#FE9292"/>
<rect x="380.571" y="87.4285" width="2.71429" height="2.71429" fill="#FF0000"/>
<rect x="377.857" y="87.4285" width="2.71429" height="2.71429" fill="#FF0000"/>
<rect x="375.143" y="87.4285" width="2.71429" height="2.71429" fill="#FF0000"/>
<rect x="372.429" y="87.4285" width="2.71429" height="2.71429" fill="#FF0000"/>
<rect x="372.429" y="84.7144" width="2.71429" height="2.71429" fill="#FE9292"/>
<rect x="375.143" y="90.1431" width="2.71429" height="2.71429" fill="#FF0000"/>
<rect x="377.857" y="84.7144" width="2.71429" height="2.71429" fill="#FF0000"/>
<rect x="375.143" y="95.5715" width="2.71429" height="2.71429" fill="#A50000"/>
<rect x="375.143" y="98.2856" width="2.71429" height="2.71429" fill="black"/>
</g>
<g opacity="0.7">
<rect x="103" y="105.428" width="2.71429" height="2.71429" fill="black"/>
<rect x="103" y="108.143" width="2.71429" height="2.71429" fill="black"/>
<rect x="105.714" y="110.857" width="2.71429" height="2.71429" fill="black"/>
<rect x="108.429" y="113.572" width="2.71429" height="2.71429" fill="black"/>
<rect x="113.857" y="113.572" width="2.71429" height="2.71429" fill="black"/>
<rect x="116.571" y="110.857" width="2.71429" height="2.71429" fill="black"/>
<rect x="119.286" y="108.143" width="2.71429" height="2.71429" fill="black"/>
<rect x="119.286" y="105.428" width="2.71429" height="2.71429" fill="black"/>
<rect x="119.286" y="102.714" width="2.71429" height="2.71429" fill="black"/>
<rect x="116.571" y="100" width="2.71429" height="2.71429" fill="black"/>
<rect x="113.857" y="100" width="2.71429" height="2.71429" fill="black"/>
<rect x="111.143" y="102.714" width="2.71429" height="2.71429" fill="black"/>
<rect x="108.429" y="100" width="2.71429" height="2.71429" fill="black"/>
<rect x="105.714" y="100" width="2.71429" height="2.71429" fill="black"/>
<rect x="103" y="102.714" width="2.71429" height="2.71429" fill="black"/>
<rect x="103" y="102.714" width="2.71429" height="2.71429" fill="black"/>
<rect x="105.714" y="102.714" width="2.71429" height="2.71429" fill="#FF0000"/>
<rect x="105.714" y="105.428" width="2.71429" height="2.71429" fill="#FF0000"/>
<rect x="105.714" y="108.143" width="2.71429" height="2.71429" fill="#FF0000"/>
<rect x="105.714" y="108.143" width="2.71429" height="2.71429" fill="#A50000"/>
<rect x="108.429" y="108.143" width="2.71429" height="2.71429" fill="#FF0000"/>
<rect x="108.429" y="110.857" width="2.71429" height="2.71429" fill="#A50000"/>
<rect x="111.143" y="110.857" width="2.71429" height="2.71429" fill="#FF0000"/>
<rect x="113.857" y="110.857" width="2.71429" height="2.71429" fill="#FF0000"/>
<rect x="113.857" y="108.143" width="2.71429" height="2.71429" fill="#FF0000"/>
<rect x="116.571" y="108.143" width="2.71429" height="2.71429" fill="#FF0000"/>
<rect x="116.571" y="102.714" width="2.71429" height="2.71429" fill="#FE9292"/>
<rect x="116.571" y="105.428" width="2.71429" height="2.71429" fill="#FF0000"/>
<rect x="113.857" y="105.428" width="2.71429" height="2.71429" fill="#FF0000"/>
<rect x="111.143" y="105.428" width="2.71429" height="2.71429" fill="#FF0000"/>
<rect x="108.429" y="105.428" width="2.71429" height="2.71429" fill="#FF0000"/>
<rect x="108.429" y="102.714" width="2.71429" height="2.71429" fill="#FE9292"/>
<rect x="111.143" y="108.143" width="2.71429" height="2.71429" fill="#FF0000"/>
<rect x="113.857" y="102.714" width="2.71429" height="2.71429" fill="#FF0000"/>
<rect x="111.143" y="113.572" width="2.71429" height="2.71429" fill="#A50000"/>
<rect x="111.143" y="116.286" width="2.71429" height="2.71429" fill="black"/>
</g>
<g opacity="0.7">
<rect x="391" y="118.428" width="2.71429" height="2.71429" fill="black"/>
<rect x="391" y="121.143" width="2.71429" height="2.71429" fill="black"/>
<rect x="393.714" y="123.857" width="2.71429" height="2.71429" fill="black"/>
<rect x="396.429" y="126.572" width="2.71429" height="2.71429" fill="black"/>
<rect x="401.857" y="126.572" width="2.71429" height="2.71429" fill="black"/>
<rect x="404.571" y="123.857" width="2.71429" height="2.71429" fill="black"/>
<rect x="407.286" y="121.143" width="2.71429" height="2.71429" fill="black"/>
<rect x="407.286" y="118.428" width="2.71429" height="2.71429" fill="black"/>
<rect x="407.286" y="115.714" width="2.71429" height="2.71429" fill="black"/>
<rect x="404.571" y="113" width="2.71429" height="2.71429" fill="black"/>
<rect x="401.857" y="113" width="2.71429" height="2.71429" fill="black"/>
<rect x="399.143" y="115.714" width="2.71429" height="2.71429" fill="black"/>
<rect x="396.429" y="113" width="2.71429" height="2.71429" fill="black"/>
<rect x="393.714" y="113" width="2.71429" height="2.71429" fill="black"/>
<rect x="391" y="115.714" width="2.71429" height="2.71429" fill="black"/>
<rect x="391" y="115.714" width="2.71429" height="2.71429" fill="black"/>
<rect x="393.714" y="115.714" width="2.71429" height="2.71429" fill="#FF0000"/>
<rect x="393.714" y="118.428" width="2.71429" height="2.71429" fill="#FF0000"/>
<rect x="393.714" y="121.143" width="2.71429" height="2.71429" fill="#FF0000"/>
<rect x="393.714" y="121.143" width="2.71429" height="2.71429" fill="#A50000"/>
<rect x="396.429" y="121.143" width="2.71429" height="2.71429" fill="#FF0000"/>
<rect x="396.429" y="123.857" width="2.71429" height="2.71429" fill="#A50000"/>
<rect x="399.143" y="123.857" width="2.71429" height="2.71429" fill="#FF0000"/>
<rect x="401.857" y="123.857" width="2.71429" height="2.71429" fill="#FF0000"/>
<rect x="401.857" y="121.143" width="2.71429" height="2.71429" fill="#FF0000"/>
<rect x="404.571" y="121.143" width="2.71429" height="2.71429" fill="#FF0000"/>
<rect x="404.571" y="115.714" width="2.71429" height="2.71429" fill="#FE9292"/>
<rect x="404.571" y="118.428" width="2.71429" height="2.71429" fill="#FF0000"/>
<rect x="401.857" y="118.428" width="2.71429" height="2.71429" fill="#FF0000"/>
<rect x="399.143" y="118.428" width="2.71429" height="2.71429" fill="#FF0000"/>
<rect x="396.429" y="118.428" width="2.71429" height="2.71429" fill="#FF0000"/>
<rect x="396.429" y="115.714" width="2.71429" height="2.71429" fill="#FE9292"/>
<rect x="399.143" y="121.143" width="2.71429" height="2.71429" fill="#FF0000"/>
<rect x="401.857" y="115.714" width="2.71429" height="2.71429" fill="#FF0000"/>
<rect x="399.143" y="126.572" width="2.71429" height="2.71429" fill="#A50000"/>
<rect x="399.143" y="129.286" width="2.71429" height="2.71429" fill="black"/>
</g>
<g opacity="0.7">
<rect x="384" y="50" width="4.00003" height="4.00003" fill="black"/>
<rect x="384" y="54.0005" width="4.00003" height="4.00003" fill="black"/>
<rect x="388" y="57.9998" width="4.00003" height="4.00003" fill="black"/>
<rect x="392" y="62.0002" width="4.00003" height="4.00003" fill="black"/>
<rect x="400" y="62.0002" width="4.00003" height="4.00003" fill="black"/>
<rect x="404" y="57.9998" width="4.00003" height="4.00003" fill="black"/>
<rect x="408" y="54.0005" width="4.00003" height="4.00003" fill="black"/>
<rect x="408" y="50" width="4.00003" height="4.00003" fill="black"/>
<rect x="408" y="46" width="4.00003" height="4.00003" fill="black"/>
<rect x="404" y="42" width="4.00003" height="4.00003" fill="black"/>
<rect x="400" y="42" width="4.00003" height="4.00003" fill="black"/>
<rect x="396" y="46" width="4.00003" height="4.00003" fill="black"/>
<rect x="392" y="42" width="4.00003" height="4.00003" fill="black"/>
<rect x="388" y="42" width="4.00003" height="4.00003" fill="black"/>
<rect x="384" y="46" width="4.00003" height="4.00003" fill="black"/>
<rect x="384" y="46" width="4.00003" height="4.00003" fill="black"/>
<rect x="388" y="46" width="4.00003" height="4.00003" fill="#FF0000"/>
<rect x="388" y="50" width="4.00003" height="4.00003" fill="#FF0000"/>
<rect x="388" y="54.0005" width="4.00003" height="4.00003" fill="#FF0000"/>
<rect x="388" y="54.0005" width="4.00003" height="4.00003" fill="#A50000"/>
<rect x="392" y="54.0005" width="4.00003" height="4.00003" fill="#FF0000"/>
<rect x="392" y="57.9998" width="4.00003" height="4.00003" fill="#A50000"/>
<rect x="396" y="57.9998" width="4.00003" height="4.00003" fill="#FF0000"/>
<rect x="400" y="57.9998" width="4.00003" height="4.00003" fill="#FF0000"/>
<rect x="400" y="54.0005" width="4.00003" height="4.00003" fill="#FF0000"/>
<rect x="404" y="54.0005" width="4.00003" height="4.00003" fill="#FF0000"/>
<rect x="404" y="46" width="4.00003" height="4.00003" fill="#FE9292"/>
<rect x="404" y="50" width="4.00003" height="4.00003" fill="#FF0000"/>
<rect x="400" y="50" width="4.00003" height="4.00003" fill="#FF0000"/>
<rect x="396" y="50" width="4.00003" height="4.00003" fill="#FF0000"/>
<rect x="392" y="50" width="4.00003" height="4.00003" fill="#FF0000"/>
<rect x="392" y="46" width="4.00003" height="4.00003" fill="#FE9292"/>
<rect x="396" y="54.0005" width="4.00003" height="4.00003" fill="#FF0000"/>
<rect x="400" y="46" width="4.00003" height="4.00003" fill="#FF0000"/>
<rect x="396" y="62.0002" width="4.00003" height="4.00003" fill="#A50000"/>
<rect x="396" y="66.0002" width="4.00003" height="4.00003" fill="black"/>
</g>
<g opacity="0.7">
<rect x="416" y="12.8572" width="6.42857" height="6.42857" fill="black"/>
<rect x="416" y="19.2861" width="6.42857" height="6.42857" fill="black"/>
<rect x="422.429" y="25.7139" width="6.42857" height="6.42857" fill="black"/>
<rect x="428.857" y="32.1428" width="6.42857" height="6.42857" fill="black"/>
<rect x="441.714" y="32.1428" width="6.42857" height="6.42857" fill="black"/>
<rect x="448.143" y="25.7139" width="6.42857" height="6.42857" fill="black"/>
<rect x="454.571" y="19.2861" width="6.42857" height="6.42857" fill="black"/>
<rect x="454.571" y="12.8572" width="6.42857" height="6.42857" fill="black"/>
<rect x="454.571" y="6.42847" width="6.42857" height="6.42857" fill="black"/>
<rect x="448.143" width="6.42857" height="6.42857" fill="black"/>
<rect x="441.714" width="6.42857" height="6.42857" fill="black"/>
<rect x="435.286" y="6.42847" width="6.42857" height="6.42857" fill="black"/>
<rect x="428.857" width="6.42857" height="6.42857" fill="black"/>
<rect x="422.429" width="6.42857" height="6.42857" fill="black"/>
<rect x="416" y="6.42847" width="6.42857" height="6.42857" fill="black"/>
<rect x="416" y="6.42847" width="6.42857" height="6.42857" fill="black"/>
<rect x="422.429" y="6.42847" width="6.42857" height="6.42857" fill="#FF0000"/>
<rect x="422.429" y="12.8572" width="6.42857" height="6.42857" fill="#FF0000"/>
<rect x="422.429" y="19.2861" width="6.42857" height="6.42857" fill="#FF0000"/>
<rect x="422.429" y="19.2861" width="6.42857" height="6.42857" fill="#A50000"/>
<rect x="428.857" y="19.2861" width="6.42857" height="6.42857" fill="#FF0000"/>
<rect x="428.857" y="25.7139" width="6.42857" height="6.42857" fill="#A50000"/>
<rect x="435.286" y="25.7139" width="6.42857" height="6.42857" fill="#FF0000"/>
<rect x="441.714" y="25.7139" width="6.42857" height="6.42857" fill="#FF0000"/>
<rect x="441.714" y="19.2861" width="6.42857" height="6.42857" fill="#FF0000"/>
<rect x="448.143" y="19.2861" width="6.42857" height="6.42857" fill="#FF0000"/>
<rect x="448.143" y="6.42847" width="6.42857" height="6.42857" fill="#FE9292"/>
<rect x="448.143" y="12.8572" width="6.42857" height="6.42857" fill="#FF0000"/>
<rect x="441.714" y="12.8572" width="6.42857" height="6.42857" fill="#FF0000"/>
<rect x="435.286" y="12.8572" width="6.42857" height="6.42857" fill="#FF0000"/>
<rect x="428.857" y="12.8572" width="6.42857" height="6.42857" fill="#FF0000"/>
<rect x="428.857" y="6.42847" width="6.42857" height="6.42857" fill="#FE9292"/>
<rect x="435.286" y="19.2861" width="6.42857" height="6.42857" fill="#FF0000"/>
<rect x="441.714" y="6.42847" width="6.42857" height="6.42857" fill="#FF0000"/>
<rect x="435.286" y="32.1428" width="6.42857" height="6.42857" fill="#A50000"/>
<rect x="435.286" y="38.571" width="6.42857" height="6.42857" fill="black"/>
</g>
<g opacity="0.7">
<rect y="26.7144" width="7.85716" height="7.85716" fill="black"/>
<rect y="34.5718" width="7.85716" height="7.85716" fill="black"/>
<rect x="7.85693" y="42.4282" width="7.85716" height="7.85716" fill="black"/>
<rect x="15.7144" y="50.2856" width="7.85716" height="7.85716" fill="black"/>
<rect x="31.4287" y="50.2856" width="7.85716" height="7.85716" fill="black"/>
<rect x="39.2856" y="42.4282" width="7.85716" height="7.85716" fill="black"/>
<rect x="47.1431" y="34.5718" width="7.85716" height="7.85716" fill="black"/>
<rect x="47.1431" y="26.7144" width="7.85716" height="7.85716" fill="black"/>
<rect x="47.1431" y="18.8574" width="7.85716" height="7.85716" fill="black"/>
<rect x="39.2856" y="11" width="7.85716" height="7.85716" fill="black"/>
<rect x="31.4287" y="11" width="7.85716" height="7.85716" fill="black"/>
<rect x="23.5713" y="18.8574" width="7.85716" height="7.85716" fill="black"/>
<rect x="15.7144" y="11" width="7.85716" height="7.85716" fill="black"/>
<rect x="7.85693" y="11" width="7.85716" height="7.85716" fill="black"/>
<rect y="18.8574" width="7.85716" height="7.85716" fill="black"/>
<rect y="18.8574" width="7.85716" height="7.85716" fill="black"/>
<rect x="7.85693" y="18.8574" width="7.85716" height="7.85716" fill="#FF0000"/>
<rect x="7.85693" y="26.7144" width="7.85716" height="7.85716" fill="#FF0000"/>
<rect x="7.85693" y="34.5718" width="7.85716" height="7.85716" fill="#FF0000"/>
<rect x="7.85693" y="34.5718" width="7.85716" height="7.85716" fill="#A50000"/>
<rect x="15.7144" y="34.5718" width="7.85716" height="7.85716" fill="#FF0000"/>
<rect x="15.7144" y="42.4282" width="7.85716" height="7.85716" fill="#A50000"/>
<rect x="23.5713" y="42.4282" width="7.85716" height="7.85716" fill="#FF0000"/>
<rect x="31.4287" y="42.4282" width="7.85716" height="7.85716" fill="#FF0000"/>
<rect x="31.4287" y="34.5718" width="7.85716" height="7.85716" fill="#FF0000"/>
<rect x="39.2856" y="34.5718" width="7.85716" height="7.85716" fill="#FF0000"/>
<rect x="39.2856" y="18.8574" width="7.85716" height="7.85716" fill="#FE9292"/>
<rect x="39.2856" y="26.7144" width="7.85716" height="7.85716" fill="#FF0000"/>
<rect x="31.4287" y="26.7144" width="7.85716" height="7.85716" fill="#FF0000"/>
<rect x="23.5713" y="26.7144" width="7.85716" height="7.85716" fill="#FF0000"/>
<rect x="15.7144" y="26.7144" width="7.85716" height="7.85716" fill="#FF0000"/>
<rect x="15.7144" y="18.8574" width="7.85716" height="7.85716" fill="#FE9292"/>
<rect x="23.5713" y="34.5718" width="7.85716" height="7.85716" fill="#FF0000"/>
<rect x="31.4287" y="18.8574" width="7.85716" height="7.85716" fill="#FF0000"/>
<rect x="23.5713" y="50.2856" width="7.85716" height="7.85716" fill="#A50000"/>
<rect x="23.5713" y="58.1428" width="7.85716" height="7.85716" fill="black"/>
</g>
</svg>
