<svg width="58" height="64" viewBox="0 0 58 64" fill="none" xmlns="http://www.w3.org/2000/svg">
<g opacity="0.7">
<rect y="36.265" width="5.52381" height="5.52381" fill="black"/>
<rect y="41.7888" width="5.52381" height="5.52381" fill="black"/>
<rect x="5.52393" y="47.3126" width="5.52381" height="5.52381" fill="black"/>
<rect x="11.0474" y="52.8364" width="5.52381" height="5.52381" fill="black"/>
<rect x="22.0957" y="52.8364" width="5.52381" height="5.52381" fill="black"/>
<rect x="27.6191" y="47.3126" width="5.52381" height="5.52381" fill="black"/>
<rect x="33.1431" y="41.7888" width="5.52381" height="5.52381" fill="black"/>
<rect x="33.1431" y="36.265" width="5.52381" height="5.52381" fill="black"/>
<rect x="33.1431" y="30.7413" width="5.52381" height="5.52381" fill="black"/>
<rect x="27.6191" y="25.2174" width="5.52381" height="5.52381" fill="black"/>
<rect x="22.0957" y="25.2174" width="5.52381" height="5.52381" fill="black"/>
<rect x="16.5713" y="30.7413" width="5.52381" height="5.52381" fill="black"/>
<rect x="11.0474" y="25.2174" width="5.52381" height="5.52381" fill="black"/>
<rect x="5.52393" y="25.2174" width="5.52381" height="5.52381" fill="black"/>
<rect y="30.7413" width="5.52381" height="5.52381" fill="black"/>
<rect y="30.7413" width="5.52381" height="5.52381" fill="black"/>
<rect x="5.52393" y="30.7413" width="5.52381" height="5.52381" fill="#FF0000"/>
<rect x="5.52393" y="36.265" width="5.52381" height="5.52381" fill="#FF0000"/>
<rect x="5.52393" y="41.7888" width="5.52381" height="5.52381" fill="#FF0000"/>
<rect x="5.52393" y="41.7888" width="5.52381" height="5.52381" fill="#A50000"/>
<rect x="11.0474" y="41.7888" width="5.52381" height="5.52381" fill="#FF0000"/>
<rect x="11.0474" y="47.3126" width="5.52381" height="5.52381" fill="#A50000"/>
<rect x="16.5713" y="47.3126" width="5.52381" height="5.52381" fill="#FF0000"/>
<rect x="22.0957" y="47.3126" width="5.52381" height="5.52381" fill="#FF0000"/>
<rect x="22.0957" y="41.7888" width="5.52381" height="5.52381" fill="#FF0000"/>
<rect x="27.6191" y="41.7888" width="5.52381" height="5.52381" fill="#FF0000"/>
<rect x="27.6191" y="30.7413" width="5.52381" height="5.52381" fill="#FF9090"/>
<rect x="27.6191" y="36.265" width="5.52381" height="5.52381" fill="#FF0000"/>
<rect x="22.0957" y="36.265" width="5.52381" height="5.52381" fill="#FF0000"/>
<rect x="16.5713" y="36.265" width="5.52381" height="5.52381" fill="#FF0000"/>
<rect x="11.0474" y="36.265" width="5.52381" height="5.52381" fill="#FF0000"/>
<rect x="11.0474" y="30.7413" width="5.52381" height="5.52381" fill="#FE9292"/>
<rect x="16.5713" y="41.7888" width="5.52381" height="5.52381" fill="#FF0000"/>
<rect x="22.0957" y="30.7413" width="5.52381" height="5.52381" fill="#FF0000"/>
<rect x="16.5713" y="52.8364" width="5.52381" height="5.52381" fill="#A50000"/>
<rect x="16.5713" y="58.3601" width="5.52381" height="5.52381" fill="black"/>
</g>
<g opacity="0.7">
<rect x="32.7827" y="7.20496" width="3.60248" height="3.60248" fill="black"/>
<rect x="32.7827" y="10.8075" width="3.60248" height="3.60248" fill="black"/>
<rect x="36.3853" y="14.4099" width="3.60248" height="3.60248" fill="black"/>
<rect x="39.9873" y="18.0125" width="3.60248" height="3.60248" fill="black"/>
<rect x="47.1929" y="18.0125" width="3.60248" height="3.60248" fill="black"/>
<rect x="50.7949" y="14.4099" width="3.60248" height="3.60248" fill="black"/>
<rect x="54.3975" y="10.8075" width="3.60248" height="3.60248" fill="black"/>
<rect x="54.3975" y="7.20496" width="3.60248" height="3.60248" fill="black"/>
<rect x="54.3975" y="3.60254" width="3.60248" height="3.60248" fill="black"/>
<rect x="50.7949" width="3.60248" height="3.60248" fill="black"/>
<rect x="47.1929" width="3.60248" height="3.60248" fill="black"/>
<rect x="43.5898" y="3.60254" width="3.60248" height="3.60248" fill="black"/>
<rect x="39.9873" width="3.60248" height="3.60248" fill="black"/>
<rect x="36.3853" width="3.60248" height="3.60248" fill="black"/>
<rect x="32.7827" y="3.60254" width="3.60248" height="3.60248" fill="black"/>
<rect x="32.7827" y="3.60254" width="3.60248" height="3.60248" fill="black"/>
<rect x="36.3853" y="3.60254" width="3.60248" height="3.60248" fill="#FF0000"/>
<rect x="36.3853" y="7.20496" width="3.60248" height="3.60248" fill="#FF0000"/>
<rect x="36.3853" y="10.8075" width="3.60248" height="3.60248" fill="#FF0000"/>
<rect x="36.3853" y="10.8075" width="3.60248" height="3.60248" fill="#A50000"/>
<rect x="39.9873" y="10.8075" width="3.60248" height="3.60248" fill="#FF0000"/>
<rect x="39.9873" y="14.4099" width="3.60248" height="3.60248" fill="#A50000"/>
<rect x="43.5898" y="14.4099" width="3.60248" height="3.60248" fill="#FF0000"/>
<rect x="47.1929" y="14.4099" width="3.60248" height="3.60248" fill="#FF0000"/>
<rect x="47.1929" y="10.8075" width="3.60248" height="3.60248" fill="#FF0000"/>
<rect x="50.7949" y="10.8075" width="3.60248" height="3.60248" fill="#FF0000"/>
<rect x="50.7949" y="3.60254" width="3.60248" height="3.60248" fill="#FF9090"/>
<rect x="50.7949" y="7.20496" width="3.60248" height="3.60248" fill="#FF0000"/>
<rect x="47.1929" y="7.20496" width="3.60248" height="3.60248" fill="#FF0000"/>
<rect x="43.5898" y="7.20496" width="3.60248" height="3.60248" fill="#FF0000"/>
<rect x="39.9873" y="7.20496" width="3.60248" height="3.60248" fill="#FF0000"/>
<rect x="39.9873" y="3.60254" width="3.60248" height="3.60248" fill="#FE9292"/>
<rect x="43.5898" y="10.8075" width="3.60248" height="3.60248" fill="#FF0000"/>
<rect x="47.1929" y="3.60254" width="3.60248" height="3.60248" fill="#FF0000"/>
<rect x="43.5898" y="18.0125" width="3.60248" height="3.60248" fill="#A50000"/>
<rect x="43.5898" y="21.6149" width="3.60248" height="3.60248" fill="black"/>
</g>
</svg>
