<svg width="430" height="932" viewBox="0 0 430 932" fill="none" xmlns="http://www.w3.org/2000/svg">
<g clip-path="url(#clip0_144_161)">
<rect width="430" height="932" fill="white"/>
<g filter="url(#filter0_f_144_161)">
<ellipse cx="218" cy="376" rx="279" ry="90" fill="url(#paint0_radial_144_161)"/>
</g>
<rect x="-32" y="427" width="474" height="505" rx="6.21523" fill="#E5E3E3"/>
<circle cx="60" cy="338" r="3" fill="white" fill-opacity="0.6"/>
<circle cx="106" cy="373" r="3" fill="white" fill-opacity="0.6"/>
<circle cx="289" cy="377" r="3" fill="white" fill-opacity="0.6"/>
<circle cx="374" cy="332" r="3" fill="white" fill-opacity="0.6"/>
<circle cx="395" cy="377" r="3" fill="white" fill-opacity="0.6"/>
<circle cx="395" cy="377" r="3" fill="white" fill-opacity="0.6"/>
<circle cx="401" cy="405" r="3" fill="white" fill-opacity="0.6"/>
<circle cx="80" cy="319" r="3" fill="white" fill-opacity="0.6"/>
<circle cx="33" cy="392" r="3" fill="white" fill-opacity="0.6"/>
<circle cx="170" cy="371" r="3" fill="white" fill-opacity="0.6"/>
<circle cx="226" cy="379" r="3" fill="white" fill-opacity="0.4"/>
<circle cx="343" cy="299" r="3" fill="white" fill-opacity="0.4"/>
<circle cx="332" cy="319" r="3" fill="white" fill-opacity="0.4"/>
<circle cx="349" cy="385" r="3" fill="white" fill-opacity="0.4"/>
<circle cx="27" cy="329" r="3" fill="white" fill-opacity="0.4"/>
<circle cx="18" cy="405" r="3" fill="white" fill-opacity="0.4"/>
<circle cx="412" cy="340" r="3" fill="white" fill-opacity="0.4"/>
<line x1="315.649" y1="385" x2="315.649" y2="399.358" stroke="white" stroke-opacity="0.5" stroke-width="0.939797"/>
<line x1="322.358" y1="392.649" x2="308" y2="392.649" stroke="white" stroke-opacity="0.5" stroke-width="0.939797"/>
<line x1="43.6491" y1="360" x2="43.6491" y2="374.358" stroke="white" stroke-opacity="0.5" stroke-width="0.939797"/>
<line x1="50.3579" y1="367.649" x2="35.9999" y2="367.649" stroke="white" stroke-opacity="0.5" stroke-width="0.939797"/>
<line x1="134.649" y1="356" x2="134.649" y2="370.358" stroke="white" stroke-opacity="0.5" stroke-width="0.939797"/>
<line x1="141.358" y1="363.649" x2="127" y2="363.649" stroke="white" stroke-opacity="0.5" stroke-width="0.939797"/>
<line x1="33.6491" y1="408" x2="33.6491" y2="422.358" stroke="white" stroke-opacity="0.5" stroke-width="0.939797"/>
<line x1="40.3579" y1="415.649" x2="25.9999" y2="415.649" stroke="white" stroke-opacity="0.5" stroke-width="0.939797"/>
<line x1="364.649" y1="348" x2="364.649" y2="362.358" stroke="white" stroke-opacity="0.5" stroke-width="0.939797"/>
<line x1="371.358" y1="355.649" x2="357" y2="355.649" stroke="white" stroke-opacity="0.5" stroke-width="0.939797"/>
<line x1="18.6491" y1="341" x2="18.6491" y2="355.358" stroke="white" stroke-opacity="0.5" stroke-width="0.939797"/>
<line x1="25.3579" y1="348.649" x2="10.9999" y2="348.649" stroke="white" stroke-opacity="0.5" stroke-width="0.939797"/>
</g>
<defs>
<filter id="filter0_f_144_161" x="-121" y="226" width="678" height="300" filterUnits="userSpaceOnUse" color-interpolation-filters="sRGB">
<feFlood flood-opacity="0" result="BackgroundImageFix"/>
<feBlend mode="normal" in="SourceGraphic" in2="BackgroundImageFix" result="shape"/>
<feGaussianBlur stdDeviation="30" result="effect1_foregroundBlur_144_161"/>
</filter>
<radialGradient id="paint0_radial_144_161" cx="0" cy="0" r="1" gradientUnits="userSpaceOnUse" gradientTransform="translate(218 376) scale(279 90)">
<stop offset="0.111111" stop-color="#BBE7FF"/>
<stop offset="0.222222" stop-color="#B1E4FE"/>
<stop offset="0.333333" stop-color="#A5DFFE"/>
<stop offset="0.444444" stop-color="#9EDDFD"/>
<stop offset="0.555556" stop-color="#8FD7FC"/>
<stop offset="0.666667" stop-color="#83D3FC"/>
<stop offset="0.777778" stop-color="#74CDFB"/>
<stop offset="0.888889" stop-color="#69C9FB"/>
<stop offset="1" stop-color="#5CC4FA"/>
</radialGradient>
<clipPath id="clip0_144_161">
<rect width="430" height="932" fill="white"/>
</clipPath>
</defs>
</svg>
