<svg width="430" height="154" viewBox="0 0 430 154" fill="none" xmlns="http://www.w3.org/2000/svg">
<g opacity="0.7">
<rect x="299" y="39.2856" width="7.14286" height="7.14286" fill="black"/>
<rect x="299" y="46.4287" width="7.14286" height="7.14286" fill="black"/>
<rect x="306.143" y="53.5713" width="7.14286" height="7.14286" fill="black"/>
<rect x="313.286" y="60.7142" width="7.14286" height="7.14286" fill="black"/>
<rect x="327.571" y="60.7142" width="7.14286" height="7.14286" fill="black"/>
<rect x="334.714" y="53.5713" width="7.14286" height="7.14286" fill="black"/>
<rect x="341.857" y="46.4287" width="7.14286" height="7.14286" fill="black"/>
<rect x="341.857" y="39.2856" width="7.14286" height="7.14286" fill="black"/>
<rect x="341.857" y="32.1429" width="7.14286" height="7.14286" fill="black"/>
<rect x="334.714" y="25" width="7.14286" height="7.14286" fill="black"/>
<rect x="327.571" y="25" width="7.14286" height="7.14286" fill="black"/>
<rect x="320.429" y="32.1429" width="7.14286" height="7.14286" fill="black"/>
<rect x="313.286" y="25" width="7.14286" height="7.14286" fill="black"/>
<rect x="306.143" y="25" width="7.14286" height="7.14286" fill="black"/>
<rect x="299" y="32.1429" width="7.14286" height="7.14286" fill="black"/>
<rect x="299" y="32.1429" width="7.14286" height="7.14286" fill="black"/>
<rect x="306.143" y="32.1429" width="7.14286" height="7.14286" fill="#3E62E1"/>
<rect x="306.143" y="39.2856" width="7.14286" height="7.14286" fill="#3E62E1"/>
<rect x="306.143" y="46.4287" width="7.14286" height="7.14286" fill="#FF0000"/>
<rect x="306.143" y="46.4287" width="7.14286" height="7.14286" fill="#0300A5"/>
<rect x="313.286" y="46.4287" width="7.14286" height="7.14286" fill="#3E62E1"/>
<rect x="313.286" y="53.5713" width="7.14286" height="7.14286" fill="#0300A5"/>
<rect x="320.429" y="53.5713" width="7.14286" height="7.14286" fill="#3E62E1"/>
<rect x="327.571" y="53.5713" width="7.14286" height="7.14286" fill="#3E62E1"/>
<rect x="327.571" y="46.4287" width="7.14286" height="7.14286" fill="#3E62E1"/>
<rect x="334.714" y="46.4287" width="7.14286" height="7.14286" fill="#3E62E1"/>
<rect x="334.714" y="32.1429" width="7.14286" height="7.14286" fill="#929DFE"/>
<rect x="334.714" y="39.2856" width="7.14286" height="7.14286" fill="#3E62E1"/>
<rect x="327.571" y="39.2856" width="7.14286" height="7.14286" fill="#3E62E1"/>
<rect x="320.429" y="39.2856" width="7.14286" height="7.14286" fill="#3E62E1"/>
<rect x="313.286" y="39.2856" width="7.14286" height="7.14286" fill="#3E62E1"/>
<rect x="313.286" y="32.1429" width="7.14286" height="7.14286" fill="#929DFE"/>
<rect x="320.429" y="46.4287" width="7.14286" height="7.14286" fill="#3E62E1"/>
<rect x="327.571" y="32.1429" width="7.14286" height="7.14286" fill="#3E62E1"/>
<rect x="320.429" y="60.7142" width="7.14286" height="7.14286" fill="#0300A5"/>
<rect x="320.429" y="67.8571" width="7.14286" height="7.14286" fill="black"/>
</g>
<g opacity="0.7">
<rect x="54" y="54.2856" width="2.14286" height="2.14286" fill="black"/>
<rect x="54" y="56.4285" width="2.14286" height="2.14286" fill="black"/>
<rect x="56.1431" y="58.5715" width="2.14286" height="2.14286" fill="black"/>
<rect x="58.2856" y="60.7144" width="2.14286" height="2.14286" fill="black"/>
<rect x="62.5713" y="60.7144" width="2.14286" height="2.14286" fill="black"/>
<rect x="64.7144" y="58.5715" width="2.14286" height="2.14286" fill="black"/>
<rect x="66.8574" y="56.4285" width="2.14286" height="2.14286" fill="black"/>
<rect x="66.8574" y="54.2856" width="2.14286" height="2.14286" fill="black"/>
<rect x="66.8574" y="52.1429" width="2.14286" height="2.14286" fill="black"/>
<rect x="64.7144" y="50" width="2.14286" height="2.14286" fill="black"/>
<rect x="62.5713" y="50" width="2.14286" height="2.14286" fill="black"/>
<rect x="60.4287" y="52.1429" width="2.14286" height="2.14286" fill="black"/>
<rect x="58.2856" y="50" width="2.14286" height="2.14286" fill="black"/>
<rect x="56.1431" y="50" width="2.14286" height="2.14286" fill="black"/>
<rect x="54" y="52.1429" width="2.14286" height="2.14286" fill="black"/>
<rect x="54" y="52.1429" width="2.14286" height="2.14286" fill="black"/>
<rect x="56.1431" y="52.1429" width="2.14286" height="2.14286" fill="#3E62E1"/>
<rect x="56.1431" y="54.2856" width="2.14286" height="2.14286" fill="#3E62E1"/>
<rect x="56.1431" y="56.4285" width="2.14286" height="2.14286" fill="#FF0000"/>
<rect x="56.1431" y="56.4285" width="2.14286" height="2.14286" fill="#0300A5"/>
<rect x="58.2856" y="56.4285" width="2.14286" height="2.14286" fill="#3E62E1"/>
<rect x="58.2856" y="58.5715" width="2.14286" height="2.14286" fill="#0300A5"/>
<rect x="60.4287" y="58.5715" width="2.14286" height="2.14286" fill="#3E62E1"/>
<rect x="62.5713" y="58.5715" width="2.14286" height="2.14286" fill="#3E62E1"/>
<rect x="62.5713" y="56.4285" width="2.14286" height="2.14286" fill="#3E62E1"/>
<rect x="64.7144" y="56.4285" width="2.14286" height="2.14286" fill="#3E62E1"/>
<rect x="64.7144" y="52.1429" width="2.14286" height="2.14286" fill="#929DFE"/>
<rect x="64.7144" y="54.2856" width="2.14286" height="2.14286" fill="#3E62E1"/>
<rect x="62.5713" y="54.2856" width="2.14286" height="2.14286" fill="#3E62E1"/>
<rect x="60.4287" y="54.2856" width="2.14286" height="2.14286" fill="#3E62E1"/>
<rect x="58.2856" y="54.2856" width="2.14286" height="2.14286" fill="#3E62E1"/>
<rect x="58.2856" y="52.1429" width="2.14286" height="2.14286" fill="#929DFE"/>
<rect x="60.4287" y="56.4285" width="2.14286" height="2.14286" fill="#3E62E1"/>
<rect x="62.5713" y="52.1429" width="2.14286" height="2.14286" fill="#3E62E1"/>
<rect x="60.4287" y="60.7144" width="2.14286" height="2.14286" fill="#0300A5"/>
<rect x="60.4287" y="62.8571" width="2.14286" height="2.14286" fill="black"/>
</g>
<g opacity="0.7">
<rect x="141" y="39.2856" width="2.14286" height="2.14286" fill="black"/>
<rect x="141" y="41.4285" width="2.14286" height="2.14286" fill="black"/>
<rect x="143.143" y="43.5715" width="2.14286" height="2.14286" fill="black"/>
<rect x="145.286" y="45.7144" width="2.14286" height="2.14286" fill="black"/>
<rect x="149.571" y="45.7144" width="2.14286" height="2.14286" fill="black"/>
<rect x="151.714" y="43.5715" width="2.14286" height="2.14286" fill="black"/>
<rect x="153.857" y="41.4285" width="2.14286" height="2.14286" fill="black"/>
<rect x="153.857" y="39.2856" width="2.14286" height="2.14286" fill="black"/>
<rect x="153.857" y="37.1429" width="2.14286" height="2.14286" fill="black"/>
<rect x="151.714" y="35" width="2.14286" height="2.14286" fill="black"/>
<rect x="149.571" y="35" width="2.14286" height="2.14286" fill="black"/>
<rect x="147.429" y="37.1429" width="2.14286" height="2.14286" fill="black"/>
<rect x="145.286" y="35" width="2.14286" height="2.14286" fill="black"/>
<rect x="143.143" y="35" width="2.14286" height="2.14286" fill="black"/>
<rect x="141" y="37.1429" width="2.14286" height="2.14286" fill="black"/>
<rect x="141" y="37.1429" width="2.14286" height="2.14286" fill="black"/>
<rect x="143.143" y="37.1429" width="2.14286" height="2.14286" fill="#3E62E1"/>
<rect x="143.143" y="39.2856" width="2.14286" height="2.14286" fill="#3E62E1"/>
<rect x="143.143" y="41.4285" width="2.14286" height="2.14286" fill="#FF0000"/>
<rect x="143.143" y="41.4285" width="2.14286" height="2.14286" fill="#0300A5"/>
<rect x="145.286" y="41.4285" width="2.14286" height="2.14286" fill="#3E62E1"/>
<rect x="145.286" y="43.5715" width="2.14286" height="2.14286" fill="#0300A5"/>
<rect x="147.429" y="43.5715" width="2.14286" height="2.14286" fill="#3E62E1"/>
<rect x="149.571" y="43.5715" width="2.14286" height="2.14286" fill="#3E62E1"/>
<rect x="149.571" y="41.4285" width="2.14286" height="2.14286" fill="#3E62E1"/>
<rect x="151.714" y="41.4285" width="2.14286" height="2.14286" fill="#3E62E1"/>
<rect x="151.714" y="37.1429" width="2.14286" height="2.14286" fill="#929DFE"/>
<rect x="151.714" y="39.2856" width="2.14286" height="2.14286" fill="#3E62E1"/>
<rect x="149.571" y="39.2856" width="2.14286" height="2.14286" fill="#3E62E1"/>
<rect x="147.429" y="39.2856" width="2.14286" height="2.14286" fill="#3E62E1"/>
<rect x="145.286" y="39.2856" width="2.14286" height="2.14286" fill="#3E62E1"/>
<rect x="145.286" y="37.1429" width="2.14286" height="2.14286" fill="#929DFE"/>
<rect x="147.429" y="41.4285" width="2.14286" height="2.14286" fill="#3E62E1"/>
<rect x="149.571" y="37.1429" width="2.14286" height="2.14286" fill="#3E62E1"/>
<rect x="147.429" y="45.7144" width="2.14286" height="2.14286" fill="#0300A5"/>
<rect x="147.429" y="47.8571" width="2.14286" height="2.14286" fill="black"/>
</g>
<g opacity="0.7">
<rect x="5" y="117.286" width="3.14286" height="3.14286" fill="black"/>
<rect x="5" y="120.428" width="3.14286" height="3.14286" fill="black"/>
<rect x="8.14307" y="123.572" width="3.14286" height="3.14286" fill="black"/>
<rect x="11.2856" y="126.714" width="3.14286" height="3.14286" fill="black"/>
<rect x="17.5713" y="126.714" width="3.14286" height="3.14286" fill="black"/>
<rect x="20.7144" y="123.572" width="3.14286" height="3.14286" fill="black"/>
<rect x="23.8574" y="120.428" width="3.14286" height="3.14286" fill="black"/>
<rect x="23.8574" y="117.286" width="3.14286" height="3.14286" fill="black"/>
<rect x="23.8574" y="114.143" width="3.14286" height="3.14286" fill="black"/>
<rect x="20.7144" y="111" width="3.14286" height="3.14286" fill="black"/>
<rect x="17.5713" y="111" width="3.14286" height="3.14286" fill="black"/>
<rect x="14.4287" y="114.143" width="3.14286" height="3.14286" fill="black"/>
<rect x="11.2856" y="111" width="3.14286" height="3.14286" fill="black"/>
<rect x="8.14307" y="111" width="3.14286" height="3.14286" fill="black"/>
<rect x="5" y="114.143" width="3.14286" height="3.14286" fill="black"/>
<rect x="5" y="114.143" width="3.14286" height="3.14286" fill="black"/>
<rect x="8.14307" y="114.143" width="3.14286" height="3.14286" fill="#3E62E1"/>
<rect x="8.14307" y="117.286" width="3.14286" height="3.14286" fill="#3E62E1"/>
<rect x="8.14307" y="120.428" width="3.14286" height="3.14286" fill="#FF0000"/>
<rect x="8.14307" y="120.428" width="3.14286" height="3.14286" fill="#0300A5"/>
<rect x="11.2856" y="120.428" width="3.14286" height="3.14286" fill="#3E62E1"/>
<rect x="11.2856" y="123.572" width="3.14286" height="3.14286" fill="#0300A5"/>
<rect x="14.4287" y="123.572" width="3.14286" height="3.14286" fill="#3E62E1"/>
<rect x="17.5713" y="123.572" width="3.14286" height="3.14286" fill="#3E62E1"/>
<rect x="17.5713" y="120.428" width="3.14286" height="3.14286" fill="#3E62E1"/>
<rect x="20.7144" y="120.428" width="3.14286" height="3.14286" fill="#3E62E1"/>
<rect x="20.7144" y="114.143" width="3.14286" height="3.14286" fill="#929DFE"/>
<rect x="20.7144" y="117.286" width="3.14286" height="3.14286" fill="#3E62E1"/>
<rect x="17.5713" y="117.286" width="3.14286" height="3.14286" fill="#3E62E1"/>
<rect x="14.4287" y="117.286" width="3.14286" height="3.14286" fill="#3E62E1"/>
<rect x="11.2856" y="117.286" width="3.14286" height="3.14286" fill="#3E62E1"/>
<rect x="11.2856" y="114.143" width="3.14286" height="3.14286" fill="#929DFE"/>
<rect x="14.4287" y="120.428" width="3.14286" height="3.14286" fill="#3E62E1"/>
<rect x="17.5713" y="114.143" width="3.14286" height="3.14286" fill="#3E62E1"/>
<rect x="14.4287" y="126.714" width="3.14286" height="3.14286" fill="#0300A5"/>
<rect x="14.4287" y="129.857" width="3.14286" height="3.14286" fill="black"/>
</g>
<g opacity="0.7">
<rect x="85" y="30.8571" width="4.42857" height="4.42857" fill="black"/>
<rect x="85" y="35.2858" width="4.42857" height="4.42857" fill="black"/>
<rect x="89.4287" y="39.7142" width="4.42857" height="4.42857" fill="black"/>
<rect x="93.8569" y="44.1429" width="4.42857" height="4.42857" fill="black"/>
<rect x="102.714" y="44.1429" width="4.42857" height="4.42857" fill="black"/>
<rect x="107.143" y="39.7142" width="4.42857" height="4.42857" fill="black"/>
<rect x="111.571" y="35.2858" width="4.42857" height="4.42857" fill="black"/>
<rect x="111.571" y="30.8571" width="4.42857" height="4.42857" fill="black"/>
<rect x="111.571" y="26.4287" width="4.42857" height="4.42857" fill="black"/>
<rect x="107.143" y="22" width="4.42857" height="4.42857" fill="black"/>
<rect x="102.714" y="22" width="4.42857" height="4.42857" fill="black"/>
<rect x="98.2856" y="26.4287" width="4.42857" height="4.42857" fill="black"/>
<rect x="93.8569" y="22" width="4.42857" height="4.42857" fill="black"/>
<rect x="89.4287" y="22" width="4.42857" height="4.42857" fill="black"/>
<rect x="85" y="26.4287" width="4.42857" height="4.42857" fill="black"/>
<rect x="85" y="26.4287" width="4.42857" height="4.42857" fill="black"/>
<rect x="89.4287" y="26.4287" width="4.42857" height="4.42857" fill="#3E62E1"/>
<rect x="89.4287" y="30.8571" width="4.42857" height="4.42857" fill="#3E62E1"/>
<rect x="89.4287" y="35.2858" width="4.42857" height="4.42857" fill="#FF0000"/>
<rect x="89.4287" y="35.2858" width="4.42857" height="4.42857" fill="#0300A5"/>
<rect x="93.8569" y="35.2858" width="4.42857" height="4.42857" fill="#3E62E1"/>
<rect x="93.8569" y="39.7142" width="4.42857" height="4.42857" fill="#0300A5"/>
<rect x="98.2856" y="39.7142" width="4.42857" height="4.42857" fill="#3E62E1"/>
<rect x="102.714" y="39.7142" width="4.42857" height="4.42857" fill="#3E62E1"/>
<rect x="102.714" y="35.2858" width="4.42857" height="4.42857" fill="#3E62E1"/>
<rect x="107.143" y="35.2858" width="4.42857" height="4.42857" fill="#3E62E1"/>
<rect x="107.143" y="26.4287" width="4.42857" height="4.42857" fill="#929DFE"/>
<rect x="107.143" y="30.8571" width="4.42857" height="4.42857" fill="#3E62E1"/>
<rect x="102.714" y="30.8571" width="4.42857" height="4.42857" fill="#3E62E1"/>
<rect x="98.2856" y="30.8571" width="4.42857" height="4.42857" fill="#3E62E1"/>
<rect x="93.8569" y="30.8571" width="4.42857" height="4.42857" fill="#3E62E1"/>
<rect x="93.8569" y="26.4287" width="4.42857" height="4.42857" fill="#929DFE"/>
<rect x="98.2856" y="35.2858" width="4.42857" height="4.42857" fill="#3E62E1"/>
<rect x="102.714" y="26.4287" width="4.42857" height="4.42857" fill="#3E62E1"/>
<rect x="98.2856" y="44.1429" width="4.42857" height="4.42857" fill="#0300A5"/>
<rect x="98.2856" y="48.5713" width="4.42857" height="4.42857" fill="black"/>
</g>
<g opacity="0.7">
<rect x="79" y="126.857" width="4.42857" height="4.42857" fill="black"/>
<rect x="79" y="131.286" width="4.42857" height="4.42857" fill="black"/>
<rect x="83.4287" y="135.714" width="4.42857" height="4.42857" fill="black"/>
<rect x="87.8569" y="140.143" width="4.42857" height="4.42857" fill="black"/>
<rect x="96.7144" y="140.143" width="4.42857" height="4.42857" fill="black"/>
<rect x="101.143" y="135.714" width="4.42857" height="4.42857" fill="black"/>
<rect x="105.571" y="131.286" width="4.42857" height="4.42857" fill="black"/>
<rect x="105.571" y="126.857" width="4.42857" height="4.42857" fill="black"/>
<rect x="105.571" y="122.429" width="4.42857" height="4.42857" fill="black"/>
<rect x="101.143" y="118" width="4.42857" height="4.42857" fill="black"/>
<rect x="96.7144" y="118" width="4.42857" height="4.42857" fill="black"/>
<rect x="92.2856" y="122.429" width="4.42857" height="4.42857" fill="black"/>
<rect x="87.8569" y="118" width="4.42857" height="4.42857" fill="black"/>
<rect x="83.4287" y="118" width="4.42857" height="4.42857" fill="black"/>
<rect x="79" y="122.429" width="4.42857" height="4.42857" fill="black"/>
<rect x="79" y="122.429" width="4.42857" height="4.42857" fill="black"/>
<rect x="83.4287" y="122.429" width="4.42857" height="4.42857" fill="#3E62E1"/>
<rect x="83.4287" y="126.857" width="4.42857" height="4.42857" fill="#3E62E1"/>
<rect x="83.4287" y="131.286" width="4.42857" height="4.42857" fill="#FF0000"/>
<rect x="83.4287" y="131.286" width="4.42857" height="4.42857" fill="#0300A5"/>
<rect x="87.8569" y="131.286" width="4.42857" height="4.42857" fill="#3E62E1"/>
<rect x="87.8569" y="135.714" width="4.42857" height="4.42857" fill="#0300A5"/>
<rect x="92.2856" y="135.714" width="4.42857" height="4.42857" fill="#3E62E1"/>
<rect x="96.7144" y="135.714" width="4.42857" height="4.42857" fill="#3E62E1"/>
<rect x="96.7144" y="131.286" width="4.42857" height="4.42857" fill="#3E62E1"/>
<rect x="101.143" y="131.286" width="4.42857" height="4.42857" fill="#3E62E1"/>
<rect x="101.143" y="122.429" width="4.42857" height="4.42857" fill="#929DFE"/>
<rect x="101.143" y="126.857" width="4.42857" height="4.42857" fill="#3E62E1"/>
<rect x="96.7144" y="126.857" width="4.42857" height="4.42857" fill="#3E62E1"/>
<rect x="92.2856" y="126.857" width="4.42857" height="4.42857" fill="#3E62E1"/>
<rect x="87.8569" y="126.857" width="4.42857" height="4.42857" fill="#3E62E1"/>
<rect x="87.8569" y="122.429" width="4.42857" height="4.42857" fill="#929DFE"/>
<rect x="92.2856" y="131.286" width="4.42857" height="4.42857" fill="#3E62E1"/>
<rect x="96.7144" y="122.429" width="4.42857" height="4.42857" fill="#3E62E1"/>
<rect x="92.2856" y="140.143" width="4.42857" height="4.42857" fill="#0300A5"/>
<rect x="92.2856" y="144.571" width="4.42857" height="4.42857" fill="black"/>
</g>
<g opacity="0.7">
<rect x="20" y="80.5715" width="6.28573" height="6.28573" fill="black"/>
<rect x="20" y="86.8574" width="6.28573" height="6.28573" fill="black"/>
<rect x="26.2856" y="93.1427" width="6.28573" height="6.28573" fill="black"/>
<rect x="32.5713" y="99.4286" width="6.28573" height="6.28573" fill="black"/>
<rect x="45.1431" y="99.4286" width="6.28573" height="6.28573" fill="black"/>
<rect x="51.4287" y="93.1427" width="6.28573" height="6.28573" fill="black"/>
<rect x="57.7144" y="86.8574" width="6.28573" height="6.28573" fill="black"/>
<rect x="57.7144" y="80.5715" width="6.28573" height="6.28573" fill="black"/>
<rect x="57.7144" y="74.2859" width="6.28573" height="6.28573" fill="black"/>
<rect x="51.4287" y="68" width="6.28573" height="6.28573" fill="black"/>
<rect x="45.1431" y="68" width="6.28573" height="6.28573" fill="black"/>
<rect x="38.8569" y="74.2859" width="6.28573" height="6.28573" fill="black"/>
<rect x="32.5713" y="68" width="6.28573" height="6.28573" fill="black"/>
<rect x="26.2856" y="68" width="6.28573" height="6.28573" fill="black"/>
<rect x="20" y="74.2859" width="6.28573" height="6.28573" fill="black"/>
<rect x="20" y="74.2859" width="6.28573" height="6.28573" fill="black"/>
<rect x="26.2856" y="74.2859" width="6.28573" height="6.28573" fill="#3E62E1"/>
<rect x="26.2856" y="80.5715" width="6.28573" height="6.28573" fill="#3E62E1"/>
<rect x="26.2856" y="86.8574" width="6.28573" height="6.28573" fill="#FF0000"/>
<rect x="26.2856" y="86.8574" width="6.28573" height="6.28573" fill="#0300A5"/>
<rect x="32.5713" y="86.8574" width="6.28573" height="6.28573" fill="#3E62E1"/>
<rect x="32.5713" y="93.1427" width="6.28573" height="6.28573" fill="#0300A5"/>
<rect x="38.8569" y="93.1427" width="6.28573" height="6.28573" fill="#3E62E1"/>
<rect x="45.1431" y="93.1427" width="6.28573" height="6.28573" fill="#3E62E1"/>
<rect x="45.1431" y="86.8574" width="6.28573" height="6.28573" fill="#3E62E1"/>
<rect x="51.4287" y="86.8574" width="6.28573" height="6.28573" fill="#3E62E1"/>
<rect x="51.4287" y="74.2859" width="6.28573" height="6.28573" fill="#929DFE"/>
<rect x="51.4287" y="80.5715" width="6.28573" height="6.28573" fill="#3E62E1"/>
<rect x="45.1431" y="80.5715" width="6.28573" height="6.28573" fill="#3E62E1"/>
<rect x="38.8569" y="80.5715" width="6.28573" height="6.28573" fill="#3E62E1"/>
<rect x="32.5713" y="80.5715" width="6.28573" height="6.28573" fill="#3E62E1"/>
<rect x="32.5713" y="74.2859" width="6.28573" height="6.28573" fill="#929DFE"/>
<rect x="38.8569" y="86.8574" width="6.28573" height="6.28573" fill="#3E62E1"/>
<rect x="45.1431" y="74.2859" width="6.28573" height="6.28573" fill="#3E62E1"/>
<rect x="38.8569" y="99.4286" width="6.28573" height="6.28573" fill="#0300A5"/>
<rect x="38.8569" y="105.714" width="6.28573" height="6.28573" fill="black"/>
</g>
<g opacity="0.7">
<rect x="320" y="125.429" width="5.71428" height="5.71428" fill="black"/>
<rect x="320" y="131.143" width="5.71428" height="5.71428" fill="black"/>
<rect x="325.714" y="136.857" width="5.71428" height="5.71428" fill="black"/>
<rect x="331.429" y="142.571" width="5.71428" height="5.71428" fill="black"/>
<rect x="342.857" y="142.571" width="5.71428" height="5.71428" fill="black"/>
<rect x="348.571" y="136.857" width="5.71428" height="5.71428" fill="black"/>
<rect x="354.286" y="131.143" width="5.71428" height="5.71428" fill="black"/>
<rect x="354.286" y="125.429" width="5.71428" height="5.71428" fill="black"/>
<rect x="354.286" y="119.714" width="5.71428" height="5.71428" fill="black"/>
<rect x="348.571" y="114" width="5.71428" height="5.71428" fill="black"/>
<rect x="342.857" y="114" width="5.71428" height="5.71428" fill="black"/>
<rect x="337.143" y="119.714" width="5.71428" height="5.71428" fill="black"/>
<rect x="331.429" y="114" width="5.71428" height="5.71428" fill="black"/>
<rect x="325.714" y="114" width="5.71428" height="5.71428" fill="black"/>
<rect x="320" y="119.714" width="5.71428" height="5.71428" fill="black"/>
<rect x="320" y="119.714" width="5.71428" height="5.71428" fill="black"/>
<rect x="325.714" y="119.714" width="5.71428" height="5.71428" fill="#3E62E1"/>
<rect x="325.714" y="125.429" width="5.71428" height="5.71428" fill="#3E62E1"/>
<rect x="325.714" y="131.143" width="5.71428" height="5.71428" fill="#FF0000"/>
<rect x="325.714" y="131.143" width="5.71428" height="5.71428" fill="#0300A5"/>
<rect x="331.429" y="131.143" width="5.71428" height="5.71428" fill="#3E62E1"/>
<rect x="331.429" y="136.857" width="5.71428" height="5.71428" fill="#0300A5"/>
<rect x="337.143" y="136.857" width="5.71428" height="5.71428" fill="#3E62E1"/>
<rect x="342.857" y="136.857" width="5.71428" height="5.71428" fill="#3E62E1"/>
<rect x="342.857" y="131.143" width="5.71428" height="5.71428" fill="#3E62E1"/>
<rect x="348.571" y="131.143" width="5.71428" height="5.71428" fill="#3E62E1"/>
<rect x="348.571" y="119.714" width="5.71428" height="5.71428" fill="#929DFE"/>
<rect x="348.571" y="125.429" width="5.71428" height="5.71428" fill="#3E62E1"/>
<rect x="342.857" y="125.429" width="5.71428" height="5.71428" fill="#3E62E1"/>
<rect x="337.143" y="125.429" width="5.71428" height="5.71428" fill="#3E62E1"/>
<rect x="331.429" y="125.429" width="5.71428" height="5.71428" fill="#3E62E1"/>
<rect x="331.429" y="119.714" width="5.71428" height="5.71428" fill="#929DFE"/>
<rect x="337.143" y="131.143" width="5.71428" height="5.71428" fill="#3E62E1"/>
<rect x="342.857" y="119.714" width="5.71428" height="5.71428" fill="#3E62E1"/>
<rect x="337.143" y="142.571" width="5.71428" height="5.71428" fill="#0300A5"/>
<rect x="337.143" y="148.285" width="5.71428" height="5.71428" fill="black"/>
</g>
<g opacity="0.7">
<rect x="404" y="99.4286" width="5.71428" height="5.71428" fill="black"/>
<rect x="404" y="105.143" width="5.71428" height="5.71428" fill="black"/>
<rect x="409.714" y="110.857" width="5.71428" height="5.71428" fill="black"/>
<rect x="415.429" y="116.571" width="5.71428" height="5.71428" fill="black"/>
<rect x="426.857" y="116.571" width="5.71428" height="5.71428" fill="black"/>
<rect x="426.857" y="88" width="5.71428" height="5.71428" fill="black"/>
<rect x="421.143" y="93.7142" width="5.71428" height="5.71428" fill="black"/>
<rect x="415.429" y="88" width="5.71428" height="5.71428" fill="black"/>
<rect x="409.714" y="88" width="5.71428" height="5.71428" fill="black"/>
<rect x="404" y="93.7142" width="5.71428" height="5.71428" fill="black"/>
<rect x="404" y="93.7142" width="5.71428" height="5.71428" fill="black"/>
<rect x="409.714" y="93.7142" width="5.71428" height="5.71428" fill="#3E62E1"/>
<rect x="409.714" y="99.4286" width="5.71428" height="5.71428" fill="#3E62E1"/>
<rect x="409.714" y="105.143" width="5.71428" height="5.71428" fill="#FF0000"/>
<rect x="409.714" y="105.143" width="5.71428" height="5.71428" fill="#0300A5"/>
<rect x="415.429" y="105.143" width="5.71428" height="5.71428" fill="#3E62E1"/>
<rect x="415.429" y="110.857" width="5.71428" height="5.71428" fill="#0300A5"/>
<rect x="421.143" y="110.857" width="5.71428" height="5.71428" fill="#3E62E1"/>
<rect x="426.857" y="110.857" width="5.71428" height="5.71428" fill="#3E62E1"/>
<rect x="426.857" y="105.143" width="5.71428" height="5.71428" fill="#3E62E1"/>
<rect x="426.857" y="99.4286" width="5.71428" height="5.71428" fill="#3E62E1"/>
<rect x="421.143" y="99.4286" width="5.71428" height="5.71428" fill="#3E62E1"/>
<rect x="415.429" y="99.4286" width="5.71428" height="5.71428" fill="#3E62E1"/>
<rect x="415.429" y="93.7142" width="5.71428" height="5.71428" fill="#929DFE"/>
<rect x="421.143" y="105.143" width="5.71428" height="5.71428" fill="#3E62E1"/>
<rect x="426.857" y="93.7142" width="5.71428" height="5.71428" fill="#3E62E1"/>
<rect x="421.143" y="116.571" width="5.71428" height="5.71428" fill="#0300A5"/>
<rect x="421.143" y="122.285" width="5.71428" height="5.71428" fill="black"/>
</g>
<g opacity="0.7">
<rect x="353" y="87.4285" width="2.71429" height="2.71429" fill="black"/>
<rect x="353" y="90.1431" width="2.71429" height="2.71429" fill="black"/>
<rect x="355.714" y="92.8569" width="2.71429" height="2.71429" fill="black"/>
<rect x="358.429" y="95.5715" width="2.71429" height="2.71429" fill="black"/>
<rect x="363.857" y="95.5715" width="2.71429" height="2.71429" fill="black"/>
<rect x="366.571" y="92.8569" width="2.71429" height="2.71429" fill="black"/>
<rect x="369.286" y="90.1431" width="2.71429" height="2.71429" fill="black"/>
<rect x="369.286" y="87.4285" width="2.71429" height="2.71429" fill="black"/>
<rect x="369.286" y="84.7144" width="2.71429" height="2.71429" fill="black"/>
<rect x="366.571" y="82" width="2.71429" height="2.71429" fill="black"/>
<rect x="363.857" y="82" width="2.71429" height="2.71429" fill="black"/>
<rect x="361.143" y="84.7144" width="2.71429" height="2.71429" fill="black"/>
<rect x="358.429" y="82" width="2.71429" height="2.71429" fill="black"/>
<rect x="355.714" y="82" width="2.71429" height="2.71429" fill="black"/>
<rect x="353" y="84.7144" width="2.71429" height="2.71429" fill="black"/>
<rect x="353" y="84.7144" width="2.71429" height="2.71429" fill="black"/>
<rect x="355.714" y="84.7144" width="2.71429" height="2.71429" fill="#3E62E1"/>
<rect x="355.714" y="87.4285" width="2.71429" height="2.71429" fill="#3E62E1"/>
<rect x="355.714" y="90.1431" width="2.71429" height="2.71429" fill="#FF0000"/>
<rect x="355.714" y="90.1431" width="2.71429" height="2.71429" fill="#0300A5"/>
<rect x="358.429" y="90.1431" width="2.71429" height="2.71429" fill="#3E62E1"/>
<rect x="358.429" y="92.8569" width="2.71429" height="2.71429" fill="#0300A5"/>
<rect x="361.143" y="92.8569" width="2.71429" height="2.71429" fill="#3E62E1"/>
<rect x="363.857" y="92.8569" width="2.71429" height="2.71429" fill="#3E62E1"/>
<rect x="363.857" y="90.1431" width="2.71429" height="2.71429" fill="#3E62E1"/>
<rect x="366.571" y="90.1431" width="2.71429" height="2.71429" fill="#3E62E1"/>
<rect x="366.571" y="84.7144" width="2.71429" height="2.71429" fill="#929DFE"/>
<rect x="366.571" y="87.4285" width="2.71429" height="2.71429" fill="#3E62E1"/>
<rect x="363.857" y="87.4285" width="2.71429" height="2.71429" fill="#3E62E1"/>
<rect x="361.143" y="87.4285" width="2.71429" height="2.71429" fill="#3E62E1"/>
<rect x="358.429" y="87.4285" width="2.71429" height="2.71429" fill="#3E62E1"/>
<rect x="358.429" y="84.7144" width="2.71429" height="2.71429" fill="#929DFE"/>
<rect x="361.143" y="90.1431" width="2.71429" height="2.71429" fill="#3E62E1"/>
<rect x="363.857" y="84.7144" width="2.71429" height="2.71429" fill="#3E62E1"/>
<rect x="361.143" y="95.5715" width="2.71429" height="2.71429" fill="#0300A5"/>
<rect x="361.143" y="98.2855" width="2.71429" height="2.71429" fill="black"/>
</g>
<g opacity="0.7">
<rect x="99" y="93.4285" width="2.71429" height="2.71429" fill="black"/>
<rect x="99" y="96.1431" width="2.71429" height="2.71429" fill="black"/>
<rect x="101.714" y="98.8569" width="2.71429" height="2.71429" fill="black"/>
<rect x="104.429" y="101.572" width="2.71429" height="2.71429" fill="black"/>
<rect x="109.857" y="101.572" width="2.71429" height="2.71429" fill="black"/>
<rect x="112.571" y="98.8569" width="2.71429" height="2.71429" fill="black"/>
<rect x="115.286" y="96.1431" width="2.71429" height="2.71429" fill="black"/>
<rect x="115.286" y="93.4285" width="2.71429" height="2.71429" fill="black"/>
<rect x="115.286" y="90.7144" width="2.71429" height="2.71429" fill="black"/>
<rect x="112.571" y="88" width="2.71429" height="2.71429" fill="black"/>
<rect x="109.857" y="88" width="2.71429" height="2.71429" fill="black"/>
<rect x="107.143" y="90.7144" width="2.71429" height="2.71429" fill="black"/>
<rect x="104.429" y="88" width="2.71429" height="2.71429" fill="black"/>
<rect x="101.714" y="88" width="2.71429" height="2.71429" fill="black"/>
<rect x="99" y="90.7144" width="2.71429" height="2.71429" fill="black"/>
<rect x="99" y="90.7144" width="2.71429" height="2.71429" fill="black"/>
<rect x="101.714" y="90.7144" width="2.71429" height="2.71429" fill="#3E62E1"/>
<rect x="101.714" y="93.4285" width="2.71429" height="2.71429" fill="#3E62E1"/>
<rect x="101.714" y="96.1431" width="2.71429" height="2.71429" fill="#FF0000"/>
<rect x="101.714" y="96.1431" width="2.71429" height="2.71429" fill="#0300A5"/>
<rect x="104.429" y="96.1431" width="2.71429" height="2.71429" fill="#3E62E1"/>
<rect x="104.429" y="98.8569" width="2.71429" height="2.71429" fill="#0300A5"/>
<rect x="107.143" y="98.8569" width="2.71429" height="2.71429" fill="#3E62E1"/>
<rect x="109.857" y="98.8569" width="2.71429" height="2.71429" fill="#3E62E1"/>
<rect x="109.857" y="96.1431" width="2.71429" height="2.71429" fill="#3E62E1"/>
<rect x="112.571" y="96.1431" width="2.71429" height="2.71429" fill="#3E62E1"/>
<rect x="112.571" y="90.7144" width="2.71429" height="2.71429" fill="#929DFE"/>
<rect x="112.571" y="93.4285" width="2.71429" height="2.71429" fill="#3E62E1"/>
<rect x="109.857" y="93.4285" width="2.71429" height="2.71429" fill="#3E62E1"/>
<rect x="107.143" y="93.4285" width="2.71429" height="2.71429" fill="#3E62E1"/>
<rect x="104.429" y="93.4285" width="2.71429" height="2.71429" fill="#3E62E1"/>
<rect x="104.429" y="90.7144" width="2.71429" height="2.71429" fill="#929DFE"/>
<rect x="107.143" y="96.1431" width="2.71429" height="2.71429" fill="#3E62E1"/>
<rect x="109.857" y="90.7144" width="2.71429" height="2.71429" fill="#3E62E1"/>
<rect x="107.143" y="101.572" width="2.71429" height="2.71429" fill="#0300A5"/>
<rect x="107.143" y="104.286" width="2.71429" height="2.71429" fill="black"/>
</g>
<g opacity="0.7">
<rect x="377" y="118.428" width="2.71429" height="2.71429" fill="black"/>
<rect x="377" y="121.143" width="2.71429" height="2.71429" fill="black"/>
<rect x="379.714" y="123.857" width="2.71429" height="2.71429" fill="black"/>
<rect x="382.429" y="126.572" width="2.71429" height="2.71429" fill="black"/>
<rect x="387.857" y="126.572" width="2.71429" height="2.71429" fill="black"/>
<rect x="390.571" y="123.857" width="2.71429" height="2.71429" fill="black"/>
<rect x="393.286" y="121.143" width="2.71429" height="2.71429" fill="black"/>
<rect x="393.286" y="118.428" width="2.71429" height="2.71429" fill="black"/>
<rect x="393.286" y="115.714" width="2.71429" height="2.71429" fill="black"/>
<rect x="390.571" y="113" width="2.71429" height="2.71429" fill="black"/>
<rect x="387.857" y="113" width="2.71429" height="2.71429" fill="black"/>
<rect x="385.143" y="115.714" width="2.71429" height="2.71429" fill="black"/>
<rect x="382.429" y="113" width="2.71429" height="2.71429" fill="black"/>
<rect x="379.714" y="113" width="2.71429" height="2.71429" fill="black"/>
<rect x="377" y="115.714" width="2.71429" height="2.71429" fill="black"/>
<rect x="377" y="115.714" width="2.71429" height="2.71429" fill="black"/>
<rect x="379.714" y="115.714" width="2.71429" height="2.71429" fill="#3E62E1"/>
<rect x="379.714" y="118.428" width="2.71429" height="2.71429" fill="#3E62E1"/>
<rect x="379.714" y="121.143" width="2.71429" height="2.71429" fill="#FF0000"/>
<rect x="379.714" y="121.143" width="2.71429" height="2.71429" fill="#0300A5"/>
<rect x="382.429" y="121.143" width="2.71429" height="2.71429" fill="#3E62E1"/>
<rect x="382.429" y="123.857" width="2.71429" height="2.71429" fill="#0300A5"/>
<rect x="385.143" y="123.857" width="2.71429" height="2.71429" fill="#3E62E1"/>
<rect x="387.857" y="123.857" width="2.71429" height="2.71429" fill="#3E62E1"/>
<rect x="387.857" y="121.143" width="2.71429" height="2.71429" fill="#3E62E1"/>
<rect x="390.571" y="121.143" width="2.71429" height="2.71429" fill="#3E62E1"/>
<rect x="390.571" y="115.714" width="2.71429" height="2.71429" fill="#929DFE"/>
<rect x="390.571" y="118.428" width="2.71429" height="2.71429" fill="#3E62E1"/>
<rect x="387.857" y="118.428" width="2.71429" height="2.71429" fill="#3E62E1"/>
<rect x="385.143" y="118.428" width="2.71429" height="2.71429" fill="#3E62E1"/>
<rect x="382.429" y="118.428" width="2.71429" height="2.71429" fill="#3E62E1"/>
<rect x="382.429" y="115.714" width="2.71429" height="2.71429" fill="#929DFE"/>
<rect x="385.143" y="121.143" width="2.71429" height="2.71429" fill="#3E62E1"/>
<rect x="387.857" y="115.714" width="2.71429" height="2.71429" fill="#3E62E1"/>
<rect x="385.143" y="126.572" width="2.71429" height="2.71429" fill="#0300A5"/>
<rect x="385.143" y="129.286" width="2.71429" height="2.71429" fill="black"/>
</g>
<g opacity="0.7">
<rect x="370" y="50.0001" width="4.00003" height="4.00003" fill="black"/>
<rect x="370" y="54.0004" width="4.00003" height="4.00003" fill="black"/>
<rect x="374" y="57.9998" width="4.00003" height="4.00003" fill="black"/>
<rect x="378" y="62.0001" width="4.00003" height="4.00003" fill="black"/>
<rect x="386" y="62.0001" width="4.00003" height="4.00003" fill="black"/>
<rect x="390" y="57.9998" width="4.00003" height="4.00003" fill="black"/>
<rect x="394" y="54.0004" width="4.00003" height="4.00003" fill="black"/>
<rect x="394" y="50.0001" width="4.00003" height="4.00003" fill="black"/>
<rect x="394" y="46" width="4.00003" height="4.00003" fill="black"/>
<rect x="390" y="42" width="4.00003" height="4.00003" fill="black"/>
<rect x="386" y="42" width="4.00003" height="4.00003" fill="black"/>
<rect x="382" y="46" width="4.00003" height="4.00003" fill="black"/>
<rect x="378" y="42" width="4.00003" height="4.00003" fill="black"/>
<rect x="374" y="42" width="4.00003" height="4.00003" fill="black"/>
<rect x="370" y="46" width="4.00003" height="4.00003" fill="black"/>
<rect x="370" y="46" width="4.00003" height="4.00003" fill="black"/>
<rect x="374" y="46" width="4.00003" height="4.00003" fill="#3E62E1"/>
<rect x="374" y="50.0001" width="4.00003" height="4.00003" fill="#3E62E1"/>
<rect x="374" y="54.0004" width="4.00003" height="4.00003" fill="#FF0000"/>
<rect x="374" y="54.0004" width="4.00003" height="4.00003" fill="#0300A5"/>
<rect x="378" y="54.0004" width="4.00003" height="4.00003" fill="#3E62E1"/>
<rect x="378" y="57.9998" width="4.00003" height="4.00003" fill="#0300A5"/>
<rect x="382" y="57.9998" width="4.00003" height="4.00003" fill="#3E62E1"/>
<rect x="386" y="57.9998" width="4.00003" height="4.00003" fill="#3E62E1"/>
<rect x="386" y="54.0004" width="4.00003" height="4.00003" fill="#3E62E1"/>
<rect x="390" y="54.0004" width="4.00003" height="4.00003" fill="#3E62E1"/>
<rect x="390" y="46" width="4.00003" height="4.00003" fill="#929DFE"/>
<rect x="390" y="50.0001" width="4.00003" height="4.00003" fill="#3E62E1"/>
<rect x="386" y="50.0001" width="4.00003" height="4.00003" fill="#3E62E1"/>
<rect x="382" y="50.0001" width="4.00003" height="4.00003" fill="#3E62E1"/>
<rect x="378" y="50.0001" width="4.00003" height="4.00003" fill="#3E62E1"/>
<rect x="378" y="46" width="4.00003" height="4.00003" fill="#929DFE"/>
<rect x="382" y="54.0004" width="4.00003" height="4.00003" fill="#3E62E1"/>
<rect x="386" y="46" width="4.00003" height="4.00003" fill="#3E62E1"/>
<rect x="382" y="62.0001" width="4.00003" height="4.00003" fill="#0300A5"/>
<rect x="382" y="66.0002" width="4.00003" height="4.00003" fill="black"/>
</g>
<g opacity="0.7">
<rect x="402" y="12.8572" width="6.42857" height="6.42857" fill="black"/>
<rect x="402" y="19.2861" width="6.42857" height="6.42857" fill="black"/>
<rect x="408.429" y="25.7139" width="6.42857" height="6.42857" fill="black"/>
<rect x="414.857" y="32.1428" width="6.42857" height="6.42857" fill="black"/>
<rect x="427.714" y="32.1428" width="6.42857" height="6.42857" fill="black"/>
<rect x="427.714" width="6.42857" height="6.42857" fill="black"/>
<rect x="421.286" y="6.42859" width="6.42857" height="6.42857" fill="black"/>
<rect x="414.857" width="6.42857" height="6.42857" fill="black"/>
<rect x="408.429" width="6.42857" height="6.42857" fill="black"/>
<rect x="402" y="6.42859" width="6.42857" height="6.42857" fill="black"/>
<rect x="402" y="6.42859" width="6.42857" height="6.42857" fill="black"/>
<rect x="408.429" y="6.42859" width="6.42857" height="6.42857" fill="#3E62E1"/>
<rect x="408.429" y="12.8572" width="6.42857" height="6.42857" fill="#3E62E1"/>
<rect x="408.429" y="19.2861" width="6.42857" height="6.42857" fill="#FF0000"/>
<rect x="408.429" y="19.2861" width="6.42857" height="6.42857" fill="#0300A5"/>
<rect x="414.857" y="19.2861" width="6.42857" height="6.42857" fill="#3E62E1"/>
<rect x="414.857" y="25.7139" width="6.42857" height="6.42857" fill="#0300A5"/>
<rect x="421.286" y="25.7139" width="6.42857" height="6.42857" fill="#3E62E1"/>
<rect x="427.714" y="25.7139" width="6.42857" height="6.42857" fill="#3E62E1"/>
<rect x="427.714" y="19.2861" width="6.42857" height="6.42857" fill="#3E62E1"/>
<rect x="427.714" y="12.8572" width="6.42857" height="6.42857" fill="#3E62E1"/>
<rect x="421.286" y="12.8572" width="6.42857" height="6.42857" fill="#3E62E1"/>
<rect x="414.857" y="12.8572" width="6.42857" height="6.42857" fill="#3E62E1"/>
<rect x="414.857" y="6.42859" width="6.42857" height="6.42857" fill="#929DFE"/>
<rect x="421.286" y="19.2861" width="6.42857" height="6.42857" fill="#3E62E1"/>
<rect x="427.714" y="6.42859" width="6.42857" height="6.42857" fill="#3E62E1"/>
<rect x="421.286" y="32.1428" width="6.42857" height="6.42857" fill="#0300A5"/>
<rect x="421.286" y="38.571" width="6.42857" height="6.42857" fill="black"/>
</g>
<g opacity="0.7">
<rect x="-6.14307" y="34.4283" width="7.85716" height="7.85716" fill="black"/>
<rect x="1.71436" y="42.2858" width="7.85716" height="7.85716" fill="black"/>
<rect x="17.4287" y="42.2858" width="7.85716" height="7.85716" fill="black"/>
<rect x="25.2856" y="34.4283" width="7.85716" height="7.85716" fill="black"/>
<rect x="33.1431" y="26.5718" width="7.85716" height="7.85716" fill="black"/>
<rect x="33.1431" y="18.7144" width="7.85716" height="7.85716" fill="black"/>
<rect x="33.1431" y="10.8574" width="7.85716" height="7.85716" fill="black"/>
<rect x="25.2856" y="3" width="7.85716" height="7.85716" fill="black"/>
<rect x="17.4287" y="3" width="7.85716" height="7.85716" fill="black"/>
<rect x="9.57129" y="10.8574" width="7.85716" height="7.85716" fill="black"/>
<rect x="1.71436" y="3" width="7.85716" height="7.85716" fill="black"/>
<rect x="-6.14307" y="3" width="7.85716" height="7.85716" fill="black"/>
<rect x="-6.14307" y="10.8574" width="7.85716" height="7.85716" fill="#3E62E1"/>
<rect x="-6.14307" y="18.7144" width="7.85716" height="7.85716" fill="#3E62E1"/>
<rect x="-6.14307" y="26.5718" width="7.85716" height="7.85716" fill="#FF0000"/>
<rect x="-6.14307" y="26.5718" width="7.85716" height="7.85716" fill="#0300A5"/>
<rect x="1.71436" y="26.5718" width="7.85716" height="7.85716" fill="#3E62E1"/>
<rect x="1.71436" y="34.4283" width="7.85716" height="7.85716" fill="#0300A5"/>
<rect x="9.57129" y="34.4283" width="7.85716" height="7.85716" fill="#3E62E1"/>
<rect x="17.4287" y="34.4283" width="7.85716" height="7.85716" fill="#3E62E1"/>
<rect x="17.4287" y="26.5718" width="7.85716" height="7.85716" fill="#3E62E1"/>
<rect x="25.2856" y="26.5718" width="7.85716" height="7.85716" fill="#3E62E1"/>
<rect x="25.2856" y="10.8574" width="7.85716" height="7.85716" fill="#929DFE"/>
<rect x="25.2856" y="18.7144" width="7.85716" height="7.85716" fill="#3E62E1"/>
<rect x="17.4287" y="18.7144" width="7.85716" height="7.85716" fill="#3E62E1"/>
<rect x="9.57129" y="18.7144" width="7.85716" height="7.85716" fill="#3E62E1"/>
<rect x="1.71436" y="18.7144" width="7.85716" height="7.85716" fill="#3E62E1"/>
<rect x="1.71436" y="10.8574" width="7.85716" height="7.85716" fill="#929DFE"/>
<rect x="9.57129" y="26.5718" width="7.85716" height="7.85716" fill="#3E62E1"/>
<rect x="17.4287" y="10.8574" width="7.85716" height="7.85716" fill="#3E62E1"/>
<rect x="9.57129" y="42.2858" width="7.85716" height="7.85716" fill="#0300A5"/>
<rect x="9.57129" y="50.1427" width="7.85716" height="7.85716" fill="black"/>
</g>
</svg>
