<svg width="361" height="361" viewBox="0 0 361 361" fill="none" xmlns="http://www.w3.org/2000/svg">
<g filter="url(#filter0_f_0_1)">
<circle cx="180.5" cy="180.5" r="86.5" fill="#9EDEFF"/>
</g>
<line x1="233.36" y1="217" x2="233.36" y2="235" stroke="white" stroke-opacity="0.75" stroke-width="0.72"/>
<line x1="242" y1="226.36" x2="224" y2="226.36" stroke="white" stroke-opacity="0.75" stroke-width="0.72"/>
<line x1="149.86" y1="232" x2="149.86" y2="243" stroke="white" stroke-opacity="0.75" stroke-width="0.72"/>
<line x1="155" y1="237.86" x2="144" y2="237.86" stroke="white" stroke-opacity="0.75" stroke-width="0.72"/>
<line x1="185.86" y1="243" x2="185.86" y2="254" stroke="white" stroke-opacity="0.75" stroke-width="0.72"/>
<line x1="191" y1="248.86" x2="180" y2="248.86" stroke="white" stroke-opacity="0.75" stroke-width="0.72"/>
<line x1="249.86" y1="176" x2="249.86" y2="187" stroke="white" stroke-opacity="0.75" stroke-width="0.72"/>
<line x1="255" y1="181.86" x2="244" y2="181.86" stroke="white" stroke-opacity="0.75" stroke-width="0.72"/>
<line x1="196.795" y1="101" x2="196.795" y2="110" stroke="white" stroke-opacity="0.75" stroke-width="0.589091"/>
<line x1="201" y1="105.795" x2="192" y2="105.795" stroke="white" stroke-opacity="0.75" stroke-width="0.589091"/>
<line x1="148.795" y1="111" x2="148.795" y2="120" stroke="white" stroke-opacity="0.75" stroke-width="0.589091"/>
<line x1="153" y1="115.795" x2="144" y2="115.795" stroke="white" stroke-opacity="0.75" stroke-width="0.589091"/>
<line x1="243.86" y1="125" x2="243.86" y2="136" stroke="white" stroke-opacity="0.75" stroke-width="0.72"/>
<line x1="249" y1="130.86" x2="238" y2="130.86" stroke="white" stroke-opacity="0.75" stroke-width="0.72"/>
<line x1="140.86" y1="131" x2="140.86" y2="142" stroke="white" stroke-opacity="0.75" stroke-width="0.72"/>
<line x1="146" y1="136.86" x2="135" y2="136.86" stroke="white" stroke-opacity="0.75" stroke-width="0.72"/>
<mask id="path-18-inside-1_0_1" fill="white">
<path d="M231 121C231 126.523 226.523 131 221 131C215.477 131 211 126.523 211 121C211 115.477 215.477 111 221 111C226.523 111 231 115.477 231 121ZM212.61 121C212.61 125.634 216.366 129.39 221 129.39C225.634 129.39 229.39 125.634 229.39 121C229.39 116.366 225.634 112.61 221 112.61C216.366 112.61 212.61 116.366 212.61 121Z"/>
</mask>
<path d="M231 121C231 126.523 226.523 131 221 131C215.477 131 211 126.523 211 121C211 115.477 215.477 111 221 111C226.523 111 231 115.477 231 121ZM212.61 121C212.61 125.634 216.366 129.39 221 129.39C225.634 129.39 229.39 125.634 229.39 121C229.39 116.366 225.634 112.61 221 112.61C216.366 112.61 212.61 116.366 212.61 121Z" fill="white" fill-opacity="0.75" stroke="white" stroke-opacity="0.75" stroke-width="0.28169" mask="url(#path-18-inside-1_0_1)"/>
<mask id="path-19-inside-2_0_1" fill="white">
<path d="M131 234C131 239.523 126.523 244 121 244C115.477 244 111 239.523 111 234C111 228.477 115.477 224 121 224C126.523 224 131 228.477 131 234ZM112.61 234C112.61 238.634 116.366 242.39 121 242.39C125.634 242.39 129.39 238.634 129.39 234C129.39 229.366 125.634 225.61 121 225.61C116.366 225.61 112.61 229.366 112.61 234Z"/>
</mask>
<path d="M131 234C131 239.523 126.523 244 121 244C115.477 244 111 239.523 111 234C111 228.477 115.477 224 121 224C126.523 224 131 228.477 131 234ZM112.61 234C112.61 238.634 116.366 242.39 121 242.39C125.634 242.39 129.39 238.634 129.39 234C129.39 229.366 125.634 225.61 121 225.61C116.366 225.61 112.61 229.366 112.61 234Z" fill="white" fill-opacity="0.75" stroke="white" stroke-opacity="0.75" stroke-width="0.28169" mask="url(#path-19-inside-2_0_1)"/>
<mask id="path-20-inside-3_0_1" fill="white">
<path d="M135 149C135 152.866 131.866 156 128 156C124.134 156 121 152.866 121 149C121 145.134 124.134 142 128 142C131.866 142 135 145.134 135 149ZM122.127 149C122.127 152.244 124.756 154.873 128 154.873C131.244 154.873 133.873 152.244 133.873 149C133.873 145.756 131.244 143.127 128 143.127C124.756 143.127 122.127 145.756 122.127 149Z"/>
</mask>
<path d="M135 149C135 152.866 131.866 156 128 156C124.134 156 121 152.866 121 149C121 145.134 124.134 142 128 142C131.866 142 135 145.134 135 149ZM122.127 149C122.127 152.244 124.756 154.873 128 154.873C131.244 154.873 133.873 152.244 133.873 149C133.873 145.756 131.244 143.127 128 143.127C124.756 143.127 122.127 145.756 122.127 149Z" fill="white" fill-opacity="0.75" stroke="white" stroke-opacity="0.75" stroke-width="0.338028" mask="url(#path-20-inside-3_0_1)"/>
<mask id="path-21-inside-4_0_1" fill="white">
<path d="M217 248C217 251.314 214.314 254 211 254C207.686 254 205 251.314 205 248C205 244.686 207.686 242 211 242C214.314 242 217 244.686 217 248ZM205.966 248C205.966 250.78 208.22 253.034 211 253.034C213.78 253.034 216.034 250.78 216.034 248C216.034 245.22 213.78 242.966 211 242.966C208.22 242.966 205.966 245.22 205.966 248Z"/>
</mask>
<path d="M217 248C217 251.314 214.314 254 211 254C207.686 254 205 251.314 205 248C205 244.686 207.686 242 211 242C214.314 242 217 244.686 217 248ZM205.966 248C205.966 250.78 208.22 253.034 211 253.034C213.78 253.034 216.034 250.78 216.034 248C216.034 245.22 213.78 242.966 211 242.966C208.22 242.966 205.966 245.22 205.966 248Z" fill="white" fill-opacity="0.75" stroke="white" stroke-opacity="0.75" stroke-width="0.289738" mask="url(#path-21-inside-4_0_1)"/>
<mask id="path-22-inside-5_0_1" fill="white">
<path d="M162 256.5C162 258.985 159.985 261 157.5 261C155.015 261 153 258.985 153 256.5C153 254.015 155.015 252 157.5 252C159.985 252 162 254.015 162 256.5ZM153.724 256.5C153.724 258.585 155.415 260.276 157.5 260.276C159.585 260.276 161.276 258.585 161.276 256.5C161.276 254.415 159.585 252.724 157.5 252.724C155.415 252.724 153.724 254.415 153.724 256.5Z"/>
</mask>
<path d="M162 256.5C162 258.985 159.985 261 157.5 261C155.015 261 153 258.985 153 256.5C153 254.015 155.015 252 157.5 252C159.985 252 162 254.015 162 256.5ZM153.724 256.5C153.724 258.585 155.415 260.276 157.5 260.276C159.585 260.276 161.276 258.585 161.276 256.5C161.276 254.415 159.585 252.724 157.5 252.724C155.415 252.724 153.724 254.415 153.724 256.5Z" fill="white" fill-opacity="0.75" stroke="white" stroke-opacity="0.75" stroke-width="0.217304" mask="url(#path-22-inside-5_0_1)"/>
<mask id="path-23-inside-6_0_1" fill="white">
<path d="M118 202.5C118 204.985 115.985 207 113.5 207C111.015 207 109 204.985 109 202.5C109 200.015 111.015 198 113.5 198C115.985 198 118 200.015 118 202.5ZM109.724 202.5C109.724 204.585 111.415 206.276 113.5 206.276C115.585 206.276 117.276 204.585 117.276 202.5C117.276 200.415 115.585 198.724 113.5 198.724C111.415 198.724 109.724 200.415 109.724 202.5Z"/>
</mask>
<path d="M118 202.5C118 204.985 115.985 207 113.5 207C111.015 207 109 204.985 109 202.5C109 200.015 111.015 198 113.5 198C115.985 198 118 200.015 118 202.5ZM109.724 202.5C109.724 204.585 111.415 206.276 113.5 206.276C115.585 206.276 117.276 204.585 117.276 202.5C117.276 200.415 115.585 198.724 113.5 198.724C111.415 198.724 109.724 200.415 109.724 202.5Z" fill="white" fill-opacity="0.75" stroke="white" stroke-opacity="0.75" stroke-width="0.338028" mask="url(#path-23-inside-6_0_1)"/>
<defs>
<filter id="filter0_f_0_1" x="0.204811" y="0.204811" width="360.59" height="360.59" filterUnits="userSpaceOnUse" color-interpolation-filters="sRGB">
<feFlood flood-opacity="0" result="BackgroundImageFix"/>
<feBlend mode="normal" in="SourceGraphic" in2="BackgroundImageFix" result="shape"/>
<feGaussianBlur stdDeviation="46.8976" result="effect1_foregroundBlur_0_1"/>
</filter>
</defs>
</svg>
