<svg width="125" height="70" viewBox="0 0 125 70" fill="none" xmlns="http://www.w3.org/2000/svg">
<g opacity="0.6">
<path d="M93.3333 46.6667H101.111V54.4444H93.3333V46.6667Z" fill="white"/>
<path d="M93.3333 38.8889H101.111V46.6667H93.3333V38.8889Z" fill="white"/>
<path d="M101.111 38.8889H108.889V46.6667H101.111V38.8889Z" fill="white"/>
<path d="M108.889 38.8889H116.667V46.6667H108.889V38.8889Z" fill="white"/>
<path d="M108.889 46.6667H116.667V54.4444H108.889V46.6667Z" fill="white"/>
<path d="M101.111 46.6667H108.889V54.4444H101.111V46.6667Z" fill="white"/>
<path d="M85.5555 46.6667H93.3333V54.4444H85.5555V46.6667Z" fill="white"/>
<path d="M70 46.6667H77.7778V54.4444H70V46.6667Z" fill="white"/>
<path d="M54.4444 46.6667H62.2222V54.4444H54.4444V46.6667Z" fill="white"/>
<path d="M38.8889 46.6667H46.6667V54.4444H38.8889V46.6667Z" fill="white"/>
<path d="M23.3333 46.6667H31.1111V54.4444H23.3333V46.6667Z" fill="white"/>
<path d="M31.1111 46.6667H38.8889V54.4444H31.1111V46.6667Z" fill="white"/>
<path d="M46.6667 46.6667H54.4444V54.4444H46.6667V46.6667Z" fill="white"/>
<path d="M62.2222 46.6667H70V54.4444H62.2222V46.6667Z" fill="white"/>
<path d="M85.5555 54.4444H93.3333V62.2222H85.5555V54.4444Z" fill="white"/>
<path d="M77.7778 54.4444H85.5555V62.2222H77.7778V54.4444Z" fill="white"/>
<path d="M70 54.4444H77.7778V62.2222H70V54.4444Z" fill="white"/>
<path d="M62.2222 54.4444H70V62.2222H62.2222V54.4444Z" fill="white"/>
<path d="M54.4444 54.4444H62.2222V62.2222H54.4444V54.4444Z" fill="white"/>
<path d="M46.6667 54.4444H54.4444V62.2222H46.6667V54.4444Z" fill="white"/>
<path d="M38.8889 54.4444H46.6667V62.2222H38.8889V54.4444Z" fill="white"/>
<path d="M31.1111 54.4444H38.8889V62.2222H31.1111V54.4444Z" fill="white"/>
<path d="M7.77778 38.8889H15.5556V46.6667H7.77778V38.8889Z" fill="white"/>
<path d="M15.5556 38.8889H23.3333V46.6667H15.5556V38.8889Z" fill="white"/>
<path d="M23.3333 38.8889H31.1111V46.6667H23.3333V38.8889Z" fill="white"/>
<path d="M38.8889 38.8889H46.6667V46.6667H38.8889V38.8889Z" fill="white"/>
<path d="M46.6667 38.8889H54.4444V46.6667H46.6667V38.8889Z" fill="white"/>
<path d="M54.4444 38.8889H62.2222V46.6667H54.4444V38.8889Z" fill="white"/>
<path d="M62.2222 38.8889H70V46.6667H62.2222V38.8889Z" fill="white"/>
<path d="M70 38.8889H77.7778V46.6667H70V38.8889Z" fill="white"/>
<path d="M77.7778 38.8889H85.5555V46.6667H77.7778V38.8889Z" fill="white"/>
<path d="M85.5555 31.1111H93.3333V38.8889H85.5555V31.1111Z" fill="white"/>
<path d="M77.7778 31.1111H85.5555V38.8889H77.7778V31.1111Z" fill="white"/>
<path d="M70 31.1111H77.7778V38.8889H70V31.1111Z" fill="white"/>
<path d="M62.2222 31.1111H70V38.8889H62.2222V31.1111Z" fill="white"/>
<path d="M54.4444 31.1111H62.2222V38.8889H54.4444V31.1111Z" fill="white"/>
<path d="M46.6667 31.1111H54.4444V38.8889H46.6667V31.1111Z" fill="white"/>
<path d="M31.1111 31.1111H38.8889V38.8889H31.1111V31.1111Z" fill="white"/>
<path d="M23.3333 31.1111H31.1111V38.8889H23.3333V31.1111Z" fill="white"/>
<path d="M15.5556 31.1111H23.3333V38.8889H15.5556V31.1111Z" fill="white"/>
<path d="M31.1111 23.3333H38.8889V31.1111H31.1111V23.3333Z" fill="white"/>
<path d="M38.8889 23.3333H46.6667V31.1111H38.8889V23.3333Z" fill="white"/>
<path d="M46.6667 23.3333H54.4444V31.1111H46.6667V23.3333Z" fill="white"/>
<path d="M54.4444 23.3333H62.2222V31.1111H54.4444V23.3333Z" fill="white"/>
<path d="M62.2222 23.3333H70V31.1111H62.2222V23.3333Z" fill="white"/>
<path d="M70 23.3333H77.7778V31.1111H70V23.3333Z" fill="white"/>
<path d="M77.7778 23.3333H85.5555V31.1111H77.7778V23.3333Z" fill="white"/>
<path d="M85.5555 23.3333H93.3333V31.1111H85.5555V23.3333Z" fill="white"/>
<path d="M70 15.5556H77.7778V23.3333H70V15.5556Z" fill="white"/>
<path d="M62.2222 15.5556H70V23.3333H62.2222V15.5556Z" fill="white"/>
<path d="M54.4444 15.5556H62.2222V23.3333H54.4444V15.5556Z" fill="white"/>
<path d="M46.6667 15.5556H54.4444V23.3333H46.6667V15.5556Z" fill="white"/>
<path d="M62.2222 7.77778H70V15.5556H62.2222V7.77778Z" fill="white"/>
<path d="M31.1111 62.2222H23.3333V70H31.1111V62.2222Z" fill="#3080CB"/>
<path d="M38.8889 62.2222H31.1111V70H38.8889V62.2222Z" fill="#3080CB"/>
<path d="M46.6667 62.2222H38.8889V70H46.6667V62.2222Z" fill="#3080CB"/>
<path d="M54.4444 62.2222H46.6667V70H54.4444V62.2222Z" fill="#3080CB"/>
<path d="M62.2222 70V62.2222H54.4444V70H62.2222Z" fill="#3080CB"/>
<path d="M70 62.2222H62.2222V70H70V62.2222Z" fill="#3080CB"/>
<path d="M70 62.2222V70H77.7778V62.2222H70Z" fill="#3080CB"/>
<path d="M77.7778 62.2222V70H85.5555V62.2222H77.7778Z" fill="#3080CB"/>
<path d="M85.5555 62.2222V70H93.3333V62.2222H85.5555Z" fill="#3080CB"/>
<path d="M93.3333 62.2222V70H101.111V62.2222H93.3333Z" fill="#3080CB"/>
<path d="M101.111 62.2222V70H108.889V62.2222H101.111Z" fill="#3080CB"/>
<path d="M116.667 54.4444H108.889V62.2222H116.667V54.4444Z" fill="#3080CB"/>
<path d="M116.667 46.6667V54.4444H124.444V46.6667H116.667Z" fill="#3080CB"/>
<path d="M116.667 38.8889V46.6667H124.444V38.8889H116.667Z" fill="#3080CB"/>
<path d="M108.889 38.8889H116.667V31.1111H108.889V38.8889Z" fill="#3080CB"/>
<path d="M101.111 38.8889H108.889V31.1111H101.111V38.8889Z" fill="#3080CB"/>
<path d="M93.3333 23.3333V31.1111H101.111V23.3333H93.3333Z" fill="#3080CB"/>
<path d="M85.5555 23.3333H93.3333V15.5556H85.5555V23.3333Z" fill="#3080CB"/>
<path d="M85.5555 7.77778H77.7778V15.5556H85.5555V7.77778Z" fill="#3080CB"/>
<path d="M77.7778 0H70V7.77778H77.7778V0Z" fill="#3080CB"/>
<path d="M62.2222 7.77778H70V0H62.2222V7.77778Z" fill="#3080CB"/>
<path d="M62.2222 7.77778V0H54.4444V7.77778H62.2222Z" fill="#3080CB"/>
<path d="M46.6667 15.5556H54.4444V7.77778H46.6667V15.5556Z" fill="#3080CB"/>
<path d="M38.8889 23.3333H46.6667V15.5556H38.8889V23.3333Z" fill="#3080CB"/>
<path d="M31.1111 23.3333H38.8889V15.5556H31.1111V23.3333Z" fill="#3080CB"/>
<path d="M23.3333 31.1111H31.1111V23.3333H23.3333V31.1111Z" fill="#3080CB"/>
<path d="M15.5556 31.1111H23.3333V23.3333H15.5556V31.1111Z" fill="#3080CB"/>
<path d="M7.77778 38.8889H15.5556V31.1111H7.77778V38.8889Z" fill="#3080CB"/>
<path d="M7.77778 46.6667V38.8889H0V46.6667H7.77778Z" fill="#3080CB"/>
<path d="M7.77778 46.6667H0V54.4444H7.77778V46.6667Z" fill="#3080CB"/>
<path d="M15.5556 62.2222V54.4444H7.77778V62.2222H15.5556Z" fill="#3080CB"/>
<path d="M23.3333 62.2222V54.4444H15.5556V62.2222H23.3333Z" fill="#3080CB"/>
<path d="M101.111 54.4444V62.2222H108.889V54.4444H101.111Z" fill="#A5D4FF"/>
<path d="M85.5555 54.4444V46.6667H77.7778V54.4444H85.5555Z" fill="#A5D4FF"/>
<path d="M93.3333 46.6667V38.8889H85.5555V46.6667H93.3333Z" fill="#A5D4FF"/>
<path d="M93.3333 38.8889H101.111V31.1111H93.3333V38.8889Z" fill="#A5D4FF"/>
<path d="M77.7778 23.3333H85.5555V15.5556H77.7778V23.3333Z" fill="#A5D4FF"/>
<path d="M70 15.5556H77.7778V7.77778H70V15.5556Z" fill="#A5D4FF"/>
<path d="M54.4444 15.5556H62.2222V7.77778H54.4444V15.5556Z" fill="#A5D4FF"/>
<path d="M38.8889 38.8889H46.6667V31.1111H38.8889V38.8889Z" fill="#A5D4FF"/>
<path d="M31.1111 46.6667H38.8889V38.8889H31.1111V46.6667Z" fill="#A5D4FF"/>
<path d="M31.1111 54.4444H23.3333V62.2222H31.1111V54.4444Z" fill="#A5D4FF"/>
<path d="M23.3333 54.4444V46.6667H15.5556V54.4444H23.3333Z" fill="#A5D4FF"/>
<path d="M15.5556 46.6667H7.77778V54.4444H15.5556V46.6667Z" fill="#A5D4FF"/>
<path d="M93.3333 62.2222H101.111V54.4444H93.3333V62.2222Z" fill="white"/>
</g>
</svg>
