<svg width="430" height="932" viewBox="0 0 430 932" fill="none" xmlns="http://www.w3.org/2000/svg">
<g clip-path="url(#clip0_166_55)">
<rect width="430" height="932" fill="white"/>
<g opacity="0.6">
<path d="M56.2858 175.143H60.4763V179.333H56.2858V175.143Z" fill="white"/>
<path d="M56.2858 170.952H60.4763V175.143H56.2858V170.952Z" fill="white"/>
<path d="M60.4763 170.952H64.6668V175.143H60.4763V170.952Z" fill="white"/>
<path d="M64.6668 170.952H68.8573V175.143H64.6668V170.952Z" fill="white"/>
<path d="M64.6668 175.143H68.8573V179.333H64.6668V175.143Z" fill="white"/>
<path d="M60.4763 175.143H64.6668V179.333H60.4763V175.143Z" fill="white"/>
<path d="M52.0953 175.143H56.2858V179.333H52.0953V175.143Z" fill="white"/>
<path d="M43.7144 175.143H47.9048V179.333H43.7144V175.143Z" fill="white"/>
<path d="M35.3334 175.143H39.5239V179.333H35.3334V175.143Z" fill="white"/>
<path d="M26.9524 175.143H31.1429V179.333H26.9524V175.143Z" fill="white"/>
<path d="M18.5715 175.143H22.7619V179.333H18.5715V175.143Z" fill="white"/>
<path d="M22.7619 175.143H26.9524V179.333H22.7619V175.143Z" fill="white"/>
<path d="M31.1429 175.143H35.3334V179.333H31.1429V175.143Z" fill="white"/>
<path d="M39.5239 175.143H43.7144V179.333H39.5239V175.143Z" fill="white"/>
<path d="M52.0953 179.333H56.2858V183.524H52.0953V179.333Z" fill="white"/>
<path d="M47.9048 179.333H52.0953V183.524H47.9048V179.333Z" fill="white"/>
<path d="M43.7144 179.333H47.9048V183.524H43.7144V179.333Z" fill="white"/>
<path d="M39.5239 179.333H43.7144V183.524H39.5239V179.333Z" fill="white"/>
<path d="M35.3334 179.333H39.5239V183.524H35.3334V179.333Z" fill="white"/>
<path d="M31.1429 179.333H35.3334V183.524H31.1429V179.333Z" fill="white"/>
<path d="M26.9524 179.333H31.1429V183.524H26.9524V179.333Z" fill="white"/>
<path d="M22.7619 179.333H26.9524V183.524H22.7619V179.333Z" fill="white"/>
<path d="M10.1905 170.952H14.381V175.143H10.1905V170.952Z" fill="white"/>
<path d="M14.381 170.952H18.5715V175.143H14.381V170.952Z" fill="white"/>
<path d="M18.5715 170.952H22.7619V175.143H18.5715V170.952Z" fill="white"/>
<path d="M26.9524 170.952H31.1429V175.143H26.9524V170.952Z" fill="white"/>
<path d="M31.1429 170.952H35.3334V175.143H31.1429V170.952Z" fill="white"/>
<path d="M35.3334 170.952H39.5239V175.143H35.3334V170.952Z" fill="white"/>
<path d="M39.5239 170.952H43.7144V175.143H39.5239V170.952Z" fill="white"/>
<path d="M43.7144 170.952H47.9048V175.143H43.7144V170.952Z" fill="white"/>
<path d="M47.9048 170.952H52.0953V175.143H47.9048V170.952Z" fill="white"/>
<path d="M52.0953 166.762H56.2858V170.952H52.0953V166.762Z" fill="white"/>
<path d="M47.9048 166.762H52.0953V170.952H47.9048V166.762Z" fill="white"/>
<path d="M43.7144 166.762H47.9048V170.952H43.7144V166.762Z" fill="white"/>
<path d="M39.5239 166.762H43.7144V170.952H39.5239V166.762Z" fill="white"/>
<path d="M35.3334 166.762H39.5239V170.952H35.3334V166.762Z" fill="white"/>
<path d="M31.1429 166.762H35.3334V170.952H31.1429V166.762Z" fill="white"/>
<path d="M22.7619 166.762H26.9524V170.952H22.7619V166.762Z" fill="white"/>
<path d="M18.5715 166.762H22.7619V170.952H18.5715V166.762Z" fill="white"/>
<path d="M14.381 166.762H18.5715V170.952H14.381V166.762Z" fill="white"/>
<path d="M22.7619 162.571H26.9524V166.762H22.7619V162.571Z" fill="white"/>
<path d="M26.9524 162.571H31.1429V166.762H26.9524V162.571Z" fill="white"/>
<path d="M31.1429 162.571H35.3334V166.762H31.1429V162.571Z" fill="white"/>
<path d="M35.3334 162.571H39.5239V166.762H35.3334V162.571Z" fill="white"/>
<path d="M39.5239 162.571H43.7144V166.762H39.5239V162.571Z" fill="white"/>
<path d="M43.7144 162.571H47.9048V166.762H43.7144V162.571Z" fill="white"/>
<path d="M47.9048 162.571H52.0953V166.762H47.9048V162.571Z" fill="white"/>
<path d="M52.0953 162.571H56.2858V166.762H52.0953V162.571Z" fill="white"/>
<path d="M43.7144 158.381H47.9048V162.571H43.7144V158.381Z" fill="white"/>
<path d="M39.5239 158.381H43.7144V162.571H39.5239V158.381Z" fill="white"/>
<path d="M35.3334 158.381H39.5239V162.571H35.3334V158.381Z" fill="white"/>
<path d="M31.1429 158.381H35.3334V162.571H31.1429V158.381Z" fill="white"/>
<path d="M39.5239 154.19H43.7144V158.381H39.5239V154.19Z" fill="white"/>
<path d="M22.7619 183.524H18.5715V187.714H22.7619V183.524Z" fill="#3080CB"/>
<path d="M26.9524 183.524H22.7619V187.714H26.9524V183.524Z" fill="#3080CB"/>
<path d="M31.1429 183.524H26.9524V187.714H31.1429V183.524Z" fill="#3080CB"/>
<path d="M35.3334 183.524H31.1429V187.714H35.3334V183.524Z" fill="#3080CB"/>
<path d="M39.5239 187.714V183.524H35.3334V187.714H39.5239Z" fill="#3080CB"/>
<path d="M43.7144 183.524H39.5239V187.714H43.7144V183.524Z" fill="#3080CB"/>
<path d="M43.7144 183.524V187.714H47.9048V183.524H43.7144Z" fill="#3080CB"/>
<path d="M47.9048 183.524V187.714H52.0953V183.524H47.9048Z" fill="#3080CB"/>
<path d="M52.0953 183.524V187.714H56.2858V183.524H52.0953Z" fill="#3080CB"/>
<path d="M56.2858 183.524V187.714H60.4763V183.524H56.2858Z" fill="#3080CB"/>
<path d="M60.4763 183.524V187.714H64.6668V183.524H60.4763Z" fill="#3080CB"/>
<path d="M68.8573 179.333H64.6668V183.524H68.8573V179.333Z" fill="#3080CB"/>
<path d="M68.8573 175.143V179.333H73.0477V175.143H68.8573Z" fill="#3080CB"/>
<path d="M68.8573 170.952V175.143H73.0477V170.952H68.8573Z" fill="#3080CB"/>
<path d="M64.6668 170.952H68.8573V166.762H64.6668V170.952Z" fill="#3080CB"/>
<path d="M60.4763 170.952H64.6668V166.762H60.4763V170.952Z" fill="#3080CB"/>
<path d="M56.2858 162.571V166.762H60.4763V162.571H56.2858Z" fill="#3080CB"/>
<path d="M52.0953 162.571H56.2858V158.381H52.0953V162.571Z" fill="#3080CB"/>
<path d="M52.0953 154.19H47.9048V158.381H52.0953V154.19Z" fill="#3080CB"/>
<path d="M47.9048 150H43.7144V154.19H47.9048V150Z" fill="#3080CB"/>
<path d="M39.5239 154.19H43.7144V150H39.5239V154.19Z" fill="#3080CB"/>
<path d="M39.5239 154.19V150H35.3334V154.19H39.5239Z" fill="#3080CB"/>
<path d="M31.1429 158.381H35.3334V154.19H31.1429V158.381Z" fill="#3080CB"/>
<path d="M26.9524 162.571H31.1429V158.381H26.9524V162.571Z" fill="#3080CB"/>
<path d="M22.7619 162.571H26.9524V158.381H22.7619V162.571Z" fill="#3080CB"/>
<path d="M18.5715 166.762H22.7619V162.571H18.5715V166.762Z" fill="#3080CB"/>
<path d="M14.381 166.762H18.5715V162.571H14.381V166.762Z" fill="#3080CB"/>
<path d="M10.1905 170.952H14.381V166.762H10.1905V170.952Z" fill="#3080CB"/>
<path d="M10.1905 175.143V170.952H6V175.143H10.1905Z" fill="#3080CB"/>
<path d="M10.1905 175.143H6V179.333H10.1905V175.143Z" fill="#3080CB"/>
<path d="M14.381 183.524V179.333H10.1905V183.524H14.381Z" fill="#3080CB"/>
<path d="M18.5715 183.524V179.333H14.381V183.524H18.5715Z" fill="#3080CB"/>
<path d="M60.4763 179.333V183.524H64.6668V179.333H60.4763Z" fill="#A5D4FF"/>
<path d="M52.0953 179.333V175.143H47.9048V179.333H52.0953Z" fill="#A5D4FF"/>
<path d="M56.2858 175.143V170.952H52.0953V175.143H56.2858Z" fill="#A5D4FF"/>
<path d="M56.2858 170.952H60.4763V166.762H56.2858V170.952Z" fill="#A5D4FF"/>
<path d="M47.9048 162.571H52.0953V158.381H47.9048V162.571Z" fill="#A5D4FF"/>
<path d="M43.7144 158.381H47.9048V154.19H43.7144V158.381Z" fill="#A5D4FF"/>
<path d="M35.3334 158.381H39.5239V154.19H35.3334V158.381Z" fill="#A5D4FF"/>
<path d="M26.9524 170.952H31.1429V166.762H26.9524V170.952Z" fill="#A5D4FF"/>
<path d="M22.7619 175.143H26.9524V170.952H22.7619V175.143Z" fill="#A5D4FF"/>
<path d="M22.7619 179.333H18.5715V183.524H22.7619V179.333Z" fill="#A5D4FF"/>
<path d="M18.5715 179.333V175.143H14.381V179.333H18.5715Z" fill="#A5D4FF"/>
<path d="M14.381 175.143H10.1905V179.333H14.381V175.143Z" fill="#A5D4FF"/>
<path d="M56.2858 183.524H60.4763V179.333H56.2858V183.524Z" fill="white"/>
</g>
<g opacity="0.6">
<path d="M34.2858 476.143H38.4763V480.333H34.2858V476.143Z" fill="white"/>
<path d="M34.2858 471.952H38.4763V476.143H34.2858V471.952Z" fill="white"/>
<path d="M38.4763 471.952H42.6668V476.143H38.4763V471.952Z" fill="white"/>
<path d="M42.6668 471.952H46.8573V476.143H42.6668V471.952Z" fill="white"/>
<path d="M42.6668 476.143H46.8573V480.333H42.6668V476.143Z" fill="white"/>
<path d="M38.4763 476.143H42.6668V480.333H38.4763V476.143Z" fill="white"/>
<path d="M30.0953 476.143H34.2858V480.333H30.0953V476.143Z" fill="white"/>
<path d="M21.7144 476.143H25.9048V480.333H21.7144V476.143Z" fill="white"/>
<path d="M13.3334 476.143H17.5239V480.333H13.3334V476.143Z" fill="white"/>
<path d="M4.95242 476.143H9.1429V480.333H4.95242V476.143Z" fill="white"/>
<path d="M-3.42855 476.143H0.761934V480.333H-3.42855V476.143Z" fill="white"/>
<path d="M0.761934 476.143H4.95242V480.333H0.761934V476.143Z" fill="white"/>
<path d="M9.1429 476.143H13.3334V480.333H9.1429V476.143Z" fill="white"/>
<path d="M17.5239 476.143H21.7144V480.333H17.5239V476.143Z" fill="white"/>
<path d="M30.0953 480.333H34.2858V484.524H30.0953V480.333Z" fill="white"/>
<path d="M25.9048 480.333H30.0953V484.524H25.9048V480.333Z" fill="white"/>
<path d="M21.7144 480.333H25.9048V484.524H21.7144V480.333Z" fill="white"/>
<path d="M17.5239 480.333H21.7144V484.524H17.5239V480.333Z" fill="white"/>
<path d="M13.3334 480.333H17.5239V484.524H13.3334V480.333Z" fill="white"/>
<path d="M9.1429 480.333H13.3334V484.524H9.1429V480.333Z" fill="white"/>
<path d="M4.95242 480.333H9.1429V484.524H4.95242V480.333Z" fill="white"/>
<path d="M0.761934 480.333H4.95242V484.524H0.761934V480.333Z" fill="white"/>
<path d="M-11.8095 471.952H-7.61903V476.143H-11.8095V471.952Z" fill="white"/>
<path d="M-7.61903 471.952H-3.42855V476.143H-7.61903V471.952Z" fill="white"/>
<path d="M-3.42855 471.952H0.761934V476.143H-3.42855V471.952Z" fill="white"/>
<path d="M4.95242 471.952H9.1429V476.143H4.95242V471.952Z" fill="white"/>
<path d="M9.1429 471.952H13.3334V476.143H9.1429V471.952Z" fill="white"/>
<path d="M13.3334 471.952H17.5239V476.143H13.3334V471.952Z" fill="white"/>
<path d="M17.5239 471.952H21.7144V476.143H17.5239V471.952Z" fill="white"/>
<path d="M21.7144 471.952H25.9048V476.143H21.7144V471.952Z" fill="white"/>
<path d="M25.9048 471.952H30.0953V476.143H25.9048V471.952Z" fill="white"/>
<path d="M30.0953 467.762H34.2858V471.952H30.0953V467.762Z" fill="white"/>
<path d="M25.9048 467.762H30.0953V471.952H25.9048V467.762Z" fill="white"/>
<path d="M21.7144 467.762H25.9048V471.952H21.7144V467.762Z" fill="white"/>
<path d="M17.5239 467.762H21.7144V471.952H17.5239V467.762Z" fill="white"/>
<path d="M13.3334 467.762H17.5239V471.952H13.3334V467.762Z" fill="white"/>
<path d="M9.1429 467.762H13.3334V471.952H9.1429V467.762Z" fill="white"/>
<path d="M0.761934 467.762H4.95242V471.952H0.761934V467.762Z" fill="white"/>
<path d="M-3.42855 467.762H0.761934V471.952H-3.42855V467.762Z" fill="white"/>
<path d="M-7.61903 467.762H-3.42855V471.952H-7.61903V467.762Z" fill="white"/>
<path d="M0.761934 463.571H4.95242V467.762H0.761934V463.571Z" fill="white"/>
<path d="M4.95242 463.571H9.1429V467.762H4.95242V463.571Z" fill="white"/>
<path d="M9.1429 463.571H13.3334V467.762H9.1429V463.571Z" fill="white"/>
<path d="M13.3334 463.571H17.5239V467.762H13.3334V463.571Z" fill="white"/>
<path d="M17.5239 463.571H21.7144V467.762H17.5239V463.571Z" fill="white"/>
<path d="M21.7144 463.571H25.9048V467.762H21.7144V463.571Z" fill="white"/>
<path d="M25.9048 463.571H30.0953V467.762H25.9048V463.571Z" fill="white"/>
<path d="M30.0953 463.571H34.2858V467.762H30.0953V463.571Z" fill="white"/>
<path d="M21.7144 459.381H25.9048V463.571H21.7144V459.381Z" fill="white"/>
<path d="M17.5239 459.381H21.7144V463.571H17.5239V459.381Z" fill="white"/>
<path d="M13.3334 459.381H17.5239V463.571H13.3334V459.381Z" fill="white"/>
<path d="M9.1429 459.381H13.3334V463.571H9.1429V459.381Z" fill="white"/>
<path d="M17.5239 455.19H21.7144V459.381H17.5239V455.19Z" fill="white"/>
<path d="M0.761934 484.524H-3.42855V488.714H0.761934V484.524Z" fill="#3080CB"/>
<path d="M4.95242 484.524H0.761934V488.714H4.95242V484.524Z" fill="#3080CB"/>
<path d="M9.1429 484.524H4.95242V488.714H9.1429V484.524Z" fill="#3080CB"/>
<path d="M13.3334 484.524H9.1429V488.714H13.3334V484.524Z" fill="#3080CB"/>
<path d="M17.5239 488.714V484.524H13.3334V488.714H17.5239Z" fill="#3080CB"/>
<path d="M21.7144 484.524H17.5239V488.714H21.7144V484.524Z" fill="#3080CB"/>
<path d="M21.7144 484.524V488.714H25.9048V484.524H21.7144Z" fill="#3080CB"/>
<path d="M25.9048 484.524V488.714H30.0953V484.524H25.9048Z" fill="#3080CB"/>
<path d="M30.0953 484.524V488.714H34.2858V484.524H30.0953Z" fill="#3080CB"/>
<path d="M34.2858 484.524V488.714H38.4763V484.524H34.2858Z" fill="#3080CB"/>
<path d="M38.4763 484.524V488.714H42.6668V484.524H38.4763Z" fill="#3080CB"/>
<path d="M46.8573 480.333H42.6668V484.524H46.8573V480.333Z" fill="#3080CB"/>
<path d="M46.8573 476.143V480.333H51.0477V476.143H46.8573Z" fill="#3080CB"/>
<path d="M46.8573 471.952V476.143H51.0477V471.952H46.8573Z" fill="#3080CB"/>
<path d="M42.6668 471.952H46.8573V467.762H42.6668V471.952Z" fill="#3080CB"/>
<path d="M38.4763 471.952H42.6668V467.762H38.4763V471.952Z" fill="#3080CB"/>
<path d="M34.2858 463.571V467.762H38.4763V463.571H34.2858Z" fill="#3080CB"/>
<path d="M30.0953 463.571H34.2858V459.381H30.0953V463.571Z" fill="#3080CB"/>
<path d="M30.0953 455.19H25.9048V459.381H30.0953V455.19Z" fill="#3080CB"/>
<path d="M25.9048 451H21.7144V455.19H25.9048V451Z" fill="#3080CB"/>
<path d="M17.5239 455.19H21.7144V451H17.5239V455.19Z" fill="#3080CB"/>
<path d="M17.5239 455.19V451H13.3334V455.19H17.5239Z" fill="#3080CB"/>
<path d="M9.1429 459.381H13.3334V455.19H9.1429V459.381Z" fill="#3080CB"/>
<path d="M4.95242 463.571H9.1429V459.381H4.95242V463.571Z" fill="#3080CB"/>
<path d="M0.761934 463.571H4.95242V459.381H0.761934V463.571Z" fill="#3080CB"/>
<path d="M-3.42855 467.762H0.761934V463.571H-3.42855V467.762Z" fill="#3080CB"/>
<path d="M-7.61903 467.762H-3.42855V463.571H-7.61903V467.762Z" fill="#3080CB"/>
<path d="M-11.8095 471.952H-7.61903V467.762H-11.8095V471.952Z" fill="#3080CB"/>
<path d="M-11.8095 476.143V471.952H-16V476.143H-11.8095Z" fill="#3080CB"/>
<path d="M-11.8095 476.143H-16V480.333H-11.8095V476.143Z" fill="#3080CB"/>
<path d="M-7.61903 484.524V480.333H-11.8095V484.524H-7.61903Z" fill="#3080CB"/>
<path d="M-3.42855 484.524V480.333H-7.61903V484.524H-3.42855Z" fill="#3080CB"/>
<path d="M38.4763 480.333V484.524H42.6668V480.333H38.4763Z" fill="#A5D4FF"/>
<path d="M30.0953 480.333V476.143H25.9048V480.333H30.0953Z" fill="#A5D4FF"/>
<path d="M34.2858 476.143V471.952H30.0953V476.143H34.2858Z" fill="#A5D4FF"/>
<path d="M34.2858 471.952H38.4763V467.762H34.2858V471.952Z" fill="#A5D4FF"/>
<path d="M25.9048 463.571H30.0953V459.381H25.9048V463.571Z" fill="#A5D4FF"/>
<path d="M21.7144 459.381H25.9048V455.19H21.7144V459.381Z" fill="#A5D4FF"/>
<path d="M13.3334 459.381H17.5239V455.19H13.3334V459.381Z" fill="#A5D4FF"/>
<path d="M4.95242 471.952H9.1429V467.762H4.95242V471.952Z" fill="#A5D4FF"/>
<path d="M0.761934 476.143H4.95242V471.952H0.761934V476.143Z" fill="#A5D4FF"/>
<path d="M0.761934 480.333H-3.42855V484.524H0.761934V480.333Z" fill="#A5D4FF"/>
<path d="M-3.42855 480.333V476.143H-7.61903V480.333H-3.42855Z" fill="#A5D4FF"/>
<path d="M-7.61903 476.143H-11.8095V480.333H-7.61903V476.143Z" fill="#A5D4FF"/>
<path d="M34.2858 484.524H38.4763V480.333H34.2858V484.524Z" fill="white"/>
</g>
<g opacity="0.6">
<path d="M427.333 286.667H435.111V294.444H427.333V286.667Z" fill="white"/>
<path d="M427.333 278.889H435.111V286.667H427.333V278.889Z" fill="white"/>
<path d="M435.111 278.889H442.889V286.667H435.111V278.889Z" fill="white"/>
<path d="M442.889 278.889H450.667V286.667H442.889V278.889Z" fill="white"/>
<path d="M442.889 286.667H450.667V294.444H442.889V286.667Z" fill="white"/>
<path d="M435.111 286.667H442.889V294.444H435.111V286.667Z" fill="white"/>
<path d="M419.556 286.667H427.333V294.444H419.556V286.667Z" fill="white"/>
<path d="M404 286.667H411.778V294.444H404V286.667Z" fill="white"/>
<path d="M388.444 286.667H396.222V294.444H388.444V286.667Z" fill="white"/>
<path d="M372.889 286.667H380.667V294.444H372.889V286.667Z" fill="white"/>
<path d="M357.333 286.667H365.111V294.444H357.333V286.667Z" fill="white"/>
<path d="M365.111 286.667H372.889V294.444H365.111V286.667Z" fill="white"/>
<path d="M380.667 286.667H388.444V294.444H380.667V286.667Z" fill="white"/>
<path d="M396.222 286.667H404V294.444H396.222V286.667Z" fill="white"/>
<path d="M419.556 294.444H427.333V302.222H419.556V294.444Z" fill="white"/>
<path d="M411.778 294.444H419.556V302.222H411.778V294.444Z" fill="white"/>
<path d="M404 294.444H411.778V302.222H404V294.444Z" fill="white"/>
<path d="M396.222 294.444H404V302.222H396.222V294.444Z" fill="white"/>
<path d="M388.444 294.444H396.222V302.222H388.444V294.444Z" fill="white"/>
<path d="M380.667 294.444H388.444V302.222H380.667V294.444Z" fill="white"/>
<path d="M372.889 294.444H380.667V302.222H372.889V294.444Z" fill="white"/>
<path d="M365.111 294.444H372.889V302.222H365.111V294.444Z" fill="white"/>
<path d="M341.778 278.889H349.556V286.667H341.778V278.889Z" fill="white"/>
<path d="M349.556 278.889H357.333V286.667H349.556V278.889Z" fill="white"/>
<path d="M357.333 278.889H365.111V286.667H357.333V278.889Z" fill="white"/>
<path d="M372.889 278.889H380.667V286.667H372.889V278.889Z" fill="white"/>
<path d="M380.667 278.889H388.444V286.667H380.667V278.889Z" fill="white"/>
<path d="M388.444 278.889H396.222V286.667H388.444V278.889Z" fill="white"/>
<path d="M396.222 278.889H404V286.667H396.222V278.889Z" fill="white"/>
<path d="M404 278.889H411.778V286.667H404V278.889Z" fill="white"/>
<path d="M411.778 278.889H419.556V286.667H411.778V278.889Z" fill="white"/>
<path d="M419.556 271.111H427.333V278.889H419.556V271.111Z" fill="white"/>
<path d="M411.778 271.111H419.556V278.889H411.778V271.111Z" fill="white"/>
<path d="M404 271.111H411.778V278.889H404V271.111Z" fill="white"/>
<path d="M396.222 271.111H404V278.889H396.222V271.111Z" fill="white"/>
<path d="M388.444 271.111H396.222V278.889H388.444V271.111Z" fill="white"/>
<path d="M380.667 271.111H388.444V278.889H380.667V271.111Z" fill="white"/>
<path d="M365.111 271.111H372.889V278.889H365.111V271.111Z" fill="white"/>
<path d="M357.333 271.111H365.111V278.889H357.333V271.111Z" fill="white"/>
<path d="M349.556 271.111H357.333V278.889H349.556V271.111Z" fill="white"/>
<path d="M365.111 263.333H372.889V271.111H365.111V263.333Z" fill="white"/>
<path d="M372.889 263.333H380.667V271.111H372.889V263.333Z" fill="white"/>
<path d="M380.667 263.333H388.444V271.111H380.667V263.333Z" fill="white"/>
<path d="M388.444 263.333H396.222V271.111H388.444V263.333Z" fill="white"/>
<path d="M396.222 263.333H404V271.111H396.222V263.333Z" fill="white"/>
<path d="M404 263.333H411.778V271.111H404V263.333Z" fill="white"/>
<path d="M411.778 263.333H419.556V271.111H411.778V263.333Z" fill="white"/>
<path d="M419.556 263.333H427.333V271.111H419.556V263.333Z" fill="white"/>
<path d="M404 255.556H411.778V263.333H404V255.556Z" fill="white"/>
<path d="M396.222 255.556H404V263.333H396.222V255.556Z" fill="white"/>
<path d="M388.444 255.556H396.222V263.333H388.444V255.556Z" fill="white"/>
<path d="M380.667 255.556H388.444V263.333H380.667V255.556Z" fill="white"/>
<path d="M396.222 247.778H404V255.556H396.222V247.778Z" fill="white"/>
<path d="M365.111 302.222H357.333V310H365.111V302.222Z" fill="#3080CB"/>
<path d="M372.889 302.222H365.111V310H372.889V302.222Z" fill="#3080CB"/>
<path d="M380.667 302.222H372.889V310H380.667V302.222Z" fill="#3080CB"/>
<path d="M388.444 302.222H380.667V310H388.444V302.222Z" fill="#3080CB"/>
<path d="M396.222 310V302.222H388.444V310H396.222Z" fill="#3080CB"/>
<path d="M404 302.222H396.222V310H404V302.222Z" fill="#3080CB"/>
<path d="M404 302.222V310H411.778V302.222H404Z" fill="#3080CB"/>
<path d="M411.778 302.222V310H419.556V302.222H411.778Z" fill="#3080CB"/>
<path d="M419.556 302.222V310H427.333V302.222H419.556Z" fill="#3080CB"/>
<path d="M427.333 302.222V310H435.111V302.222H427.333Z" fill="#3080CB"/>
<path d="M435.111 302.222V310H442.889V302.222H435.111Z" fill="#3080CB"/>
<path d="M450.667 294.444H442.889V302.222H450.667V294.444Z" fill="#3080CB"/>
<path d="M450.667 286.667V294.444H458.444V286.667H450.667Z" fill="#3080CB"/>
<path d="M450.667 278.889V286.667H458.444V278.889H450.667Z" fill="#3080CB"/>
<path d="M442.889 278.889H450.667V271.111H442.889V278.889Z" fill="#3080CB"/>
<path d="M435.111 278.889H442.889V271.111H435.111V278.889Z" fill="#3080CB"/>
<path d="M427.333 263.333V271.111H435.111V263.333H427.333Z" fill="#3080CB"/>
<path d="M419.556 263.333H427.333V255.556H419.556V263.333Z" fill="#3080CB"/>
<path d="M419.556 247.778H411.778V255.556H419.556V247.778Z" fill="#3080CB"/>
<path d="M411.778 240H404V247.778H411.778V240Z" fill="#3080CB"/>
<path d="M396.222 247.778H404V240H396.222V247.778Z" fill="#3080CB"/>
<path d="M396.222 247.778V240H388.444V247.778H396.222Z" fill="#3080CB"/>
<path d="M380.667 255.556H388.444V247.778H380.667V255.556Z" fill="#3080CB"/>
<path d="M372.889 263.333H380.667V255.556H372.889V263.333Z" fill="#3080CB"/>
<path d="M365.111 263.333H372.889V255.556H365.111V263.333Z" fill="#3080CB"/>
<path d="M357.333 271.111H365.111V263.333H357.333V271.111Z" fill="#3080CB"/>
<path d="M349.556 271.111H357.333V263.333H349.556V271.111Z" fill="#3080CB"/>
<path d="M341.778 278.889H349.556V271.111H341.778V278.889Z" fill="#3080CB"/>
<path d="M341.778 286.667V278.889H334V286.667H341.778Z" fill="#3080CB"/>
<path d="M341.778 286.667H334V294.444H341.778V286.667Z" fill="#3080CB"/>
<path d="M349.556 302.222V294.444H341.778V302.222H349.556Z" fill="#3080CB"/>
<path d="M357.333 302.222V294.444H349.556V302.222H357.333Z" fill="#3080CB"/>
<path d="M435.111 294.444V302.222H442.889V294.444H435.111Z" fill="#A5D4FF"/>
<path d="M419.556 294.444V286.667H411.778V294.444H419.556Z" fill="#A5D4FF"/>
<path d="M427.333 286.667V278.889H419.556V286.667H427.333Z" fill="#A5D4FF"/>
<path d="M427.333 278.889H435.111V271.111H427.333V278.889Z" fill="#A5D4FF"/>
<path d="M411.778 263.333H419.556V255.556H411.778V263.333Z" fill="#A5D4FF"/>
<path d="M404 255.556H411.778V247.778H404V255.556Z" fill="#A5D4FF"/>
<path d="M388.444 255.556H396.222V247.778H388.444V255.556Z" fill="#A5D4FF"/>
<path d="M372.889 278.889H380.667V271.111H372.889V278.889Z" fill="#A5D4FF"/>
<path d="M365.111 286.667H372.889V278.889H365.111V286.667Z" fill="#A5D4FF"/>
<path d="M365.111 294.444H357.333V302.222H365.111V294.444Z" fill="#A5D4FF"/>
<path d="M357.333 294.444V286.667H349.556V294.444H357.333Z" fill="#A5D4FF"/>
<path d="M349.556 286.667H341.778V294.444H349.556V286.667Z" fill="#A5D4FF"/>
<path d="M427.333 302.222H435.111V294.444H427.333V302.222Z" fill="white"/>
</g>
<g opacity="0.6">
<path d="M418.75 77.375H424.812V83.4375H418.75V77.375Z" fill="white"/>
<path d="M418.75 71.3125H424.812V77.375H418.75V71.3125Z" fill="white"/>
<path d="M424.812 71.3125H430.875V77.375H424.812V71.3125Z" fill="white"/>
<path d="M430.875 71.3125H436.938V77.375H430.875V71.3125Z" fill="white"/>
<path d="M430.875 77.375H436.938V83.4375H430.875V77.375Z" fill="white"/>
<path d="M424.812 77.375H430.875V83.4375H424.812V77.375Z" fill="white"/>
<path d="M412.688 77.375H418.75V83.4375H412.688V77.375Z" fill="white"/>
<path d="M400.562 77.375H406.625V83.4375H400.562V77.375Z" fill="white"/>
<path d="M388.438 77.375H394.5V83.4375H388.438V77.375Z" fill="white"/>
<path d="M376.312 77.375H382.375V83.4375H376.312V77.375Z" fill="white"/>
<path d="M364.188 77.375H370.25V83.4375H364.188V77.375Z" fill="white"/>
<path d="M370.25 77.375H376.312V83.4375H370.25V77.375Z" fill="white"/>
<path d="M382.375 77.375H388.438V83.4375H382.375V77.375Z" fill="white"/>
<path d="M394.5 77.375H400.562V83.4375H394.5V77.375Z" fill="white"/>
<path d="M412.688 83.4375H418.75V89.5H412.688V83.4375Z" fill="white"/>
<path d="M406.625 83.4375H412.688V89.5H406.625V83.4375Z" fill="white"/>
<path d="M400.562 83.4375H406.625V89.5H400.562V83.4375Z" fill="white"/>
<path d="M394.5 83.4375H400.562V89.5H394.5V83.4375Z" fill="white"/>
<path d="M388.438 83.4375H394.5V89.5H388.438V83.4375Z" fill="white"/>
<path d="M382.375 83.4375H388.438V89.5H382.375V83.4375Z" fill="white"/>
<path d="M376.312 83.4375H382.375V89.5H376.312V83.4375Z" fill="white"/>
<path d="M370.25 83.4375H376.312V89.5H370.25V83.4375Z" fill="white"/>
<path d="M352.062 71.3125H358.125V77.375H352.062V71.3125Z" fill="white"/>
<path d="M358.125 71.3125H364.188V77.375H358.125V71.3125Z" fill="white"/>
<path d="M364.188 71.3125H370.25V77.375H364.188V71.3125Z" fill="white"/>
<path d="M376.312 71.3125H382.375V77.375H376.312V71.3125Z" fill="white"/>
<path d="M382.375 71.3125H388.438V77.375H382.375V71.3125Z" fill="white"/>
<path d="M388.438 71.3125H394.5V77.375H388.438V71.3125Z" fill="white"/>
<path d="M394.5 71.3125H400.562V77.375H394.5V71.3125Z" fill="white"/>
<path d="M400.562 71.3125H406.625V77.375H400.562V71.3125Z" fill="white"/>
<path d="M406.625 71.3125H412.688V77.375H406.625V71.3125Z" fill="white"/>
<path d="M412.688 65.25H418.75V71.3125H412.688V65.25Z" fill="white"/>
<path d="M406.625 65.25H412.688V71.3125H406.625V65.25Z" fill="white"/>
<path d="M400.562 65.25H406.625V71.3125H400.562V65.25Z" fill="white"/>
<path d="M394.5 65.25H400.562V71.3125H394.5V65.25Z" fill="white"/>
<path d="M388.438 65.25H394.5V71.3125H388.438V65.25Z" fill="white"/>
<path d="M382.375 65.25H388.438V71.3125H382.375V65.25Z" fill="white"/>
<path d="M370.25 65.25H376.312V71.3125H370.25V65.25Z" fill="white"/>
<path d="M364.188 65.25H370.25V71.3125H364.188V65.25Z" fill="white"/>
<path d="M358.125 65.25H364.188V71.3125H358.125V65.25Z" fill="white"/>
<path d="M370.25 59.1875H376.312V65.25H370.25V59.1875Z" fill="white"/>
<path d="M376.312 59.1875H382.375V65.25H376.312V59.1875Z" fill="white"/>
<path d="M382.375 59.1875H388.438V65.25H382.375V59.1875Z" fill="white"/>
<path d="M388.438 59.1875H394.5V65.25H388.438V59.1875Z" fill="white"/>
<path d="M394.5 59.1875H400.562V65.25H394.5V59.1875Z" fill="white"/>
<path d="M400.562 59.1875H406.625V65.25H400.562V59.1875Z" fill="white"/>
<path d="M406.625 59.1875H412.688V65.25H406.625V59.1875Z" fill="white"/>
<path d="M412.688 59.1875H418.75V65.25H412.688V59.1875Z" fill="white"/>
<path d="M400.562 53.125H406.625V59.1875H400.562V53.125Z" fill="white"/>
<path d="M394.5 53.125H400.562V59.1875H394.5V53.125Z" fill="white"/>
<path d="M388.438 53.125H394.5V59.1875H388.438V53.125Z" fill="white"/>
<path d="M382.375 53.125H388.438V59.1875H382.375V53.125Z" fill="white"/>
<path d="M394.5 47.0625H400.562V53.125H394.5V47.0625Z" fill="white"/>
<path d="M370.25 89.5H364.188V95.5625H370.25V89.5Z" fill="#3080CB"/>
<path d="M376.312 89.5H370.25V95.5625H376.312V89.5Z" fill="#3080CB"/>
<path d="M382.375 89.5H376.312V95.5625H382.375V89.5Z" fill="#3080CB"/>
<path d="M388.438 89.5H382.375V95.5625H388.438V89.5Z" fill="#3080CB"/>
<path d="M394.5 95.5625V89.5H388.438V95.5625H394.5Z" fill="#3080CB"/>
<path d="M400.562 89.5H394.5V95.5625H400.562V89.5Z" fill="#3080CB"/>
<path d="M400.562 89.5V95.5625H406.625V89.5H400.562Z" fill="#3080CB"/>
<path d="M406.625 89.5V95.5625H412.688V89.5H406.625Z" fill="#3080CB"/>
<path d="M412.688 89.5V95.5625H418.75V89.5H412.688Z" fill="#3080CB"/>
<path d="M418.75 89.5V95.5625H424.812V89.5H418.75Z" fill="#3080CB"/>
<path d="M424.812 89.5V95.5625H430.875V89.5H424.812Z" fill="#3080CB"/>
<path d="M436.938 83.4375H430.875V89.5H436.938V83.4375Z" fill="#3080CB"/>
<path d="M436.938 77.375V83.4375H443V77.375H436.938Z" fill="#3080CB"/>
<path d="M436.938 71.3125V77.375H443V71.3125H436.938Z" fill="#3080CB"/>
<path d="M430.875 71.3125H436.938V65.25H430.875V71.3125Z" fill="#3080CB"/>
<path d="M424.812 71.3125H430.875V65.25H424.812V71.3125Z" fill="#3080CB"/>
<path d="M418.75 59.1875V65.25H424.812V59.1875H418.75Z" fill="#3080CB"/>
<path d="M412.688 59.1875H418.75V53.125H412.688V59.1875Z" fill="#3080CB"/>
<path d="M412.688 47.0625H406.625V53.125H412.688V47.0625Z" fill="#3080CB"/>
<path d="M406.625 41H400.562V47.0625H406.625V41Z" fill="#3080CB"/>
<path d="M394.5 47.0625H400.562V41H394.5V47.0625Z" fill="#3080CB"/>
<path d="M394.5 47.0625V41H388.438V47.0625H394.5Z" fill="#3080CB"/>
<path d="M382.375 53.125H388.438V47.0625H382.375V53.125Z" fill="#3080CB"/>
<path d="M376.312 59.1875H382.375V53.125H376.312V59.1875Z" fill="#3080CB"/>
<path d="M370.25 59.1875H376.312V53.125H370.25V59.1875Z" fill="#3080CB"/>
<path d="M364.188 65.25H370.25V59.1875H364.188V65.25Z" fill="#3080CB"/>
<path d="M358.125 65.25H364.188V59.1875H358.125V65.25Z" fill="#3080CB"/>
<path d="M352.062 71.3125H358.125V65.25H352.062V71.3125Z" fill="#3080CB"/>
<path d="M352.062 77.375V71.3125H346V77.375H352.062Z" fill="#3080CB"/>
<path d="M352.062 77.375H346V83.4375H352.062V77.375Z" fill="#3080CB"/>
<path d="M358.125 89.5V83.4375H352.062V89.5H358.125Z" fill="#3080CB"/>
<path d="M364.188 89.5V83.4375H358.125V89.5H364.188Z" fill="#3080CB"/>
<path d="M424.812 83.4375V89.5H430.875V83.4375H424.812Z" fill="#A5D4FF"/>
<path d="M412.688 83.4375V77.375H406.625V83.4375H412.688Z" fill="#A5D4FF"/>
<path d="M418.75 77.375V71.3125H412.688V77.375H418.75Z" fill="#A5D4FF"/>
<path d="M418.75 71.3125H424.812V65.25H418.75V71.3125Z" fill="#A5D4FF"/>
<path d="M406.625 59.1875H412.688V53.125H406.625V59.1875Z" fill="#A5D4FF"/>
<path d="M400.562 53.125H406.625V47.0625H400.562V53.125Z" fill="#A5D4FF"/>
<path d="M388.438 53.125H394.5V47.0625H388.438V53.125Z" fill="#A5D4FF"/>
<path d="M376.312 71.3125H382.375V65.25H376.312V71.3125Z" fill="#A5D4FF"/>
<path d="M370.25 77.375H376.312V71.3125H370.25V77.375Z" fill="#A5D4FF"/>
<path d="M370.25 83.4375H364.188V89.5H370.25V83.4375Z" fill="#A5D4FF"/>
<path d="M364.188 83.4375V77.375H358.125V83.4375H364.188Z" fill="#A5D4FF"/>
<path d="M358.125 77.375H352.062V83.4375H358.125V77.375Z" fill="#A5D4FF"/>
<path d="M418.75 89.5H424.812V83.4375H418.75V89.5Z" fill="white"/>
</g>
</g>
<defs>
<clipPath id="clip0_166_55">
<rect width="430" height="932" fill="white"/>
</clipPath>
</defs>
</svg>
