<svg width="133" height="16" viewBox="0 0 133 16" fill="none" xmlns="http://www.w3.org/2000/svg">
<path d="M0 1.9375H1.5625V0.375H9.375V1.9375H10.9375V3.5H7.8125V1.9375H3.125V6.625H9.375V8.1875H10.9375V14.4375H9.375V16H1.5625V14.4375H0V12.875H3.125V14.4375H7.8125V8.1875H1.5625V6.625H0V1.9375ZM26.5625 0.375H35.9375V1.9375H32.8125V16H29.6875V1.9375H26.5625V0.375ZM50 1.9375H51.5625V0.375H59.375V1.9375H60.9375V16H57.8125V8.1875H53.125V16H50V1.9375ZM53.125 1.9375V6.625H57.8125V1.9375H53.125ZM75 0.375H84.375V1.9375H85.9375V6.625H84.375V8.1875H85.9375V16H82.8125V8.1875H78.125V16H75V0.375ZM78.125 1.9375V6.625H82.8125V1.9375H78.125ZM101.562 0.375H110.938V1.9375H107.812V16H104.688V1.9375H101.562V0.375ZM129.688 0.375H132.812V11.3125H129.688V0.375ZM129.688 12.875H132.812V16H129.688V12.875Z" fill="#1F1F21"/>
</svg>
