<svg width="430" height="932" viewBox="0 0 430 932" fill="none" xmlns="http://www.w3.org/2000/svg">
<g clip-path="url(#clip0_173_130)">
<rect width="430" height="932" fill="white"/>
<g opacity="0.6">
<path d="M56.2858 314.143H60.4763V318.333H56.2858V314.143Z" fill="white"/>
<path d="M56.2858 309.952H60.4763V314.143H56.2858V309.952Z" fill="white"/>
<path d="M60.4763 309.952H64.6668V314.143H60.4763V309.952Z" fill="white"/>
<path d="M64.6668 309.952H68.8573V314.143H64.6668V309.952Z" fill="white"/>
<path d="M64.6668 314.143H68.8573V318.333H64.6668V314.143Z" fill="white"/>
<path d="M60.4763 314.143H64.6668V318.333H60.4763V314.143Z" fill="white"/>
<path d="M52.0953 314.143H56.2858V318.333H52.0953V314.143Z" fill="white"/>
<path d="M43.7144 314.143H47.9048V318.333H43.7144V314.143Z" fill="white"/>
<path d="M35.3334 314.143H39.5239V318.333H35.3334V314.143Z" fill="white"/>
<path d="M26.9524 314.143H31.1429V318.333H26.9524V314.143Z" fill="white"/>
<path d="M18.5715 314.143H22.7619V318.333H18.5715V314.143Z" fill="white"/>
<path d="M22.7619 314.143H26.9524V318.333H22.7619V314.143Z" fill="white"/>
<path d="M31.1429 314.143H35.3334V318.333H31.1429V314.143Z" fill="white"/>
<path d="M39.5239 314.143H43.7144V318.333H39.5239V314.143Z" fill="white"/>
<path d="M52.0953 318.333H56.2858V322.524H52.0953V318.333Z" fill="white"/>
<path d="M47.9048 318.333H52.0953V322.524H47.9048V318.333Z" fill="white"/>
<path d="M43.7144 318.333H47.9048V322.524H43.7144V318.333Z" fill="white"/>
<path d="M39.5239 318.333H43.7144V322.524H39.5239V318.333Z" fill="white"/>
<path d="M35.3334 318.333H39.5239V322.524H35.3334V318.333Z" fill="white"/>
<path d="M31.1429 318.333H35.3334V322.524H31.1429V318.333Z" fill="white"/>
<path d="M26.9524 318.333H31.1429V322.524H26.9524V318.333Z" fill="white"/>
<path d="M22.7619 318.333H26.9524V322.524H22.7619V318.333Z" fill="white"/>
<path d="M10.1905 309.952H14.381V314.143H10.1905V309.952Z" fill="white"/>
<path d="M14.381 309.952H18.5715V314.143H14.381V309.952Z" fill="white"/>
<path d="M18.5715 309.952H22.7619V314.143H18.5715V309.952Z" fill="white"/>
<path d="M26.9524 309.952H31.1429V314.143H26.9524V309.952Z" fill="white"/>
<path d="M31.1429 309.952H35.3334V314.143H31.1429V309.952Z" fill="white"/>
<path d="M35.3334 309.952H39.5239V314.143H35.3334V309.952Z" fill="white"/>
<path d="M39.5239 309.952H43.7144V314.143H39.5239V309.952Z" fill="white"/>
<path d="M43.7144 309.952H47.9048V314.143H43.7144V309.952Z" fill="white"/>
<path d="M47.9048 309.952H52.0953V314.143H47.9048V309.952Z" fill="white"/>
<path d="M52.0953 305.762H56.2858V309.952H52.0953V305.762Z" fill="white"/>
<path d="M47.9048 305.762H52.0953V309.952H47.9048V305.762Z" fill="white"/>
<path d="M43.7144 305.762H47.9048V309.952H43.7144V305.762Z" fill="white"/>
<path d="M39.5239 305.762H43.7144V309.952H39.5239V305.762Z" fill="white"/>
<path d="M35.3334 305.762H39.5239V309.952H35.3334V305.762Z" fill="white"/>
<path d="M31.1429 305.762H35.3334V309.952H31.1429V305.762Z" fill="white"/>
<path d="M22.7619 305.762H26.9524V309.952H22.7619V305.762Z" fill="white"/>
<path d="M18.5715 305.762H22.7619V309.952H18.5715V305.762Z" fill="white"/>
<path d="M14.381 305.762H18.5715V309.952H14.381V305.762Z" fill="white"/>
<path d="M22.7619 301.571H26.9524V305.762H22.7619V301.571Z" fill="white"/>
<path d="M26.9524 301.571H31.1429V305.762H26.9524V301.571Z" fill="white"/>
<path d="M31.1429 301.571H35.3334V305.762H31.1429V301.571Z" fill="white"/>
<path d="M35.3334 301.571H39.5239V305.762H35.3334V301.571Z" fill="white"/>
<path d="M39.5239 301.571H43.7144V305.762H39.5239V301.571Z" fill="white"/>
<path d="M43.7144 301.571H47.9048V305.762H43.7144V301.571Z" fill="white"/>
<path d="M47.9048 301.571H52.0953V305.762H47.9048V301.571Z" fill="white"/>
<path d="M52.0953 301.571H56.2858V305.762H52.0953V301.571Z" fill="white"/>
<path d="M43.7144 297.381H47.9048V301.571H43.7144V297.381Z" fill="white"/>
<path d="M39.5239 297.381H43.7144V301.571H39.5239V297.381Z" fill="white"/>
<path d="M35.3334 297.381H39.5239V301.571H35.3334V297.381Z" fill="white"/>
<path d="M31.1429 297.381H35.3334V301.571H31.1429V297.381Z" fill="white"/>
<path d="M39.5239 293.19H43.7144V297.381H39.5239V293.19Z" fill="white"/>
<path d="M22.7619 322.524H18.5715V326.714H22.7619V322.524Z" fill="#3080CB"/>
<path d="M26.9524 322.524H22.7619V326.714H26.9524V322.524Z" fill="#3080CB"/>
<path d="M31.1429 322.524H26.9524V326.714H31.1429V322.524Z" fill="#3080CB"/>
<path d="M35.3334 322.524H31.1429V326.714H35.3334V322.524Z" fill="#3080CB"/>
<path d="M39.5239 326.714V322.524H35.3334V326.714H39.5239Z" fill="#3080CB"/>
<path d="M43.7144 322.524H39.5239V326.714H43.7144V322.524Z" fill="#3080CB"/>
<path d="M43.7144 322.524V326.714H47.9048V322.524H43.7144Z" fill="#3080CB"/>
<path d="M47.9048 322.524V326.714H52.0953V322.524H47.9048Z" fill="#3080CB"/>
<path d="M52.0953 322.524V326.714H56.2858V322.524H52.0953Z" fill="#3080CB"/>
<path d="M56.2858 322.524V326.714H60.4763V322.524H56.2858Z" fill="#3080CB"/>
<path d="M60.4763 322.524V326.714H64.6668V322.524H60.4763Z" fill="#3080CB"/>
<path d="M68.8573 318.333H64.6668V322.524H68.8573V318.333Z" fill="#3080CB"/>
<path d="M68.8573 314.143V318.333H73.0477V314.143H68.8573Z" fill="#3080CB"/>
<path d="M68.8573 309.952V314.143H73.0477V309.952H68.8573Z" fill="#3080CB"/>
<path d="M64.6668 309.952H68.8573V305.762H64.6668V309.952Z" fill="#3080CB"/>
<path d="M60.4763 309.952H64.6668V305.762H60.4763V309.952Z" fill="#3080CB"/>
<path d="M56.2858 301.571V305.762H60.4763V301.571H56.2858Z" fill="#3080CB"/>
<path d="M52.0953 301.571H56.2858V297.381H52.0953V301.571Z" fill="#3080CB"/>
<path d="M52.0953 293.19H47.9048V297.381H52.0953V293.19Z" fill="#3080CB"/>
<path d="M47.9048 289H43.7144V293.19H47.9048V289Z" fill="#3080CB"/>
<path d="M39.5239 293.19H43.7144V289H39.5239V293.19Z" fill="#3080CB"/>
<path d="M39.5239 293.19V289H35.3334V293.19H39.5239Z" fill="#3080CB"/>
<path d="M31.1429 297.381H35.3334V293.19H31.1429V297.381Z" fill="#3080CB"/>
<path d="M26.9524 301.571H31.1429V297.381H26.9524V301.571Z" fill="#3080CB"/>
<path d="M22.7619 301.571H26.9524V297.381H22.7619V301.571Z" fill="#3080CB"/>
<path d="M18.5715 305.762H22.7619V301.571H18.5715V305.762Z" fill="#3080CB"/>
<path d="M14.381 305.762H18.5715V301.571H14.381V305.762Z" fill="#3080CB"/>
<path d="M10.1905 309.952H14.381V305.762H10.1905V309.952Z" fill="#3080CB"/>
<path d="M10.1905 314.143V309.952H6V314.143H10.1905Z" fill="#3080CB"/>
<path d="M10.1905 314.143H6V318.333H10.1905V314.143Z" fill="#3080CB"/>
<path d="M14.381 322.524V318.333H10.1905V322.524H14.381Z" fill="#3080CB"/>
<path d="M18.5715 322.524V318.333H14.381V322.524H18.5715Z" fill="#3080CB"/>
<path d="M60.4763 318.333V322.524H64.6668V318.333H60.4763Z" fill="#A5D4FF"/>
<path d="M52.0953 318.333V314.143H47.9048V318.333H52.0953Z" fill="#A5D4FF"/>
<path d="M56.2858 314.143V309.952H52.0953V314.143H56.2858Z" fill="#A5D4FF"/>
<path d="M56.2858 309.952H60.4763V305.762H56.2858V309.952Z" fill="#A5D4FF"/>
<path d="M47.9048 301.571H52.0953V297.381H47.9048V301.571Z" fill="#A5D4FF"/>
<path d="M43.7144 297.381H47.9048V293.19H43.7144V297.381Z" fill="#A5D4FF"/>
<path d="M35.3334 297.381H39.5239V293.19H35.3334V297.381Z" fill="#A5D4FF"/>
<path d="M26.9524 309.952H31.1429V305.762H26.9524V309.952Z" fill="#A5D4FF"/>
<path d="M22.7619 314.143H26.9524V309.952H22.7619V314.143Z" fill="#A5D4FF"/>
<path d="M22.7619 318.333H18.5715V322.524H22.7619V318.333Z" fill="#A5D4FF"/>
<path d="M18.5715 318.333V314.143H14.381V318.333H18.5715Z" fill="#A5D4FF"/>
<path d="M14.381 314.143H10.1905V318.333H14.381V314.143Z" fill="#A5D4FF"/>
<path d="M56.2858 322.524H60.4763V318.333H56.2858V322.524Z" fill="white"/>
</g>
<g opacity="0.6">
<path d="M57.25 780.667H63.6875V787.111H57.25V780.667Z" fill="white"/>
<path d="M57.25 774.222H63.6875V780.667H57.25V774.222Z" fill="white"/>
<path d="M63.6875 774.222H70.125V780.667H63.6875V774.222Z" fill="white"/>
<path d="M70.125 774.222H76.5625V780.667H70.125V774.222Z" fill="white"/>
<path d="M70.125 780.667H76.5625V787.111H70.125V780.667Z" fill="white"/>
<path d="M63.6875 780.667H70.125V787.111H63.6875V780.667Z" fill="white"/>
<path d="M50.8125 780.667H57.25V787.111H50.8125V780.667Z" fill="white"/>
<path d="M37.9375 780.667H44.375V787.111H37.9375V780.667Z" fill="white"/>
<path d="M25.0625 780.667H31.5V787.111H25.0625V780.667Z" fill="white"/>
<path d="M12.1875 780.667H18.625V787.111H12.1875V780.667Z" fill="white"/>
<path d="M-0.6875 780.667H5.75V787.111H-0.6875V780.667Z" fill="white"/>
<path d="M5.75 780.667H12.1875V787.111H5.75V780.667Z" fill="white"/>
<path d="M18.625 780.667H25.0625V787.111H18.625V780.667Z" fill="white"/>
<path d="M31.5 780.667H37.9375V787.111H31.5V780.667Z" fill="white"/>
<path d="M50.8125 787.111H57.25V793.556H50.8125V787.111Z" fill="white"/>
<path d="M44.375 787.111H50.8125V793.556H44.375V787.111Z" fill="white"/>
<path d="M37.9375 787.111H44.375V793.556H37.9375V787.111Z" fill="white"/>
<path d="M31.5 787.111H37.9375V793.556H31.5V787.111Z" fill="white"/>
<path d="M25.0625 787.111H31.5V793.556H25.0625V787.111Z" fill="white"/>
<path d="M18.625 787.111H25.0625V793.556H18.625V787.111Z" fill="white"/>
<path d="M12.1875 787.111H18.625V793.556H12.1875V787.111Z" fill="white"/>
<path d="M5.75 787.111H12.1875V793.556H5.75V787.111Z" fill="white"/>
<path d="M-13.5625 774.222H-7.125V780.667H-13.5625V774.222Z" fill="white"/>
<path d="M-7.125 774.222H-0.6875V780.667H-7.125V774.222Z" fill="white"/>
<path d="M-0.6875 774.222H5.75V780.667H-0.6875V774.222Z" fill="white"/>
<path d="M12.1875 774.222H18.625V780.667H12.1875V774.222Z" fill="white"/>
<path d="M18.625 774.222H25.0625V780.667H18.625V774.222Z" fill="white"/>
<path d="M25.0625 774.222H31.5V780.667H25.0625V774.222Z" fill="white"/>
<path d="M31.5 774.222H37.9375V780.667H31.5V774.222Z" fill="white"/>
<path d="M37.9375 774.222H44.375V780.667H37.9375V774.222Z" fill="white"/>
<path d="M44.375 774.222H50.8125V780.667H44.375V774.222Z" fill="white"/>
<path d="M50.8125 767.778H57.25V774.222H50.8125V767.778Z" fill="white"/>
<path d="M44.375 767.778H50.8125V774.222H44.375V767.778Z" fill="white"/>
<path d="M37.9375 767.778H44.375V774.222H37.9375V767.778Z" fill="white"/>
<path d="M31.5 767.778H37.9375V774.222H31.5V767.778Z" fill="white"/>
<path d="M25.0625 767.778H31.5V774.222H25.0625V767.778Z" fill="white"/>
<path d="M18.625 767.778H25.0625V774.222H18.625V767.778Z" fill="white"/>
<path d="M5.75 767.778H12.1875V774.222H5.75V767.778Z" fill="white"/>
<path d="M-0.6875 767.778H5.75V774.222H-0.6875V767.778Z" fill="white"/>
<path d="M-7.125 767.778H-0.6875V774.222H-7.125V767.778Z" fill="white"/>
<path d="M5.75 761.333H12.1875V767.778H5.75V761.333Z" fill="white"/>
<path d="M12.1875 761.333H18.625V767.778H12.1875V761.333Z" fill="white"/>
<path d="M18.625 761.333H25.0625V767.778H18.625V761.333Z" fill="white"/>
<path d="M25.0625 761.333H31.5V767.778H25.0625V761.333Z" fill="white"/>
<path d="M31.5 761.333H37.9375V767.778H31.5V761.333Z" fill="white"/>
<path d="M37.9375 761.333H44.375V767.778H37.9375V761.333Z" fill="white"/>
<path d="M44.375 761.333H50.8125V767.778H44.375V761.333Z" fill="white"/>
<path d="M50.8125 761.333H57.25V767.778H50.8125V761.333Z" fill="white"/>
<path d="M37.9375 754.889H44.375V761.333H37.9375V754.889Z" fill="white"/>
<path d="M31.5 754.889H37.9375V761.333H31.5V754.889Z" fill="white"/>
<path d="M25.0625 754.889H31.5V761.333H25.0625V754.889Z" fill="white"/>
<path d="M18.625 754.889H25.0625V761.333H18.625V754.889Z" fill="white"/>
<path d="M31.5 748.444H37.9375V754.889H31.5V748.444Z" fill="white"/>
<path d="M5.75 793.556H-0.6875V800H5.75V793.556Z" fill="#3080CB"/>
<path d="M12.1875 793.556H5.75V800H12.1875V793.556Z" fill="#3080CB"/>
<path d="M18.625 793.556H12.1875V800H18.625V793.556Z" fill="#3080CB"/>
<path d="M25.0625 793.556H18.625V800H25.0625V793.556Z" fill="#3080CB"/>
<path d="M31.5 800V793.556H25.0625V800H31.5Z" fill="#3080CB"/>
<path d="M37.9375 793.556H31.5V800H37.9375V793.556Z" fill="#3080CB"/>
<path d="M37.9375 793.556V800H44.375V793.556H37.9375Z" fill="#3080CB"/>
<path d="M44.375 793.556V800H50.8125V793.556H44.375Z" fill="#3080CB"/>
<path d="M50.8125 793.556V800H57.25V793.556H50.8125Z" fill="#3080CB"/>
<path d="M57.25 793.556V800H63.6875V793.556H57.25Z" fill="#3080CB"/>
<path d="M63.6875 793.556V800H70.125V793.556H63.6875Z" fill="#3080CB"/>
<path d="M76.5625 787.111H70.125V793.556H76.5625V787.111Z" fill="#3080CB"/>
<path d="M76.5625 780.667V787.111H83V780.667H76.5625Z" fill="#3080CB"/>
<path d="M76.5625 774.222V780.667H83V774.222H76.5625Z" fill="#3080CB"/>
<path d="M70.125 774.222H76.5625V767.778H70.125V774.222Z" fill="#3080CB"/>
<path d="M63.6875 774.222H70.125V767.778H63.6875V774.222Z" fill="#3080CB"/>
<path d="M57.25 761.333V767.778H63.6875V761.333H57.25Z" fill="#3080CB"/>
<path d="M50.8125 761.333H57.25V754.889H50.8125V761.333Z" fill="#3080CB"/>
<path d="M50.8125 748.444H44.375V754.889H50.8125V748.444Z" fill="#3080CB"/>
<path d="M44.375 742H37.9375V748.444H44.375V742Z" fill="#3080CB"/>
<path d="M31.5 748.444H37.9375V742H31.5V748.444Z" fill="#3080CB"/>
<path d="M31.5 748.444V742H25.0625V748.444H31.5Z" fill="#3080CB"/>
<path d="M18.625 754.889H25.0625V748.444H18.625V754.889Z" fill="#3080CB"/>
<path d="M12.1875 761.333H18.625V754.889H12.1875V761.333Z" fill="#3080CB"/>
<path d="M5.75 761.333H12.1875V754.889H5.75V761.333Z" fill="#3080CB"/>
<path d="M-0.6875 767.778H5.75V761.333H-0.6875V767.778Z" fill="#3080CB"/>
<path d="M-7.125 767.778H-0.6875V761.333H-7.125V767.778Z" fill="#3080CB"/>
<path d="M-13.5625 774.222H-7.125V767.778H-13.5625V774.222Z" fill="#3080CB"/>
<path d="M-13.5625 780.667V774.222H-20V780.667H-13.5625Z" fill="#3080CB"/>
<path d="M-13.5625 780.667H-20V787.111H-13.5625V780.667Z" fill="#3080CB"/>
<path d="M-7.125 793.556V787.111H-13.5625V793.556H-7.125Z" fill="#3080CB"/>
<path d="M-0.6875 793.556V787.111H-7.125V793.556H-0.6875Z" fill="#3080CB"/>
<path d="M63.6875 787.111V793.556H70.125V787.111H63.6875Z" fill="#A5D4FF"/>
<path d="M50.8125 787.111V780.667H44.375V787.111H50.8125Z" fill="#A5D4FF"/>
<path d="M57.25 780.667V774.222H50.8125V780.667H57.25Z" fill="#A5D4FF"/>
<path d="M57.25 774.222H63.6875V767.778H57.25V774.222Z" fill="#A5D4FF"/>
<path d="M44.375 761.333H50.8125V754.889H44.375V761.333Z" fill="#A5D4FF"/>
<path d="M37.9375 754.889H44.375V748.444H37.9375V754.889Z" fill="#A5D4FF"/>
<path d="M25.0625 754.889H31.5V748.444H25.0625V754.889Z" fill="#A5D4FF"/>
<path d="M12.1875 774.222H18.625V767.778H12.1875V774.222Z" fill="#A5D4FF"/>
<path d="M5.75 780.667H12.1875V774.222H5.75V780.667Z" fill="#A5D4FF"/>
<path d="M5.75 787.111H-0.6875V793.556H5.75V787.111Z" fill="#A5D4FF"/>
<path d="M-0.6875 787.111V780.667H-7.125V787.111H-0.6875Z" fill="#A5D4FF"/>
<path d="M-7.125 780.667H-13.5625V787.111H-7.125V780.667Z" fill="#A5D4FF"/>
<path d="M57.25 793.556H63.6875V787.111H57.25V793.556Z" fill="white"/>
</g>
<g opacity="0.6">
<path d="M428.333 926.667H433.111V931.444H428.333V926.667Z" fill="white"/>
<path d="M428.333 921.889H433.111V926.667H428.333V921.889Z" fill="white"/>
<path d="M433.111 921.889H437.889V926.667H433.111V921.889Z" fill="white"/>
<path d="M437.889 921.889H442.667V926.667H437.889V921.889Z" fill="white"/>
<path d="M437.889 926.667H442.667V931.444H437.889V926.667Z" fill="white"/>
<path d="M433.111 926.667H437.889V931.444H433.111V926.667Z" fill="white"/>
<path d="M423.556 926.667H428.333V931.444H423.556V926.667Z" fill="white"/>
<path d="M414 926.667H418.778V931.444H414V926.667Z" fill="white"/>
<path d="M404.444 926.667H409.222V931.444H404.444V926.667Z" fill="white"/>
<path d="M394.889 926.667H399.667V931.444H394.889V926.667Z" fill="white"/>
<path d="M385.333 926.667H390.111V931.444H385.333V926.667Z" fill="white"/>
<path d="M390.111 926.667H394.889V931.444H390.111V926.667Z" fill="white"/>
<path d="M399.667 926.667H404.444V931.444H399.667V926.667Z" fill="white"/>
<path d="M409.222 926.667H414V931.444H409.222V926.667Z" fill="white"/>
<path d="M423.556 931.444H428.333V936.222H423.556V931.444Z" fill="white"/>
<path d="M418.778 931.444H423.556V936.222H418.778V931.444Z" fill="white"/>
<path d="M414 931.444H418.778V936.222H414V931.444Z" fill="white"/>
<path d="M409.222 931.444H414V936.222H409.222V931.444Z" fill="white"/>
<path d="M404.444 931.444H409.222V936.222H404.444V931.444Z" fill="white"/>
<path d="M399.667 931.444H404.444V936.222H399.667V931.444Z" fill="white"/>
<path d="M394.889 931.444H399.667V936.222H394.889V931.444Z" fill="white"/>
<path d="M390.111 931.444H394.889V936.222H390.111V931.444Z" fill="white"/>
<path d="M375.778 921.889H380.556V926.667H375.778V921.889Z" fill="white"/>
<path d="M380.556 921.889H385.333V926.667H380.556V921.889Z" fill="white"/>
<path d="M385.333 921.889H390.111V926.667H385.333V921.889Z" fill="white"/>
<path d="M394.889 921.889H399.667V926.667H394.889V921.889Z" fill="white"/>
<path d="M399.667 921.889H404.444V926.667H399.667V921.889Z" fill="white"/>
<path d="M404.444 921.889H409.222V926.667H404.444V921.889Z" fill="white"/>
<path d="M409.222 921.889H414V926.667H409.222V921.889Z" fill="white"/>
<path d="M414 921.889H418.778V926.667H414V921.889Z" fill="white"/>
<path d="M418.778 921.889H423.556V926.667H418.778V921.889Z" fill="white"/>
<path d="M423.556 917.111H428.333V921.889H423.556V917.111Z" fill="white"/>
<path d="M418.778 917.111H423.556V921.889H418.778V917.111Z" fill="white"/>
<path d="M414 917.111H418.778V921.889H414V917.111Z" fill="white"/>
<path d="M409.222 917.111H414V921.889H409.222V917.111Z" fill="white"/>
<path d="M404.444 917.111H409.222V921.889H404.444V917.111Z" fill="white"/>
<path d="M399.667 917.111H404.444V921.889H399.667V917.111Z" fill="white"/>
<path d="M390.111 917.111H394.889V921.889H390.111V917.111Z" fill="white"/>
<path d="M385.333 917.111H390.111V921.889H385.333V917.111Z" fill="white"/>
<path d="M380.556 917.111H385.333V921.889H380.556V917.111Z" fill="white"/>
<path d="M390.111 912.333H394.889V917.111H390.111V912.333Z" fill="white"/>
<path d="M394.889 912.333H399.667V917.111H394.889V912.333Z" fill="white"/>
<path d="M399.667 912.333H404.444V917.111H399.667V912.333Z" fill="white"/>
<path d="M404.444 912.333H409.222V917.111H404.444V912.333Z" fill="white"/>
<path d="M409.222 912.333H414V917.111H409.222V912.333Z" fill="white"/>
<path d="M414 912.333H418.778V917.111H414V912.333Z" fill="white"/>
<path d="M418.778 912.333H423.556V917.111H418.778V912.333Z" fill="white"/>
<path d="M423.556 912.333H428.333V917.111H423.556V912.333Z" fill="white"/>
<path d="M414 907.556H418.778V912.333H414V907.556Z" fill="white"/>
<path d="M409.222 907.556H414V912.333H409.222V907.556Z" fill="white"/>
<path d="M404.444 907.556H409.222V912.333H404.444V907.556Z" fill="white"/>
<path d="M399.667 907.556H404.444V912.333H399.667V907.556Z" fill="white"/>
<path d="M409.222 902.778H414V907.556H409.222V902.778Z" fill="white"/>
<path d="M390.111 936.222H385.333V941H390.111V936.222Z" fill="#3080CB"/>
<path d="M394.889 936.222H390.111V941H394.889V936.222Z" fill="#3080CB"/>
<path d="M399.667 936.222H394.889V941H399.667V936.222Z" fill="#3080CB"/>
<path d="M404.444 936.222H399.667V941H404.444V936.222Z" fill="#3080CB"/>
<path d="M409.222 941V936.222H404.444V941H409.222Z" fill="#3080CB"/>
<path d="M414 936.222H409.222V941H414V936.222Z" fill="#3080CB"/>
<path d="M414 936.222V941H418.778V936.222H414Z" fill="#3080CB"/>
<path d="M418.778 936.222V941H423.556V936.222H418.778Z" fill="#3080CB"/>
<path d="M423.556 936.222V941H428.333V936.222H423.556Z" fill="#3080CB"/>
<path d="M428.333 936.222V941H433.111V936.222H428.333Z" fill="#3080CB"/>
<path d="M433.111 936.222V941H437.889V936.222H433.111Z" fill="#3080CB"/>
<path d="M442.667 931.444H437.889V936.222H442.667V931.444Z" fill="#3080CB"/>
<path d="M442.667 926.667V931.444H447.444V926.667H442.667Z" fill="#3080CB"/>
<path d="M442.667 921.889V926.667H447.444V921.889H442.667Z" fill="#3080CB"/>
<path d="M437.889 921.889H442.667V917.111H437.889V921.889Z" fill="#3080CB"/>
<path d="M433.111 921.889H437.889V917.111H433.111V921.889Z" fill="#3080CB"/>
<path d="M428.333 912.333V917.111H433.111V912.333H428.333Z" fill="#3080CB"/>
<path d="M423.556 912.333H428.333V907.556H423.556V912.333Z" fill="#3080CB"/>
<path d="M423.556 902.778H418.778V907.556H423.556V902.778Z" fill="#3080CB"/>
<path d="M418.778 898H414V902.778H418.778V898Z" fill="#3080CB"/>
<path d="M409.222 902.778H414V898H409.222V902.778Z" fill="#3080CB"/>
<path d="M409.222 902.778V898H404.444V902.778H409.222Z" fill="#3080CB"/>
<path d="M399.667 907.556H404.444V902.778H399.667V907.556Z" fill="#3080CB"/>
<path d="M394.889 912.333H399.667V907.556H394.889V912.333Z" fill="#3080CB"/>
<path d="M390.111 912.333H394.889V907.556H390.111V912.333Z" fill="#3080CB"/>
<path d="M385.333 917.111H390.111V912.333H385.333V917.111Z" fill="#3080CB"/>
<path d="M380.556 917.111H385.333V912.333H380.556V917.111Z" fill="#3080CB"/>
<path d="M375.778 921.889H380.556V917.111H375.778V921.889Z" fill="#3080CB"/>
<path d="M375.778 926.667V921.889H371V926.667H375.778Z" fill="#3080CB"/>
<path d="M375.778 926.667H371V931.444H375.778V926.667Z" fill="#3080CB"/>
<path d="M380.556 936.222V931.444H375.778V936.222H380.556Z" fill="#3080CB"/>
<path d="M385.333 936.222V931.444H380.556V936.222H385.333Z" fill="#3080CB"/>
<path d="M433.111 931.444V936.222H437.889V931.444H433.111Z" fill="#A5D4FF"/>
<path d="M423.556 931.444V926.667H418.778V931.444H423.556Z" fill="#A5D4FF"/>
<path d="M428.333 926.667V921.889H423.556V926.667H428.333Z" fill="#A5D4FF"/>
<path d="M428.333 921.889H433.111V917.111H428.333V921.889Z" fill="#A5D4FF"/>
<path d="M418.778 912.333H423.556V907.556H418.778V912.333Z" fill="#A5D4FF"/>
<path d="M414 907.556H418.778V902.778H414V907.556Z" fill="#A5D4FF"/>
<path d="M404.444 907.556H409.222V902.778H404.444V907.556Z" fill="#A5D4FF"/>
<path d="M394.889 921.889H399.667V917.111H394.889V921.889Z" fill="#A5D4FF"/>
<path d="M390.111 926.667H394.889V921.889H390.111V926.667Z" fill="#A5D4FF"/>
<path d="M390.111 931.444H385.333V936.222H390.111V931.444Z" fill="#A5D4FF"/>
<path d="M385.333 931.444V926.667H380.556V931.444H385.333Z" fill="#A5D4FF"/>
<path d="M380.556 926.667H375.778V931.444H380.556V926.667Z" fill="#A5D4FF"/>
<path d="M428.333 936.222H433.111V931.444H428.333V936.222Z" fill="white"/>
</g>
<g opacity="0.6">
<path d="M417.333 354.667H425.111V362.444H417.333V354.667Z" fill="white"/>
<path d="M417.333 346.889H425.111V354.667H417.333V346.889Z" fill="white"/>
<path d="M425.111 346.889H432.889V354.667H425.111V346.889Z" fill="white"/>
<path d="M432.889 346.889H440.667V354.667H432.889V346.889Z" fill="white"/>
<path d="M432.889 354.667H440.667V362.444H432.889V354.667Z" fill="white"/>
<path d="M425.111 354.667H432.889V362.444H425.111V354.667Z" fill="white"/>
<path d="M409.556 354.667H417.333V362.444H409.556V354.667Z" fill="white"/>
<path d="M394 354.667H401.778V362.444H394V354.667Z" fill="white"/>
<path d="M378.444 354.667H386.222V362.444H378.444V354.667Z" fill="white"/>
<path d="M362.889 354.667H370.667V362.444H362.889V354.667Z" fill="white"/>
<path d="M347.333 354.667H355.111V362.444H347.333V354.667Z" fill="white"/>
<path d="M355.111 354.667H362.889V362.444H355.111V354.667Z" fill="white"/>
<path d="M370.667 354.667H378.444V362.444H370.667V354.667Z" fill="white"/>
<path d="M386.222 354.667H394V362.444H386.222V354.667Z" fill="white"/>
<path d="M409.556 362.444H417.333V370.222H409.556V362.444Z" fill="white"/>
<path d="M401.778 362.444H409.556V370.222H401.778V362.444Z" fill="white"/>
<path d="M394 362.444H401.778V370.222H394V362.444Z" fill="white"/>
<path d="M386.222 362.444H394V370.222H386.222V362.444Z" fill="white"/>
<path d="M378.444 362.444H386.222V370.222H378.444V362.444Z" fill="white"/>
<path d="M370.667 362.444H378.444V370.222H370.667V362.444Z" fill="white"/>
<path d="M362.889 362.444H370.667V370.222H362.889V362.444Z" fill="white"/>
<path d="M355.111 362.444H362.889V370.222H355.111V362.444Z" fill="white"/>
<path d="M331.778 346.889H339.556V354.667H331.778V346.889Z" fill="white"/>
<path d="M339.556 346.889H347.333V354.667H339.556V346.889Z" fill="white"/>
<path d="M347.333 346.889H355.111V354.667H347.333V346.889Z" fill="white"/>
<path d="M362.889 346.889H370.667V354.667H362.889V346.889Z" fill="white"/>
<path d="M370.667 346.889H378.444V354.667H370.667V346.889Z" fill="white"/>
<path d="M378.444 346.889H386.222V354.667H378.444V346.889Z" fill="white"/>
<path d="M386.222 346.889H394V354.667H386.222V346.889Z" fill="white"/>
<path d="M394 346.889H401.778V354.667H394V346.889Z" fill="white"/>
<path d="M401.778 346.889H409.556V354.667H401.778V346.889Z" fill="white"/>
<path d="M409.556 339.111H417.333V346.889H409.556V339.111Z" fill="white"/>
<path d="M401.778 339.111H409.556V346.889H401.778V339.111Z" fill="white"/>
<path d="M394 339.111H401.778V346.889H394V339.111Z" fill="white"/>
<path d="M386.222 339.111H394V346.889H386.222V339.111Z" fill="white"/>
<path d="M378.444 339.111H386.222V346.889H378.444V339.111Z" fill="white"/>
<path d="M370.667 339.111H378.444V346.889H370.667V339.111Z" fill="white"/>
<path d="M355.111 339.111H362.889V346.889H355.111V339.111Z" fill="white"/>
<path d="M347.333 339.111H355.111V346.889H347.333V339.111Z" fill="white"/>
<path d="M339.556 339.111H347.333V346.889H339.556V339.111Z" fill="white"/>
<path d="M355.111 331.333H362.889V339.111H355.111V331.333Z" fill="white"/>
<path d="M362.889 331.333H370.667V339.111H362.889V331.333Z" fill="white"/>
<path d="M370.667 331.333H378.444V339.111H370.667V331.333Z" fill="white"/>
<path d="M378.444 331.333H386.222V339.111H378.444V331.333Z" fill="white"/>
<path d="M386.222 331.333H394V339.111H386.222V331.333Z" fill="white"/>
<path d="M394 331.333H401.778V339.111H394V331.333Z" fill="white"/>
<path d="M401.778 331.333H409.556V339.111H401.778V331.333Z" fill="white"/>
<path d="M409.556 331.333H417.333V339.111H409.556V331.333Z" fill="white"/>
<path d="M394 323.556H401.778V331.333H394V323.556Z" fill="white"/>
<path d="M386.222 323.556H394V331.333H386.222V323.556Z" fill="white"/>
<path d="M378.444 323.556H386.222V331.333H378.444V323.556Z" fill="white"/>
<path d="M370.667 323.556H378.444V331.333H370.667V323.556Z" fill="white"/>
<path d="M386.222 315.778H394V323.556H386.222V315.778Z" fill="white"/>
<path d="M355.111 370.222H347.333V378H355.111V370.222Z" fill="#3080CB"/>
<path d="M362.889 370.222H355.111V378H362.889V370.222Z" fill="#3080CB"/>
<path d="M370.667 370.222H362.889V378H370.667V370.222Z" fill="#3080CB"/>
<path d="M378.444 370.222H370.667V378H378.444V370.222Z" fill="#3080CB"/>
<path d="M386.222 378V370.222H378.444V378H386.222Z" fill="#3080CB"/>
<path d="M394 370.222H386.222V378H394V370.222Z" fill="#3080CB"/>
<path d="M394 370.222V378H401.778V370.222H394Z" fill="#3080CB"/>
<path d="M401.778 370.222V378H409.556V370.222H401.778Z" fill="#3080CB"/>
<path d="M409.556 370.222V378H417.333V370.222H409.556Z" fill="#3080CB"/>
<path d="M417.333 370.222V378H425.111V370.222H417.333Z" fill="#3080CB"/>
<path d="M425.111 370.222V378H432.889V370.222H425.111Z" fill="#3080CB"/>
<path d="M440.667 362.444H432.889V370.222H440.667V362.444Z" fill="#3080CB"/>
<path d="M440.667 354.667V362.444H448.444V354.667H440.667Z" fill="#3080CB"/>
<path d="M440.667 346.889V354.667H448.444V346.889H440.667Z" fill="#3080CB"/>
<path d="M432.889 346.889H440.667V339.111H432.889V346.889Z" fill="#3080CB"/>
<path d="M425.111 346.889H432.889V339.111H425.111V346.889Z" fill="#3080CB"/>
<path d="M417.333 331.333V339.111H425.111V331.333H417.333Z" fill="#3080CB"/>
<path d="M409.556 331.333H417.333V323.556H409.556V331.333Z" fill="#3080CB"/>
<path d="M409.556 315.778H401.778V323.556H409.556V315.778Z" fill="#3080CB"/>
<path d="M401.778 308H394V315.778H401.778V308Z" fill="#3080CB"/>
<path d="M386.222 315.778H394V308H386.222V315.778Z" fill="#3080CB"/>
<path d="M386.222 315.778V308H378.444V315.778H386.222Z" fill="#3080CB"/>
<path d="M370.667 323.556H378.444V315.778H370.667V323.556Z" fill="#3080CB"/>
<path d="M362.889 331.333H370.667V323.556H362.889V331.333Z" fill="#3080CB"/>
<path d="M355.111 331.333H362.889V323.556H355.111V331.333Z" fill="#3080CB"/>
<path d="M347.333 339.111H355.111V331.333H347.333V339.111Z" fill="#3080CB"/>
<path d="M339.556 339.111H347.333V331.333H339.556V339.111Z" fill="#3080CB"/>
<path d="M331.778 346.889H339.556V339.111H331.778V346.889Z" fill="#3080CB"/>
<path d="M331.778 354.667V346.889H324V354.667H331.778Z" fill="#3080CB"/>
<path d="M331.778 354.667H324V362.444H331.778V354.667Z" fill="#3080CB"/>
<path d="M339.556 370.222V362.444H331.778V370.222H339.556Z" fill="#3080CB"/>
<path d="M347.333 370.222V362.444H339.556V370.222H347.333Z" fill="#3080CB"/>
<path d="M425.111 362.444V370.222H432.889V362.444H425.111Z" fill="#A5D4FF"/>
<path d="M409.556 362.444V354.667H401.778V362.444H409.556Z" fill="#A5D4FF"/>
<path d="M417.333 354.667V346.889H409.556V354.667H417.333Z" fill="#A5D4FF"/>
<path d="M417.333 346.889H425.111V339.111H417.333V346.889Z" fill="#A5D4FF"/>
<path d="M401.778 331.333H409.556V323.556H401.778V331.333Z" fill="#A5D4FF"/>
<path d="M394 323.556H401.778V315.778H394V323.556Z" fill="#A5D4FF"/>
<path d="M378.444 323.556H386.222V315.778H378.444V323.556Z" fill="#A5D4FF"/>
<path d="M362.889 346.889H370.667V339.111H362.889V346.889Z" fill="#A5D4FF"/>
<path d="M355.111 354.667H362.889V346.889H355.111V354.667Z" fill="#A5D4FF"/>
<path d="M355.111 362.444H347.333V370.222H355.111V362.444Z" fill="#A5D4FF"/>
<path d="M347.333 362.444V354.667H339.556V362.444H347.333Z" fill="#A5D4FF"/>
<path d="M339.556 354.667H331.778V362.444H339.556V354.667Z" fill="#A5D4FF"/>
<path d="M417.333 370.222H425.111V362.444H417.333V370.222Z" fill="white"/>
</g>
<g opacity="0.6">
<path d="M380.333 724.667H388.111V732.444H380.333V724.667Z" fill="white"/>
<path d="M380.333 716.889H388.111V724.667H380.333V716.889Z" fill="white"/>
<path d="M388.111 716.889H395.889V724.667H388.111V716.889Z" fill="white"/>
<path d="M395.889 716.889H403.667V724.667H395.889V716.889Z" fill="white"/>
<path d="M395.889 724.667H403.667V732.444H395.889V724.667Z" fill="white"/>
<path d="M388.111 724.667H395.889V732.444H388.111V724.667Z" fill="white"/>
<path d="M372.556 724.667H380.333V732.444H372.556V724.667Z" fill="white"/>
<path d="M357 724.667H364.778V732.444H357V724.667Z" fill="white"/>
<path d="M341.444 724.667H349.222V732.444H341.444V724.667Z" fill="white"/>
<path d="M325.889 724.667H333.667V732.444H325.889V724.667Z" fill="white"/>
<path d="M310.333 724.667H318.111V732.444H310.333V724.667Z" fill="white"/>
<path d="M318.111 724.667H325.889V732.444H318.111V724.667Z" fill="white"/>
<path d="M333.667 724.667H341.444V732.444H333.667V724.667Z" fill="white"/>
<path d="M349.222 724.667H357V732.444H349.222V724.667Z" fill="white"/>
<path d="M372.556 732.444H380.333V740.222H372.556V732.444Z" fill="white"/>
<path d="M364.778 732.444H372.556V740.222H364.778V732.444Z" fill="white"/>
<path d="M357 732.444H364.778V740.222H357V732.444Z" fill="white"/>
<path d="M349.222 732.444H357V740.222H349.222V732.444Z" fill="white"/>
<path d="M341.444 732.444H349.222V740.222H341.444V732.444Z" fill="white"/>
<path d="M333.667 732.444H341.444V740.222H333.667V732.444Z" fill="white"/>
<path d="M325.889 732.444H333.667V740.222H325.889V732.444Z" fill="white"/>
<path d="M318.111 732.444H325.889V740.222H318.111V732.444Z" fill="white"/>
<path d="M294.778 716.889H302.556V724.667H294.778V716.889Z" fill="white"/>
<path d="M302.556 716.889H310.333V724.667H302.556V716.889Z" fill="white"/>
<path d="M310.333 716.889H318.111V724.667H310.333V716.889Z" fill="white"/>
<path d="M325.889 716.889H333.667V724.667H325.889V716.889Z" fill="white"/>
<path d="M333.667 716.889H341.444V724.667H333.667V716.889Z" fill="white"/>
<path d="M341.444 716.889H349.222V724.667H341.444V716.889Z" fill="white"/>
<path d="M349.222 716.889H357V724.667H349.222V716.889Z" fill="white"/>
<path d="M357 716.889H364.778V724.667H357V716.889Z" fill="white"/>
<path d="M364.778 716.889H372.556V724.667H364.778V716.889Z" fill="white"/>
<path d="M372.556 709.111H380.333V716.889H372.556V709.111Z" fill="white"/>
<path d="M364.778 709.111H372.556V716.889H364.778V709.111Z" fill="white"/>
<path d="M357 709.111H364.778V716.889H357V709.111Z" fill="white"/>
<path d="M349.222 709.111H357V716.889H349.222V709.111Z" fill="white"/>
<path d="M341.444 709.111H349.222V716.889H341.444V709.111Z" fill="white"/>
<path d="M333.667 709.111H341.444V716.889H333.667V709.111Z" fill="white"/>
<path d="M318.111 709.111H325.889V716.889H318.111V709.111Z" fill="white"/>
<path d="M310.333 709.111H318.111V716.889H310.333V709.111Z" fill="white"/>
<path d="M302.556 709.111H310.333V716.889H302.556V709.111Z" fill="white"/>
<path d="M318.111 701.333H325.889V709.111H318.111V701.333Z" fill="white"/>
<path d="M325.889 701.333H333.667V709.111H325.889V701.333Z" fill="white"/>
<path d="M333.667 701.333H341.444V709.111H333.667V701.333Z" fill="white"/>
<path d="M341.444 701.333H349.222V709.111H341.444V701.333Z" fill="white"/>
<path d="M349.222 701.333H357V709.111H349.222V701.333Z" fill="white"/>
<path d="M357 701.333H364.778V709.111H357V701.333Z" fill="white"/>
<path d="M364.778 701.333H372.556V709.111H364.778V701.333Z" fill="white"/>
<path d="M372.556 701.333H380.333V709.111H372.556V701.333Z" fill="white"/>
<path d="M357 693.556H364.778V701.333H357V693.556Z" fill="white"/>
<path d="M349.222 693.556H357V701.333H349.222V693.556Z" fill="white"/>
<path d="M341.444 693.556H349.222V701.333H341.444V693.556Z" fill="white"/>
<path d="M333.667 693.556H341.444V701.333H333.667V693.556Z" fill="white"/>
<path d="M349.222 685.778H357V693.556H349.222V685.778Z" fill="white"/>
<path d="M318.111 740.222H310.333V748H318.111V740.222Z" fill="#3080CB"/>
<path d="M325.889 740.222H318.111V748H325.889V740.222Z" fill="#3080CB"/>
<path d="M333.667 740.222H325.889V748H333.667V740.222Z" fill="#3080CB"/>
<path d="M341.444 740.222H333.667V748H341.444V740.222Z" fill="#3080CB"/>
<path d="M349.222 748V740.222H341.444V748H349.222Z" fill="#3080CB"/>
<path d="M357 740.222H349.222V748H357V740.222Z" fill="#3080CB"/>
<path d="M357 740.222V748H364.778V740.222H357Z" fill="#3080CB"/>
<path d="M364.778 740.222V748H372.556V740.222H364.778Z" fill="#3080CB"/>
<path d="M372.556 740.222V748H380.333V740.222H372.556Z" fill="#3080CB"/>
<path d="M380.333 740.222V748H388.111V740.222H380.333Z" fill="#3080CB"/>
<path d="M388.111 740.222V748H395.889V740.222H388.111Z" fill="#3080CB"/>
<path d="M403.667 732.444H395.889V740.222H403.667V732.444Z" fill="#3080CB"/>
<path d="M403.667 724.667V732.444H411.444V724.667H403.667Z" fill="#3080CB"/>
<path d="M403.667 716.889V724.667H411.444V716.889H403.667Z" fill="#3080CB"/>
<path d="M395.889 716.889H403.667V709.111H395.889V716.889Z" fill="#3080CB"/>
<path d="M388.111 716.889H395.889V709.111H388.111V716.889Z" fill="#3080CB"/>
<path d="M380.333 701.333V709.111H388.111V701.333H380.333Z" fill="#3080CB"/>
<path d="M372.556 701.333H380.333V693.556H372.556V701.333Z" fill="#3080CB"/>
<path d="M372.556 685.778H364.778V693.556H372.556V685.778Z" fill="#3080CB"/>
<path d="M364.778 678H357V685.778H364.778V678Z" fill="#3080CB"/>
<path d="M349.222 685.778H357V678H349.222V685.778Z" fill="#3080CB"/>
<path d="M349.222 685.778V678H341.444V685.778H349.222Z" fill="#3080CB"/>
<path d="M333.667 693.556H341.444V685.778H333.667V693.556Z" fill="#3080CB"/>
<path d="M325.889 701.333H333.667V693.556H325.889V701.333Z" fill="#3080CB"/>
<path d="M318.111 701.333H325.889V693.556H318.111V701.333Z" fill="#3080CB"/>
<path d="M310.333 709.111H318.111V701.333H310.333V709.111Z" fill="#3080CB"/>
<path d="M302.556 709.111H310.333V701.333H302.556V709.111Z" fill="#3080CB"/>
<path d="M294.778 716.889H302.556V709.111H294.778V716.889Z" fill="#3080CB"/>
<path d="M294.778 724.667V716.889H287V724.667H294.778Z" fill="#3080CB"/>
<path d="M294.778 724.667H287V732.444H294.778V724.667Z" fill="#3080CB"/>
<path d="M302.556 740.222V732.444H294.778V740.222H302.556Z" fill="#3080CB"/>
<path d="M310.333 740.222V732.444H302.556V740.222H310.333Z" fill="#3080CB"/>
<path d="M388.111 732.444V740.222H395.889V732.444H388.111Z" fill="#A5D4FF"/>
<path d="M372.556 732.444V724.667H364.778V732.444H372.556Z" fill="#A5D4FF"/>
<path d="M380.333 724.667V716.889H372.556V724.667H380.333Z" fill="#A5D4FF"/>
<path d="M380.333 716.889H388.111V709.111H380.333V716.889Z" fill="#A5D4FF"/>
<path d="M364.778 701.333H372.556V693.556H364.778V701.333Z" fill="#A5D4FF"/>
<path d="M357 693.556H364.778V685.778H357V693.556Z" fill="#A5D4FF"/>
<path d="M341.444 693.556H349.222V685.778H341.444V693.556Z" fill="#A5D4FF"/>
<path d="M325.889 716.889H333.667V709.111H325.889V716.889Z" fill="#A5D4FF"/>
<path d="M318.111 724.667H325.889V716.889H318.111V724.667Z" fill="#A5D4FF"/>
<path d="M318.111 732.444H310.333V740.222H318.111V732.444Z" fill="#A5D4FF"/>
<path d="M310.333 732.444V724.667H302.556V732.444H310.333Z" fill="#A5D4FF"/>
<path d="M302.556 724.667H294.778V732.444H302.556V724.667Z" fill="#A5D4FF"/>
<path d="M380.333 740.222H388.111V732.444H380.333V740.222Z" fill="white"/>
</g>
<g opacity="0.6">
<path d="M418.75 77.375H424.812V83.4375H418.75V77.375Z" fill="white"/>
<path d="M418.75 71.3125H424.812V77.375H418.75V71.3125Z" fill="white"/>
<path d="M424.812 71.3125H430.875V77.375H424.812V71.3125Z" fill="white"/>
<path d="M430.875 71.3125H436.938V77.375H430.875V71.3125Z" fill="white"/>
<path d="M430.875 77.375H436.938V83.4375H430.875V77.375Z" fill="white"/>
<path d="M424.812 77.375H430.875V83.4375H424.812V77.375Z" fill="white"/>
<path d="M412.688 77.375H418.75V83.4375H412.688V77.375Z" fill="white"/>
<path d="M400.562 77.375H406.625V83.4375H400.562V77.375Z" fill="white"/>
<path d="M388.438 77.375H394.5V83.4375H388.438V77.375Z" fill="white"/>
<path d="M376.312 77.375H382.375V83.4375H376.312V77.375Z" fill="white"/>
<path d="M364.188 77.375H370.25V83.4375H364.188V77.375Z" fill="white"/>
<path d="M370.25 77.375H376.312V83.4375H370.25V77.375Z" fill="white"/>
<path d="M382.375 77.375H388.438V83.4375H382.375V77.375Z" fill="white"/>
<path d="M394.5 77.375H400.562V83.4375H394.5V77.375Z" fill="white"/>
<path d="M412.688 83.4375H418.75V89.5H412.688V83.4375Z" fill="white"/>
<path d="M406.625 83.4375H412.688V89.5H406.625V83.4375Z" fill="white"/>
<path d="M400.562 83.4375H406.625V89.5H400.562V83.4375Z" fill="white"/>
<path d="M394.5 83.4375H400.562V89.5H394.5V83.4375Z" fill="white"/>
<path d="M388.438 83.4375H394.5V89.5H388.438V83.4375Z" fill="white"/>
<path d="M382.375 83.4375H388.438V89.5H382.375V83.4375Z" fill="white"/>
<path d="M376.312 83.4375H382.375V89.5H376.312V83.4375Z" fill="white"/>
<path d="M370.25 83.4375H376.312V89.5H370.25V83.4375Z" fill="white"/>
<path d="M352.062 71.3125H358.125V77.375H352.062V71.3125Z" fill="white"/>
<path d="M358.125 71.3125H364.188V77.375H358.125V71.3125Z" fill="white"/>
<path d="M364.188 71.3125H370.25V77.375H364.188V71.3125Z" fill="white"/>
<path d="M376.312 71.3125H382.375V77.375H376.312V71.3125Z" fill="white"/>
<path d="M382.375 71.3125H388.438V77.375H382.375V71.3125Z" fill="white"/>
<path d="M388.438 71.3125H394.5V77.375H388.438V71.3125Z" fill="white"/>
<path d="M394.5 71.3125H400.562V77.375H394.5V71.3125Z" fill="white"/>
<path d="M400.562 71.3125H406.625V77.375H400.562V71.3125Z" fill="white"/>
<path d="M406.625 71.3125H412.688V77.375H406.625V71.3125Z" fill="white"/>
<path d="M412.688 65.25H418.75V71.3125H412.688V65.25Z" fill="white"/>
<path d="M406.625 65.25H412.688V71.3125H406.625V65.25Z" fill="white"/>
<path d="M400.562 65.25H406.625V71.3125H400.562V65.25Z" fill="white"/>
<path d="M394.5 65.25H400.562V71.3125H394.5V65.25Z" fill="white"/>
<path d="M388.438 65.25H394.5V71.3125H388.438V65.25Z" fill="white"/>
<path d="M382.375 65.25H388.438V71.3125H382.375V65.25Z" fill="white"/>
<path d="M370.25 65.25H376.312V71.3125H370.25V65.25Z" fill="white"/>
<path d="M364.188 65.25H370.25V71.3125H364.188V65.25Z" fill="white"/>
<path d="M358.125 65.25H364.188V71.3125H358.125V65.25Z" fill="white"/>
<path d="M370.25 59.1875H376.312V65.25H370.25V59.1875Z" fill="white"/>
<path d="M376.312 59.1875H382.375V65.25H376.312V59.1875Z" fill="white"/>
<path d="M382.375 59.1875H388.438V65.25H382.375V59.1875Z" fill="white"/>
<path d="M388.438 59.1875H394.5V65.25H388.438V59.1875Z" fill="white"/>
<path d="M394.5 59.1875H400.562V65.25H394.5V59.1875Z" fill="white"/>
<path d="M400.562 59.1875H406.625V65.25H400.562V59.1875Z" fill="white"/>
<path d="M406.625 59.1875H412.688V65.25H406.625V59.1875Z" fill="white"/>
<path d="M412.688 59.1875H418.75V65.25H412.688V59.1875Z" fill="white"/>
<path d="M400.562 53.125H406.625V59.1875H400.562V53.125Z" fill="white"/>
<path d="M394.5 53.125H400.562V59.1875H394.5V53.125Z" fill="white"/>
<path d="M388.438 53.125H394.5V59.1875H388.438V53.125Z" fill="white"/>
<path d="M382.375 53.125H388.438V59.1875H382.375V53.125Z" fill="white"/>
<path d="M394.5 47.0625H400.562V53.125H394.5V47.0625Z" fill="white"/>
<path d="M370.25 89.5H364.188V95.5625H370.25V89.5Z" fill="#3080CB"/>
<path d="M376.312 89.5H370.25V95.5625H376.312V89.5Z" fill="#3080CB"/>
<path d="M382.375 89.5H376.312V95.5625H382.375V89.5Z" fill="#3080CB"/>
<path d="M388.438 89.5H382.375V95.5625H388.438V89.5Z" fill="#3080CB"/>
<path d="M394.5 95.5625V89.5H388.438V95.5625H394.5Z" fill="#3080CB"/>
<path d="M400.562 89.5H394.5V95.5625H400.562V89.5Z" fill="#3080CB"/>
<path d="M400.562 89.5V95.5625H406.625V89.5H400.562Z" fill="#3080CB"/>
<path d="M406.625 89.5V95.5625H412.688V89.5H406.625Z" fill="#3080CB"/>
<path d="M412.688 89.5V95.5625H418.75V89.5H412.688Z" fill="#3080CB"/>
<path d="M418.75 89.5V95.5625H424.812V89.5H418.75Z" fill="#3080CB"/>
<path d="M424.812 89.5V95.5625H430.875V89.5H424.812Z" fill="#3080CB"/>
<path d="M436.938 83.4375H430.875V89.5H436.938V83.4375Z" fill="#3080CB"/>
<path d="M436.938 77.375V83.4375H443V77.375H436.938Z" fill="#3080CB"/>
<path d="M436.938 71.3125V77.375H443V71.3125H436.938Z" fill="#3080CB"/>
<path d="M430.875 71.3125H436.938V65.25H430.875V71.3125Z" fill="#3080CB"/>
<path d="M424.812 71.3125H430.875V65.25H424.812V71.3125Z" fill="#3080CB"/>
<path d="M418.75 59.1875V65.25H424.812V59.1875H418.75Z" fill="#3080CB"/>
<path d="M412.688 59.1875H418.75V53.125H412.688V59.1875Z" fill="#3080CB"/>
<path d="M412.688 47.0625H406.625V53.125H412.688V47.0625Z" fill="#3080CB"/>
<path d="M406.625 41H400.562V47.0625H406.625V41Z" fill="#3080CB"/>
<path d="M394.5 47.0625H400.562V41H394.5V47.0625Z" fill="#3080CB"/>
<path d="M394.5 47.0625V41H388.438V47.0625H394.5Z" fill="#3080CB"/>
<path d="M382.375 53.125H388.438V47.0625H382.375V53.125Z" fill="#3080CB"/>
<path d="M376.312 59.1875H382.375V53.125H376.312V59.1875Z" fill="#3080CB"/>
<path d="M370.25 59.1875H376.312V53.125H370.25V59.1875Z" fill="#3080CB"/>
<path d="M364.188 65.25H370.25V59.1875H364.188V65.25Z" fill="#3080CB"/>
<path d="M358.125 65.25H364.188V59.1875H358.125V65.25Z" fill="#3080CB"/>
<path d="M352.062 71.3125H358.125V65.25H352.062V71.3125Z" fill="#3080CB"/>
<path d="M352.062 77.375V71.3125H346V77.375H352.062Z" fill="#3080CB"/>
<path d="M352.062 77.375H346V83.4375H352.062V77.375Z" fill="#3080CB"/>
<path d="M358.125 89.5V83.4375H352.062V89.5H358.125Z" fill="#3080CB"/>
<path d="M364.188 89.5V83.4375H358.125V89.5H364.188Z" fill="#3080CB"/>
<path d="M424.812 83.4375V89.5H430.875V83.4375H424.812Z" fill="#A5D4FF"/>
<path d="M412.688 83.4375V77.375H406.625V83.4375H412.688Z" fill="#A5D4FF"/>
<path d="M418.75 77.375V71.3125H412.688V77.375H418.75Z" fill="#A5D4FF"/>
<path d="M418.75 71.3125H424.812V65.25H418.75V71.3125Z" fill="#A5D4FF"/>
<path d="M406.625 59.1875H412.688V53.125H406.625V59.1875Z" fill="#A5D4FF"/>
<path d="M400.562 53.125H406.625V47.0625H400.562V53.125Z" fill="#A5D4FF"/>
<path d="M388.438 53.125H394.5V47.0625H388.438V53.125Z" fill="#A5D4FF"/>
<path d="M376.312 71.3125H382.375V65.25H376.312V71.3125Z" fill="#A5D4FF"/>
<path d="M370.25 77.375H376.312V71.3125H370.25V77.375Z" fill="#A5D4FF"/>
<path d="M370.25 83.4375H364.188V89.5H370.25V83.4375Z" fill="#A5D4FF"/>
<path d="M364.188 83.4375V77.375H358.125V83.4375H364.188Z" fill="#A5D4FF"/>
<path d="M358.125 77.375H352.062V83.4375H358.125V77.375Z" fill="#A5D4FF"/>
<path d="M418.75 89.5H424.812V83.4375H418.75V89.5Z" fill="white"/>
</g>
<line x1="281.324" y1="584.412" x2="281.324" y2="607.907" stroke="white" stroke-opacity="0.4" stroke-width="0.939797"/>
<line x1="292.602" y1="596.629" x2="269.107" y2="596.629" stroke="white" stroke-opacity="0.4" stroke-width="0.939797"/>
<line x1="172.334" y1="603.991" x2="172.334" y2="618.349" stroke="white" stroke-opacity="0.4" stroke-width="0.939797"/>
<line x1="179.042" y1="611.64" x2="164.684" y2="611.64" stroke="white" stroke-opacity="0.4" stroke-width="0.939797"/>
<line x1="219.323" y1="618.349" x2="219.323" y2="632.707" stroke="white" stroke-opacity="0.4" stroke-width="0.939797"/>
<line x1="226.032" y1="625.998" x2="211.674" y2="625.998" stroke="white" stroke-opacity="0.4" stroke-width="0.939797"/>
<line x1="302.861" y1="530.896" x2="302.861" y2="545.254" stroke="white" stroke-opacity="0.4" stroke-width="0.939797"/>
<line x1="309.57" y1="538.544" x2="295.212" y2="538.544" stroke="white" stroke-opacity="0.4" stroke-width="0.939797"/>
<line x1="233.596" y1="433" x2="233.596" y2="444.747" stroke="white" stroke-opacity="0.4" stroke-width="0.768925"/>
<line x1="239.085" y1="439.258" x2="227.338" y2="439.258" stroke="white" stroke-opacity="0.4" stroke-width="0.768925"/>
<line x1="170.943" y1="446.053" x2="170.943" y2="457.8" stroke="white" stroke-opacity="0.4" stroke-width="0.768925"/>
<line x1="176.432" y1="452.311" x2="164.685" y2="452.311" stroke="white" stroke-opacity="0.4" stroke-width="0.768925"/>
<line x1="295.029" y1="464.326" x2="295.029" y2="478.684" stroke="white" stroke-opacity="0.4" stroke-width="0.939797"/>
<line x1="301.738" y1="471.975" x2="287.38" y2="471.975" stroke="white" stroke-opacity="0.4" stroke-width="0.939797"/>
<line x1="160.586" y1="472.158" x2="160.586" y2="486.516" stroke="white" stroke-opacity="0.4" stroke-width="0.939797"/>
<line x1="167.295" y1="479.807" x2="152.937" y2="479.807" stroke="white" stroke-opacity="0.4" stroke-width="0.939797"/>
<mask id="path-23-inside-1_173_130" fill="white">
<path d="M278.243 459.105C278.243 466.314 272.399 472.158 265.19 472.158C257.982 472.158 252.138 466.314 252.138 459.105C252.138 451.897 257.982 446.053 265.19 446.053C272.399 446.053 278.243 451.897 278.243 459.105ZM254.239 459.105C254.239 465.154 259.142 470.057 265.19 470.057C271.239 470.057 276.142 465.154 276.142 459.105C276.142 453.057 271.239 448.154 265.19 448.154C259.142 448.154 254.239 453.057 254.239 459.105Z"/>
</mask>
<path d="M278.243 459.105C278.243 466.314 272.399 472.158 265.19 472.158C257.982 472.158 252.138 466.314 252.138 459.105C252.138 451.897 257.982 446.053 265.19 446.053C272.399 446.053 278.243 451.897 278.243 459.105ZM254.239 459.105C254.239 465.154 259.142 470.057 265.19 470.057C271.239 470.057 276.142 465.154 276.142 459.105C276.142 453.057 271.239 448.154 265.19 448.154C259.142 448.154 254.239 453.057 254.239 459.105Z" fill="white" fill-opacity="0.4" stroke="white" stroke-opacity="0.4" stroke-width="0.367683" mask="url(#path-23-inside-1_173_130)"/>
<mask id="path-24-inside-2_173_130" fill="white">
<path d="M147.716 606.601C147.716 613.81 141.872 619.654 134.663 619.654C127.454 619.654 121.61 613.81 121.61 606.601C121.61 599.392 127.454 593.549 134.663 593.549C141.872 593.549 147.716 599.392 147.716 606.601ZM123.711 606.601C123.711 612.65 128.615 617.553 134.663 617.553C140.712 617.553 145.615 612.65 145.615 606.601C145.615 600.553 140.712 595.649 134.663 595.649C128.615 595.649 123.711 600.553 123.711 606.601Z"/>
</mask>
<path d="M147.716 606.601C147.716 613.81 141.872 619.654 134.663 619.654C127.454 619.654 121.61 613.81 121.61 606.601C121.61 599.392 127.454 593.549 134.663 593.549C141.872 593.549 147.716 599.392 147.716 606.601ZM123.711 606.601C123.711 612.65 128.615 617.553 134.663 617.553C140.712 617.553 145.615 612.65 145.615 606.601C145.615 600.553 140.712 595.649 134.663 595.649C128.615 595.649 123.711 600.553 123.711 606.601Z" fill="white" fill-opacity="0.4" stroke="white" stroke-opacity="0.4" stroke-width="0.367683" mask="url(#path-24-inside-2_173_130)"/>
<mask id="path-25-inside-3_173_130" fill="white">
<path d="M152.937 495.653C152.937 500.699 148.846 504.79 143.8 504.79C138.754 504.79 134.663 500.699 134.663 495.653C134.663 490.607 138.754 486.516 143.8 486.516C148.846 486.516 152.937 490.607 152.937 495.653ZM136.134 495.653C136.134 499.887 139.566 503.319 143.8 503.319C148.034 503.319 151.466 499.887 151.466 495.653C151.466 491.419 148.034 487.987 143.8 487.987C139.566 487.987 136.134 491.419 136.134 495.653Z"/>
</mask>
<path d="M152.937 495.653C152.937 500.699 148.846 504.79 143.8 504.79C138.754 504.79 134.663 500.699 134.663 495.653C134.663 490.607 138.754 486.516 143.8 486.516C148.846 486.516 152.937 490.607 152.937 495.653ZM136.134 495.653C136.134 499.887 139.566 503.319 143.8 503.319C148.034 503.319 151.466 499.887 151.466 495.653C151.466 491.419 148.034 487.987 143.8 487.987C139.566 487.987 136.134 491.419 136.134 495.653Z" fill="white" fill-opacity="0.4" stroke="white" stroke-opacity="0.4" stroke-width="0.441219" mask="url(#path-25-inside-3_173_130)"/>
<mask id="path-26-inside-4_173_130" fill="white">
<path d="M259.969 624.875C259.969 629.201 256.463 632.707 252.138 632.707C247.812 632.707 244.306 629.201 244.306 624.875C244.306 620.55 247.812 617.044 252.138 617.044C256.463 617.044 259.969 620.55 259.969 624.875ZM245.567 624.875C245.567 628.504 248.509 631.446 252.138 631.446C255.767 631.446 258.709 628.504 258.709 624.875C258.709 621.246 255.767 618.304 252.138 618.304C248.509 618.304 245.567 621.246 245.567 624.875Z"/>
</mask>
<path d="M259.969 624.875C259.969 629.201 256.463 632.707 252.138 632.707C247.812 632.707 244.306 629.201 244.306 624.875C244.306 620.55 247.812 617.044 252.138 617.044C256.463 617.044 259.969 620.55 259.969 624.875ZM245.567 624.875C245.567 628.504 248.509 631.446 252.138 631.446C255.767 631.446 258.709 628.504 258.709 624.875C258.709 621.246 255.767 618.304 252.138 618.304C248.509 618.304 245.567 621.246 245.567 624.875Z" fill="white" fill-opacity="0.4" stroke="white" stroke-opacity="0.4" stroke-width="0.378188" mask="url(#path-26-inside-4_173_130)"/>
<mask id="path-27-inside-5_173_130" fill="white">
<path d="M188.18 635.97C188.18 639.214 185.55 641.844 182.306 641.844C179.062 641.844 176.432 639.214 176.432 635.97C176.432 632.726 179.062 630.096 182.306 630.096C185.55 630.096 188.18 632.726 188.18 635.97ZM177.378 635.97C177.378 638.692 179.584 640.898 182.306 640.898C185.028 640.898 187.234 638.692 187.234 635.97C187.234 633.248 185.028 631.042 182.306 631.042C179.584 631.042 177.378 633.248 177.378 635.97Z"/>
</mask>
<path d="M188.18 635.97C188.18 639.214 185.55 641.844 182.306 641.844C179.062 641.844 176.432 639.214 176.432 635.97C176.432 632.726 179.062 630.096 182.306 630.096C185.55 630.096 188.18 632.726 188.18 635.97ZM177.378 635.97C177.378 638.692 179.584 640.898 182.306 640.898C185.028 640.898 187.234 638.692 187.234 635.97C187.234 633.248 185.028 631.042 182.306 631.042C179.584 631.042 177.378 633.248 177.378 635.97Z" fill="white" fill-opacity="0.4" stroke="white" stroke-opacity="0.4" stroke-width="0.283641" mask="url(#path-27-inside-5_173_130)"/>
<mask id="path-28-inside-6_173_130" fill="white">
<path d="M130.747 565.485C130.747 568.729 128.118 571.359 124.874 571.359C121.63 571.359 119 568.729 119 565.485C119 562.241 121.63 559.612 124.874 559.612C128.118 559.612 130.747 562.241 130.747 565.485ZM119.945 565.485C119.945 568.207 122.152 570.414 124.874 570.414C127.596 570.414 129.802 568.207 129.802 565.485C129.802 562.763 127.596 560.557 124.874 560.557C122.152 560.557 119.945 562.763 119.945 565.485Z"/>
</mask>
<path d="M130.747 565.485C130.747 568.729 128.118 571.359 124.874 571.359C121.63 571.359 119 568.729 119 565.485C119 562.241 121.63 559.612 124.874 559.612C128.118 559.612 130.747 562.241 130.747 565.485ZM119.945 565.485C119.945 568.207 122.152 570.414 124.874 570.414C127.596 570.414 129.802 568.207 129.802 565.485C129.802 562.763 127.596 560.557 124.874 560.557C122.152 560.557 119.945 562.763 119.945 565.485Z" fill="white" fill-opacity="0.4" stroke="white" stroke-opacity="0.4" stroke-width="0.441219" mask="url(#path-28-inside-6_173_130)"/>
</g>
<defs>
<clipPath id="clip0_173_130">
<rect width="430" height="932" fill="white"/>
</clipPath>
</defs>
</svg>
